<?xml version="1.0" encoding="UTF-8"?>
<svg height="16px" viewBox="0 0 16 16" width="16px" xmlns="http://www.w3.org/2000/svg">
    <g fill="#2e3436">
        <path d="m 14.902344 2 c -0.042969 0.007812 -0.085938 0.019531 -0.125 0.03125 c -0.449219 0.101562 -0.792969 0.542969 -0.78125 1 v 1.6875 c 0.003906 1.3125 0.003906 1.3125 -1.5625 1.3125 h -1.4375 c -0.523438 0 -1 0.476562 -1 1 c -0.007813 0.074219 -0.007813 0.148438 0 0.21875 v 0.78125 h 6 v -5 c 0.003906 -0.0625 0.003906 -0.125 0 -0.1875 v -0.8125 h -0.8125 c -0.09375 -0.023438 -0.1875 -0.035156 -0.28125 -0.03125 z m 0 0"/>
        <path d="m 0.00390625 8 v 5 c -0.00390625 0.0625 -0.00390625 0.125 0 0.1875 v 0.8125 h 0.81249975 c 0.09375 0.023438 0.1875 0.035156 0.28125 0.03125 c 0.042969 -0.007812 0.085938 -0.019531 0.125 -0.03125 c 0.449219 -0.101562 0.792969 -0.542969 0.78125 -1 v -1.6875 c -0.003906 -1.3125 -0.003906 -1.3125 1.5625 -1.3125 h 1.4375 c 0.523438 0 1 -0.476562 1 -1 c 0.007813 -0.074219 0.007813 -0.144531 0 -0.21875 v -0.78125 z m 0 0"/>
        <path d="m 8 1 c -3.152344 0 -5.820312 2.125 -6.6875 5 h 2.09375 c 0.773438 -1.765625 2.539062 -3 4.59375 -3 s 3.820312 1.234375 4.59375 3 h 2.09375 c -0.867188 -2.875 -3.535156 -5 -6.6875 -5 z m -6.6875 9 c 0.867188 2.875 3.535156 5 6.6875 5 s 5.820312 -2.125 6.6875 -5 h -2.09375 c -0.773438 1.765625 -2.539062 3 -4.59375 3 s -3.820312 -1.234375 -4.59375 -3 z m 0 0"/>
    </g>
</svg>
