<svg xmlns="http://www.w3.org/2000/svg" width="16" height="16">
    <path d="M8 1c3.863 0 7 3.137 7 7s-3.137 7-7 7-7-3.137-7-7 3.137-7 7-7zm0 2a4.93 4.93 0 0 0-2.75.813l6.937 6.937A4.93 4.93 0 0 0 13 8c0-2.76-2.24-5-5-5zM3.812 5.25A4.93 4.93 0 0 0 3 8c0 2.76 2.24 5 5 5a4.93 4.93 0 0 0 2.75-.813z" style="line-height:normal;-inkscape-font-specification:Sans;text-indent:0;text-align:start;text-decoration-line:none;text-transform:none;marker:none" color="#000" font-weight="400" font-family="Sans" overflow="visible" fill="#2e3436"/>
</svg>
