<svg xmlns="http://www.w3.org/2000/svg" width="16" height="16">
    <g fill="#474747">
        <path d="M3 1C1 1 1 3 1 3h8V1zm9 6v7H1s0 2 2 2h9s.459.014.947-.23C13.436 15.525 14 14.833 14 14V7z" style="line-height:normal;font-variant-ligatures:normal;font-variant-position:normal;font-variant-caps:normal;font-variant-numeric:normal;font-variant-alternates:normal;font-feature-settings:normal;text-indent:0;text-align:start;text-decoration-line:none;text-decoration-style:solid;text-decoration-color:#000;text-transform:none;text-orientation:mixed;shape-padding:0;isolation:auto;mix-blend-mode:normal" color="#000" font-weight="400" font-family="sans-serif" white-space="normal" overflow="visible" fill-rule="evenodd"/>
        <path d="M.5 4h2a.499.499 0 1 1 0 1h-2a.499.499 0 1 1 0-1zM.5 6h2a.499.499 0 1 1 0 1h-2a.499.499 0 1 1 0-1zM.5 8h2a.499.499 0 1 1 0 1h-2a.499.499 0 1 1 0-1zM.5 10h2a.499.499 0 1 1 0 1h-2a.499.499 0 1 1 0-1zM.5 12h2a.499.499 0 1 1 0 1h-2a.499.499 0 1 1 0-1z"/>
        <path d="M7.285 5.004A3.506 3.506 0 0 0 4.027 8.94 3.506 3.506 0 0 0 7.515 12c.85 0 1.644-.276 1.644-.276l-.316-.949S8.137 11 7.512 11H7.51a2.494 2.494 0 0 1-2.49-2.186 2.495 2.495 0 0 1 1.867-2.738 2.797 2.797 0 0 1 1.808.164c.526.241.89.63 1.004 1.059.124.464.087.97-.084 1.275-.098.176-.403.354-.615.426v-.5C9 7.677 8.323 7 7.5 7 6.678 7 6 7.677 6 8.5c0 .822.678 1.5 1.5 1.5.176 0 .343-.037.5-.094v.045l.45.047c.941.096 1.692-.317 2.038-.936.347-.618.355-1.357.178-2.021-.208-.784-.82-1.372-1.554-1.709a3.75 3.75 0 0 0-1.827-.328zM7.5 8c.282 0 .5.218.5.5 0 .282-.218.5-.5.5a.493.493 0 0 1-.5-.5c0-.282.218-.5.5-.5z" style="line-height:normal;font-variant-ligatures:normal;font-variant-position:normal;font-variant-caps:normal;font-variant-numeric:normal;font-variant-alternates:normal;font-feature-settings:normal;text-indent:0;text-align:start;text-decoration-line:none;text-decoration-style:solid;text-decoration-color:#000;text-transform:none;text-orientation:mixed;shape-padding:0;isolation:auto;mix-blend-mode:normal" color="#000" font-weight="400" font-family="sans-serif" white-space="normal" overflow="visible"/>
        <path d="M12 .005v1.997h-2v1.996h2v1.997h2V3.998h2V2.002h-2V.005z"/>
    </g>
</svg>
