<svg xmlns="http://www.w3.org/2000/svg" width="16.014" height="16"><g color="#000" fill="#2e3436"><path d="M4 1s-.459-.014-.947.23C2.564 1.475 2 2.167 2 3v10c0 .833.564 1.525 1.053 1.77.488.244.947.23.947.23h8c.833 0 1.525-.564 1.77-1.053.244-.488.23-.947.23-.947v-2a1 1 0 10-2 0v2H4V3h8v2a1 1 0 102 0V3c0-.833-.564-1.525-1.053-1.77C12.46.986 12 1 12 1z" style="line-height:normal;font-variant-ligatures:normal;font-variant-position:normal;font-variant-caps:normal;font-variant-numeric:normal;font-variant-alternates:normal;font-feature-settings:normal;text-indent:0;text-align:start;text-decoration-line:none;text-decoration-style:solid;text-decoration-color:#000;text-transform:none;text-orientation:mixed;shape-padding:0;isolation:auto;mix-blend-mode:normal" font-weight="400" font-family="sans-serif" overflow="visible" fill-rule="evenodd"/><path d="M8.293 5.293L5.586 8l2.707 2.707 1.414-1.414L8.414 8l1.293-1.293z" style="line-height:normal;font-variant-ligatures:normal;font-variant-position:normal;font-variant-caps:normal;font-variant-numeric:normal;font-variant-alternates:normal;font-feature-settings:normal;text-indent:0;text-align:start;text-decoration-line:none;text-decoration-style:solid;text-decoration-color:#000;text-transform:none;text-orientation:mixed;shape-padding:0;isolation:auto;mix-blend-mode:normal;marker:none" font-weight="400" font-family="sans-serif" overflow="visible"/><path d="M9 10h1v1H9zm0-5h1v1H9z" style="marker:none" overflow="visible"/><path d="M9 5c.554 0 1 .446 1 1s-.446 1-1 1-1-.446-1-1 .446-1 1-1zm0 4c.554 0 1 .446 1 1s-.446 1-1 1-1-.446-1-1 .446-1 1-1z" style="marker:none" overflow="visible"/><path d="M8 7a1 1 0 100 2h7a1 1 0 100-2z" style="line-height:normal;font-variant-ligatures:normal;font-variant-position:normal;font-variant-caps:normal;font-variant-numeric:normal;font-variant-alternates:normal;font-feature-settings:normal;text-indent:0;text-align:start;text-decoration-line:none;text-decoration-style:solid;text-decoration-color:#000;text-transform:none;text-orientation:mixed;shape-padding:0;isolation:auto;mix-blend-mode:normal" font-weight="400" font-family="sans-serif" overflow="visible" fill-rule="evenodd"/></g></svg>