<?xml version="1.0" encoding="UTF-8"?>
<svg height="16px" viewBox="0 0 16 16" width="16px" xmlns="http://www.w3.org/2000/svg">
    <g fill="#2e3436">
        <path d="m 2 0 c -0.550781 0 -1 0.449219 -1 1 v 14 c 0 0.550781 0.449219 1 1 1 h 10 v -2 h -9 v -12 h 7.585938 l 2.414062 2.414062 v 2.585938 h 2 v -3 c 0 -0.265625 -0.105469 -0.519531 -0.292969 -0.707031 l -3 -3 c -0.1875 -0.1875 -0.441406 -0.292969 -0.707031 -0.292969 z m 5 8 v 2 h 4 c 1.117188 0 2 0.882812 2 2 v 4 h 2 v -4 c 0 -2.199219 -1.800781 -4 -4 -4 z m 0 0" fill-rule="evenodd"/>
        <path d="m 9 5 c -0.277344 0 -0.527344 0.113281 -0.707031 0.292969 l -3.707031 3.707031 l 3.707031 3.707031 c 0.179687 0.179688 0.429687 0.292969 0.707031 0.292969 h 1 v -1 c 0 -0.277344 -0.113281 -0.527344 -0.292969 -0.707031 l -2.292969 -2.292969 l 2.292969 -2.292969 c 0.179688 -0.179687 0.292969 -0.429687 0.292969 -0.707031 v -1 z m 0 0"/>
    </g>
</svg>
