<svg xmlns="http://www.w3.org/2000/svg" width="16" height="16">
    <g color="#000" fill="#474747">
        <path d="M9 10c0 .554.446 1 1 1s1-.446 1-1-.446-1-1-1-1 .446-1 1zM5 10c0 .554.446 1 1 1s1-.446 1-1-.446-1-1-1-1 .446-1 1z" style="marker:none" overflow="visible"/>
        <path d="M3 1a1 1 0 0 0-1 1v13a1 1 0 0 0 1 1h2a1 1 0 1 0 0-2H4V3h5.586L12 5.414V14H9v-4a1 1 0 1 0-2 0v5a1 1 0 0 0 1 1h5a1 1 0 0 0 1-1V5a1 1 0 0 0-.293-.707l-3-3A1 1 0 0 0 10 1z" style="line-height:normal;font-variant-ligatures:normal;font-variant-position:normal;font-variant-caps:normal;font-variant-numeric:normal;font-variant-alternates:normal;font-feature-settings:normal;text-indent:0;text-align:start;text-decoration-line:none;text-decoration-style:solid;text-decoration-color:#000;text-transform:none;text-orientation:mixed;shape-padding:0;isolation:auto;mix-blend-mode:normal" font-weight="400" font-family="sans-serif" white-space="normal" overflow="visible" fill-rule="evenodd"/>
        <path d="M8 6.586L5.293 9.293l1.414 1.414L8 9.414l1.293 1.293 1.414-1.414z" style="line-height:normal;font-variant-ligatures:normal;font-variant-position:normal;font-variant-caps:normal;font-variant-numeric:normal;font-variant-alternates:normal;font-feature-settings:normal;text-indent:0;text-align:start;text-decoration-line:none;text-decoration-style:solid;text-decoration-color:#000;text-transform:none;text-orientation:mixed;shape-padding:0;isolation:auto;mix-blend-mode:normal;marker:none" font-weight="400" font-family="sans-serif" white-space="normal" overflow="visible"/>
        <path d="M10 10v1h1v-1zM5 10v1h1v-1z" style="marker:none" overflow="visible"/>
    </g>
</svg>
