<?xml version="1.0" encoding="UTF-8"?>
<svg height="16px" viewBox="0 0 16 16" width="16px" xmlns="http://www.w3.org/2000/svg">
    <g fill="#2e3436">
        <path d="m 2 0 c -0.550781 0 -1 0.449219 -1 1 v 2 c 0 0.550781 0.449219 1 1 1 s 1 -0.449219 1 -1 v -1 h 7.585938 l 2.414062 2.414062 v 5.585938 c 0 0.550781 0.449219 1 1 1 s 1 -0.449219 1 -1 v -6 c 0 -0.265625 -0.105469 -0.519531 -0.292969 -0.707031 l -3 -3 c -0.1875 -0.1875 -0.441406 -0.292969 -0.707031 -0.292969 z m 0 14 c -0.550781 0 -1 0.449219 -1 1 s 0.449219 1 1 1 h 12 c 0.550781 0 1 -0.449219 1 -1 s -0.449219 -1 -1 -1 z m 0 0" fill-rule="evenodd"/>
        <path d="m 1 4.765625 v 8.234375 h 14.222656 z m 2 3.46875 l 4.777344 2.765625 h -4.777344 z m 0 0" fill-rule="evenodd"/>
        <path d="m 1 14 h 1 v 1 h -1 z m 0 0"/>
        <path d="m 14 14 h 1 v 1 h -1 z m 0 0"/>
    </g>
</svg>
