<?xml version="1.0" encoding="UTF-8"?>
<svg height="16px" viewBox="0 0 16 16" width="16px" xmlns="http://www.w3.org/2000/svg">
    <g fill="#2e3436">
        <path d="m 9.234375 6.21875 c -0.386719 -0.070312 -0.796875 -0.054688 -1.191406 -0.003906 l 1.171875 2.074218 c 0.242187 0.425782 -0.027344 0.914063 -0.542969 1.210938 l -0.921875 0.53125 c -0.515625 0.289062 -1.09375 0.25 -1.332031 -0.175781 l -1.171875 -2.074219 c -0.246094 0.308594 -0.476563 0.648438 -0.617188 1.015625 c -0.679687 1.765625 0.285156 3.472656 2.152344 3.808594 c 0.386719 0.074219 0.796875 0.054687 1.191406 0.003906 c 0.03125 -0.003906 1.859375 3.390625 1.859375 3.390625 l 4.167969 0.003906 l -3.199219 -4.957031 c 0.246094 -0.308594 0.445313 -0.652344 0.585938 -1.019531 c 0.675781 -1.765625 -0.285157 -3.472656 -2.152344 -3.808594 z m 0 0"/>
        <path d="m 2 0 c -0.550781 0 -1 0.449219 -1 1 v 14 c 0 0.550781 0.449219 1 1 1 h 5 c 0.550781 0 1 -0.449219 1 -1 s -0.449219 -1 -1 -1 h -4 v -12 h 7.585938 l 2.414062 2.414062 v 7.585938 c 0 0.550781 0.449219 1 1 1 s 1 -0.449219 1 -1 v -8 c 0 -0.265625 -0.105469 -0.519531 -0.292969 -0.707031 l -3 -3 c -0.1875 -0.1875 -0.441406 -0.292969 -0.707031 -0.292969 z m 0 0" fill-rule="evenodd"/>
    </g>
</svg>
