<?xml version="1.0" encoding="UTF-8"?>
<svg height="16px" viewBox="0 0 16 16" width="16px" xmlns="http://www.w3.org/2000/svg">
    <path d="m 10 2 c 0.265625 0 0.519531 0.105469 0.707031 0.292969 l 5 5 c 0.390625 0.390625 0.390625 1.023437 0 1.414062 l -5 5 c -0.1875 0.1875 -0.441406 0.292969 -0.707031 0.292969 h -8.5 s -0.332031 0.015625 -0.695312 -0.167969 c -0.367188 -0.183593 -0.804688 -0.75 -0.804688 -1.332031 v -9 c 0 -0.582031 0.4375 -1.148438 0.804688 -1.332031 c 0.363281 -0.183594 0.695312 -0.167969 0.695312 -0.167969 z m -1.003906 3 h -1 c -0.011719 0 -0.023438 0 -0.03125 0 c -0.257813 0.011719 -0.511719 0.128906 -0.6875 0.3125 l -1.28125 1.28125 l -1.3125 -1.28125 c -0.265625 -0.230469 -0.449219 -0.304688 -0.6875 -0.3125 h -1 v 1 c 0 0.285156 0.03125 0.550781 0.25 0.75 l 1.28125 1.28125 l -1.25 1.25 c -0.191406 0.1875 -0.28125 0.453125 -0.28125 0.71875 v 1 h 1 c 0.261718 0 0.527344 -0.09375 0.71875 -0.28125 l 1.28125 -1.28125 l 1.28125 1.28125 c 0.1875 0.1875 0.453125 0.28125 0.71875 0.28125 h 1 v -1 c 0 -0.265625 -0.09375 -0.53125 -0.28125 -0.71875 l -1.28125 -1.25 l 1.28125 -1.28125 c 0.210937 -0.195312 0.300781 -0.46875 0.28125 -0.75 z m 0 0" fill="#2e3436" fill-rule="evenodd"/>
</svg>
