<?xml version="1.0" encoding="UTF-8"?>
<svg height="16px" viewBox="0 0 16 16" width="16px" xmlns="http://www.w3.org/2000/svg">
    <g fill="#2e3436">
        <path d="m 9.339844 9.214844 c -0.046875 0.039062 -0.085938 0.082031 -0.125 0.125 z m 2.0625 0.757812 l -1.414063 1.425782 l 3.3125 3.320312 c 0.960938 0.9375 2.367188 -0.5 1.40625 -1.4375 z m 0 0"/>
        <path d="m 6.5 0 c -3.578125 0 -6.5 2.921875 -6.5 6.5 c 0 1.683594 0.648438 3.21875 1.707031 4.375 l 1.398438 -1.410156 c -0.6875 -0.789063 -1.105469 -1.824219 -1.105469 -2.964844 c 0 -2.496094 2.003906 -4.5 4.5 -4.5 c 1.128906 0 2.15625 0.410156 2.945312 1.089844 l 0.363282 -0.367188 l 0.707031 -0.710937 l 0.011719 0.007812 l 0.332031 -0.332031 c -1.15625 -1.046875 -2.683594 -1.6875 -4.359375 -1.6875 z m 0 0"/>
        <g fill-rule="evenodd">
            <path d="m 13.628906 0.664062 c -0.203125 0 -0.402344 0.074219 -0.554687 0.230469 l -1.773438 1.765625 l 3.054688 3.054688 l 1.769531 -1.769532 c 0.308594 -0.308593 0.308594 -0.804687 0 -1.109374 l -1.941406 -1.941407 c -0.15625 -0.15625 -0.355469 -0.230469 -0.554688 -0.230469 z m -3.109375 2.765626 l -8.519531 8.570312 v 3 h 3 l 8.519531 -8.570312 z m 0 0"/>
            <path d="m 13.628906 0.664062 c -0.203125 0 -0.402344 0.074219 -0.554687 0.230469 l -1.773438 1.765625 l 3.054688 3.054688 l 1.769531 -1.769532 c 0.308594 -0.308593 0.308594 -0.804687 0 -1.109374 l -1.941406 -1.941407 c -0.15625 -0.15625 -0.355469 -0.230469 -0.554688 -0.230469 z m -3.109375 2.765626 l -8.519531 8.570312 v 3 h 3 l 8.519531 -8.570312 z m 0 0"/>
        </g>
    </g>
</svg>
