<?xml version="1.0" encoding="UTF-8"?>
<svg height="16px" viewBox="0 0 16 16" width="16px" xmlns="http://www.w3.org/2000/svg">
    <g fill="#2e3436">
        <path d="m 9 1.023438 v 1 c 0 0.253906 0.128906 0.527343 0.3125 0.71875 l 3.28125 3.28125 l -3.28125 3.28125 c -0.183594 0.1875 -0.3125 0.460937 -0.3125 0.71875 v 1 h 1 c 0.308594 0 0.550781 -0.089844 0.75 -0.28125 l 4.65625 -4.71875 l -4.65625 -4.71875 c -0.199219 -0.191407 -0.441406 -0.28125 -0.75 -0.28125 z m 0 0"/>
        <path d="m 13 5 h -8 v 2 h 8 z m 0 0"/>
        <path d="m 5 5 v 2 c -1.667969 0 -3 1.332031 -3 3 s 1.332031 3 3 3 v 2 c -2.75 0 -5 -2.25 -5 -5 s 2.25 -5 5 -5 z m 0 0"/>
    </g>
</svg>
