<?xml version="1.0" encoding="UTF-8"?>
<svg height="16px" viewBox="0 0 16 16" width="16px" xmlns="http://www.w3.org/2000/svg">
    <g fill="#2e3436">
        <path d="m 12.628906 0.664062 c -0.203125 0 -0.402344 0.074219 -0.554687 0.230469 l -1.769531 1.765625 l 3.050781 3.054688 l 1.769531 -1.769532 c 0.308594 -0.308593 0.308594 -0.804687 0 -1.109374 l -1.941406 -1.941407 c -0.15625 -0.15625 -0.355469 -0.230469 -0.554688 -0.230469 z m -3.109375 2.765626 l -8.519531 8.570312 v 3 h 3 l 8.519531 -8.570312 z m 0 0" fill-rule="evenodd"/>
        <path d="m 10 0 h -5 s -0.710938 -0.0117188 -1.449219 0.355469 c -0.738281 0.371093 -1.550781 1.3125 -1.550781 2.644531 v 3 h 2 v -3 c 0 -0.664062 0.183594 -0.726562 0.445312 -0.855469 c 0.261719 -0.132812 0.554688 -0.144531 0.554688 -0.144531 h 5 z m 0 0" fill-rule="evenodd"/>
        <path d="m 5.707031 5.707031 l -1.414062 -1.414062 l -1.292969 1.292969 l -1.292969 -1.292969 l -1.414062 1.414062 l 2.707031 2.707031 z m 0 0"/>
        <path d="m 5 5 v -1 h 1 v 1 z m 0 0"/>
        <path d="m 0 5 v -1 h 1 v 1 z m 0 0"/>
        <path d="m 0 5 c 0 -0.550781 0.449219 -1 1 -1 s 1 0.449219 1 1 s -0.449219 1 -1 1 s -1 -0.449219 -1 -1 z m 0 0"/>
        <path d="m 4 5 c 0 -0.550781 0.449219 -1 1 -1 s 1 0.449219 1 1 s -0.449219 1 -1 1 s -1 -0.449219 -1 -1 z m 0 0"/>
    </g>
</svg>
