<?xml version="1.0" encoding="UTF-8"?>
<svg height="16px" viewBox="0 0 16 16" width="16px" xmlns="http://www.w3.org/2000/svg">
    <g fill="#2e3436">
        <path d="m 0 5 v 1 c 0 0.257812 0.128906 0.527344 0.3125 0.71875 l 1.28125 1.28125 l -1.28125 1.28125 c -0.183594 0.191406 -0.3125 0.460938 -0.3125 0.71875 v 1 h 1 c 0.308594 0 0.550781 -0.089844 0.75 -0.28125 l 2.65625 -2.71875 l -2.65625 -2.71875 c -0.199219 -0.191406 -0.441406 -0.28125 -0.75 -0.28125 z m 0 0"/>
        <path d="m 16 5 v 1 c 0 0.257812 -0.128906 0.527344 -0.3125 0.71875 l -1.28125 1.28125 l 1.28125 1.28125 c 0.183594 0.191406 0.3125 0.460938 0.3125 0.71875 v 1 h -1 c -0.308594 0 -0.550781 -0.089844 -0.75 -0.28125 l -2.65625 -2.71875 l 2.65625 -2.71875 c 0.199219 -0.191406 0.441406 -0.28125 0.75 -0.28125 z m 0 0"/>
        <path d="m 7 3.011719 v 2 h 1.917969 c -0.054688 0 0.085937 0.160156 0.085937 0.082031 v 0.921875 h -1.003906 c -1.714844 0 -3.03125 1.128906 -3.054688 2.484375 c -0.011718 0.679688 0.304688 1.363281 0.859376 1.824219 c 0.558593 0.460937 1.316406 0.699219 2.195312 0.699219 h 3.003906 v -5.929688 c 0 -1.171875 -0.886718 -2.082031 -2.085937 -2.082031 z m 1 5.007812 h 1.003906 v 1.003907 h -1.003906 c -0.519531 0 -0.792969 -0.136719 -0.921875 -0.242188 c -0.125 -0.105469 -0.132813 -0.171875 -0.132813 -0.242188 c 0.003907 -0.144531 0.085938 -0.519531 1.054688 -0.519531 z m 0 0"/>
    </g>
</svg>
