<svg xmlns="http://www.w3.org/2000/svg" width="16" height="16">
    <path d="M4.494 3v2h6c.428 0 .607.281.482.732L10.625 7h-5.24C3.546 7 2.254 8.343 1.879 9.74c-.188.7-.174 1.477.238 2.155.412.677 1.252 1.105 2.16 1.105h6.76l1.865-6.732C13.337 4.698 12.174 3 10.494 3zm.89 6h4.686l-.555 2H4.277c-.398 0-.409-.072-.453-.145-.044-.072-.094-.294-.014-.595C3.972 9.657 4.54 9 5.385 9z" style="line-height:normal;font-variant-ligatures:normal;font-variant-position:normal;font-variant-caps:normal;font-variant-numeric:normal;font-variant-alternates:normal;font-feature-settings:normal;text-indent:0;text-align:start;text-decoration-line:none;text-decoration-style:solid;text-decoration-color:#000;text-transform:none;text-orientation:mixed;shape-padding:0;isolation:auto;mix-blend-mode:normal;marker:none" color="#000" font-weight="400" font-family="sans-serif" white-space="normal" overflow="visible" fill="#474747"/>
</svg>
