<svg xmlns="http://www.w3.org/2000/svg" width="16" height="16">
    <g color="#000" font-weight="400" font-family="sans-serif" white-space="normal" fill="#474747">
        <path d="M5 3v2h6c.428 0 1 .614 1 1v1H7c-.92 0-1.736.38-2.25.965a3.037 3.037 0 0 0-.737 2.045c.006.72.246 1.449.758 2.027.513.579 1.32.963 2.229.963h7V6a3 3 0 0 0-3-3zm2 6h5v2H7c-.398 0-.579-.116-.73-.287a1.138 1.138 0 0 1-.257-.723c-.002-.28.093-.54.239-.705C6.397 9.12 6.577 9 7 9z" style="line-height:normal;font-variant-ligatures:normal;font-variant-position:normal;font-variant-caps:normal;font-variant-numeric:normal;font-variant-alternates:normal;font-feature-settings:normal;text-indent:0;text-align:start;text-decoration-line:none;text-decoration-style:solid;text-decoration-color:#000;text-transform:none;text-orientation:mixed;shape-padding:0;isolation:auto;mix-blend-mode:normal;marker:none" overflow="visible"/>
        <path d="M4 3v2h5c.428 0 1 .614 1 1v1H5c-.92 0-1.736.38-2.25.965a3.037 3.037 0 0 0-.737 2.045c.006.72.246 1.449.758 2.027.513.579 1.32.963 2.229.963h7V6a3 3 0 0 0-3-3zm1 6h5v2H5c-.398 0-.579-.116-.73-.287a1.138 1.138 0 0 1-.257-.723c-.002-.28.093-.54.239-.705C4.397 9.12 4.577 9 5 9z" style="line-height:normal;font-variant-ligatures:normal;font-variant-position:normal;font-variant-caps:normal;font-variant-numeric:normal;font-variant-alternates:normal;font-feature-settings:normal;text-indent:0;text-align:start;text-decoration-line:none;text-decoration-style:solid;text-decoration-color:#000;text-transform:none;text-orientation:mixed;shape-padding:0;isolation:auto;mix-blend-mode:normal;marker:none" overflow="visible"/>
    </g>
</svg>
