<svg xmlns="http://www.w3.org/2000/svg" width="16" height="16">
    <g color="#000" fill="#474747">
        <path d="M3.707 5.293L2.293 6.707 8 12.414l5.707-5.707-1.414-1.414L8 9.586z" style="line-height:normal;font-variant-ligatures:normal;font-variant-position:normal;font-variant-caps:normal;font-variant-numeric:normal;font-variant-alternates:normal;font-feature-settings:normal;text-indent:0;text-align:start;text-decoration-line:none;text-decoration-style:solid;text-decoration-color:#000;text-transform:none;text-orientation:mixed;shape-padding:0;isolation:auto;mix-blend-mode:normal;marker:none" font-weight="400" font-family="sans-serif" white-space="normal" overflow="visible"/>
        <path d="M13 6V5h1v1zM2 6V5h1v1z" style="marker:none" overflow="visible"/>
        <path d="M2 6c0-.554.446-1 1-1s1 .446 1 1-.446 1-1 1-1-.446-1-1zM12 6c0-.554.446-1 1-1s1 .446 1 1-.446 1-1 1-1-.446-1-1z" style="marker:none" overflow="visible"/>
    </g>
</svg>
