<svg xmlns="http://www.w3.org/2000/svg" width="16.023" height="16"><g fill="#474747"><path d="M2.996 4.986A1 1 0 002.012 6v7a1 1 0 001 1h10a1 1 0 001-1V6a1 1 0 10-2 0v6h-8V6a1 1 0 00-1.016-1.014z" style="line-height:normal;font-variant-ligatures:normal;font-variant-position:normal;font-variant-caps:normal;font-variant-numeric:normal;font-variant-alternates:normal;font-feature-settings:normal;text-indent:0;text-align:start;text-decoration-line:none;text-decoration-style:solid;text-decoration-color:#000;text-transform:none;text-orientation:mixed;shape-padding:0;isolation:auto;mix-blend-mode:normal" color="#000" font-weight="400" font-family="sans-serif" overflow="visible"/><path d="M8.031 1a1 1 0 00-.601.186l-7 5a1 1 0 101.162 1.628l6.42-4.585 6.418 4.585a1 1 0 101.162-1.628l-7-5A1 1 0 008.032 1z" style="line-height:normal;font-variant-ligatures:normal;font-variant-position:normal;font-variant-caps:normal;font-variant-numeric:normal;font-variant-alternates:normal;font-feature-settings:normal;text-indent:0;text-align:start;text-decoration-line:none;text-decoration-style:solid;text-decoration-color:#000;text-transform:none;text-orientation:mixed;shape-padding:0;isolation:auto;mix-blend-mode:normal" color="#000" font-weight="400" font-family="sans-serif" overflow="visible"/><path d="M6.012 8h3v6h-3z" style="marker:none" color="#bebebe" overflow="visible"/><path d="M15.512 7a.499.499 0 100 1 .499.499 0 100-1zm-15 0a.499.499 0 100 1 .499.499 0 100-1z"/></g></svg>