<svg xmlns="http://www.w3.org/2000/svg" width="16" height="16">
    <g font-weight="400" fill="#474747">
        <path d="M6.5 2A3.515 3.515 0 0 0 3 5.5V6h2v-.5C5 4.66 5.66 4 6.5 4S8 4.66 8 5.5V12h2V5.5C10 3.579 8.421 2 6.5 2z" style="line-height:normal;font-variant-ligatures:normal;font-variant-position:normal;font-variant-caps:normal;font-variant-numeric:normal;font-variant-alternates:normal;font-feature-settings:normal;text-indent:0;text-align:start;text-decoration-line:none;text-decoration-style:solid;text-decoration-color:#000;text-transform:none;text-orientation:mixed;shape-padding:0;isolation:auto;mix-blend-mode:normal;marker:none" color="#000" font-family="sans-serif" white-space="normal" overflow="visible"/>
        <path d="M13 9h-1c-.257 0-.528.13-.719.313L9 11.593l-2.281-2.28C6.529 9.13 6.257 9 6 9H5v1c0 .31.09.552.281.75L9 14.406l3.719-3.656c.19-.198.281-.44.281-.75z" style="line-height:normal;-inkscape-font-specification:'Bitstream Vera Sans';text-indent:0;text-align:start;text-decoration-line:none;text-transform:none;marker:none" color="#bebebe" font-family="Bitstream Vera Sans" overflow="visible"/>
    </g>
</svg>
