<svg xmlns="http://www.w3.org/2000/svg" width="16" height="16">
    <g color="#000" fill="#474747">
        <path d="M4.707 2.293L3.293 3.707 7.586 8l-4.293 4.293 1.414 1.414L10.414 8zM11.002 1.998l-.002 1-.014 10-.002 1 2 .004.002-1 .014-10 .002-1z" style="line-height:normal;font-variant-ligatures:normal;font-variant-position:normal;font-variant-caps:normal;font-variant-numeric:normal;font-variant-alternates:normal;font-feature-settings:normal;text-indent:0;text-align:start;text-decoration-line:none;text-decoration-style:solid;text-decoration-color:#000;text-transform:none;text-orientation:mixed;shape-padding:0;isolation:auto;mix-blend-mode:normal;marker:none" font-weight="400" font-family="sans-serif" white-space="normal" overflow="visible"/>
        <path d="M4 13H3v1h1zM4 2H3v1h1z" style="marker:none" overflow="visible"/>
        <path d="M4 2c-.554 0-1 .446-1 1s.446 1 1 1 1-.446 1-1-.446-1-1-1zM4 12c-.554 0-1 .446-1 1s.446 1 1 1 1-.446 1-1-.446-1-1-1z" style="marker:none" overflow="visible"/>
    </g>
</svg>
