<svg xmlns="http://www.w3.org/2000/svg" width="16" height="16">
    <g color="#000" fill="#474747">
        <path d="M8 5.586l-5.707 5.707 1.414 1.414L8 8.414l4.293 4.293 1.414-1.414zM13.998 2.998l-1 .002-10 .014-1 .002.004 2 1-.002 10-.014 1-.002z" style="line-height:normal;font-variant-ligatures:normal;font-variant-position:normal;font-variant-caps:normal;font-variant-numeric:normal;font-variant-alternates:normal;font-feature-settings:normal;text-indent:0;text-align:start;text-decoration-line:none;text-decoration-style:solid;text-decoration-color:#000;text-transform:none;text-orientation:mixed;shape-padding:0;isolation:auto;mix-blend-mode:normal;marker:none" font-weight="400" font-family="sans-serif" white-space="normal" overflow="visible"/>
        <path d="M3 12v1H2v-1zM14 12v1h-1v-1z" style="marker:none" overflow="visible"/>
        <path d="M14 12c0 .554-.446 1-1 1s-1-.446-1-1 .446-1 1-1 1 .446 1 1zM4 12c0 .554-.446 1-1 1s-1-.446-1-1 .446-1 1-1 1 .446 1 1z" style="marker:none" overflow="visible"/>
    </g>
</svg>
