<svg xmlns="http://www.w3.org/2000/svg" width="16" height="16">
    <path d="M9 7V6c0-.265-.093-.53-.281-.719l-3-3L5.438 2h-.875l-.282.281-3 3a1.015 1.015 0 0 0-.28.719L1 7h1c.265 0 .53-.093.719-.281L5 4.438l2.281 2.28c.188.189.454.282.72.282h1z" style="line-height:normal;-inkscape-font-specification:'Bitstream Vera Sans';text-indent:0;text-align:start;text-decoration-line:none;text-transform:none;marker:none" color="#000" font-weight="400" font-family="Bitstream Vera Sans" overflow="visible" fill="#474747"/>
    <path d="M4 4v7h2V4z" style="line-height:normal;font-variant-ligatures:normal;font-variant-position:normal;font-variant-caps:normal;font-variant-numeric:normal;font-variant-alternates:normal;font-feature-settings:normal;text-indent:0;text-align:start;text-decoration-line:none;text-decoration-style:solid;text-decoration-color:#000;text-transform:none;text-orientation:mixed;shape-padding:0;isolation:auto;mix-blend-mode:normal;marker:none" color="#000" font-weight="400" font-family="sans-serif" white-space="normal" overflow="visible" fill="#474747"/>
    <path d="M15 8v1c0 .265-.093.53-.281.719l-3 3-.281.281h-.875l-.282-.281-3-3A1.015 1.015 0 0 1 7.001 9L7 8h1c.265 0 .53.093.719.281L11 10.562l2.281-2.28c.188-.189.454-.282.72-.282h1z" style="line-height:normal;-inkscape-font-specification:'Bitstream Vera Sans';text-indent:0;text-align:start;text-decoration-line:none;text-transform:none;marker:none" color="#000" font-weight="400" font-family="Bitstream Vera Sans" overflow="visible" fill="#474747"/>
    <path d="M10 4v7h2V4z" style="line-height:normal;font-variant-ligatures:normal;font-variant-position:normal;font-variant-caps:normal;font-variant-numeric:normal;font-variant-alternates:normal;font-feature-settings:normal;text-indent:0;text-align:start;text-decoration-line:none;text-decoration-style:solid;text-decoration-color:#000;text-transform:none;text-orientation:mixed;shape-padding:0;isolation:auto;mix-blend-mode:normal;marker:none" color="#000" font-weight="400" font-family="sans-serif" white-space="normal" overflow="visible" fill="#474747"/>
</svg>
