<?xml version="1.0" encoding="UTF-8"?>
<svg height="16px" viewBox="0 0 16 16" width="16px" xmlns="http://www.w3.org/2000/svg">
    <g fill="#2e3436">
        <path d="m 2 4 c 0.179688 0 0.359375 0.046875 0.515625 0.140625 l 5 3 c 0.300781 0.179687 0.484375 0.507813 0.484375 0.859375 s -0.183594 0.675781 -0.484375 0.859375 l -5 3 c -0.15625 0.089844 -0.335937 0.140625 -0.515625 0.140625 h -1 v -8 z m 0 0"/>
        <path d="m 9 4 c 0.179688 0 0.359375 0.046875 0.515625 0.140625 l 5 3 c 0.300781 0.179687 0.484375 0.507813 0.484375 0.859375 s -0.183594 0.675781 -0.484375 0.859375 l -5 3 c -0.15625 0.089844 -0.335937 0.140625 -0.515625 0.140625 h -1 v -8 z m 0 0"/>
    </g>
</svg>
