<svg xmlns="http://www.w3.org/2000/svg" width="16" height="16"><g color="#000" fill="#474747"><path d="M6.97 4a1 1 0 00-.484.143l-5 3a1 1 0 000 1.714l5 3A1 1 0 008 11V5a1 1 0 00-1.03-1zM6 6.766v2.468L3.943 8z" style="line-height:normal;font-variant-ligatures:normal;font-variant-position:normal;font-variant-caps:normal;font-variant-numeric:normal;font-variant-alternates:normal;font-feature-settings:normal;text-indent:0;text-align:start;text-decoration-line:none;text-decoration-style:solid;text-decoration-color:#000;text-transform:none;text-orientation:mixed;shape-padding:0;isolation:auto;mix-blend-mode:normal;marker:none" font-weight="400" font-family="sans-serif" overflow="visible"/><path d="M7 11h1v1H7zm0-7h1v1H7z" style="marker:none" overflow="visible"/><path d="M13.97 4a1 1 0 00-.484.143l-5 3a1 1 0 000 1.714l5 3A1 1 0 0015 11V5a1 1 0 00-1.03-1zM13 6.766v2.468L10.943 8z" style="line-height:normal;font-variant-ligatures:normal;font-variant-position:normal;font-variant-caps:normal;font-variant-numeric:normal;font-variant-alternates:normal;font-feature-settings:normal;text-indent:0;text-align:start;text-decoration-line:none;text-decoration-style:solid;text-decoration-color:#000;text-transform:none;text-orientation:mixed;shape-padding:0;isolation:auto;mix-blend-mode:normal;marker:none" font-weight="400" font-family="sans-serif" overflow="visible"/><path d="M14 11h1v1h-1zm0-7h1v1h-1zM7 5L2 8l5 3zm7 0L9 8l5 3z" style="marker:none" overflow="visible"/></g></svg>