<svg xmlns="http://www.w3.org/2000/svg" width="16.002" height="16"><g color="#000" fill="#474747"><path d="M8.002 5l-5 3 5 3zm7 0l-5 3 5 3z" style="marker:none" overflow="visible"/><path d="M7.973 4a1 1 0 00-.484.143l-5 3a1 1 0 000 1.714l5 3A1 1 0 009.002 11V5a1 1 0 00-1.029-1zm-.97 2.766v2.468L4.945 8z" style="line-height:normal;font-variant-ligatures:normal;font-variant-position:normal;font-variant-caps:normal;font-variant-numeric:normal;font-variant-alternates:normal;font-feature-settings:normal;text-indent:0;text-align:start;text-decoration-line:none;text-decoration-style:solid;text-decoration-color:#000;text-transform:none;text-orientation:mixed;shape-padding:0;isolation:auto;mix-blend-mode:normal;marker:none" font-weight="400" font-family="sans-serif" overflow="visible"/><path d="M2 3.998l-2 .004.002 1 .014 6 .004 1 2-.004-.004-1-.014-6z" style="line-height:normal;font-variant-ligatures:normal;font-variant-position:normal;font-variant-caps:normal;font-variant-numeric:normal;font-variant-alternates:normal;font-feature-settings:normal;text-indent:0;text-align:start;text-decoration-line:none;text-decoration-style:solid;text-decoration-color:#000;text-transform:none;text-orientation:mixed;shape-padding:0;isolation:auto;mix-blend-mode:normal;marker:none" font-weight="400" font-family="sans-serif" overflow="visible"/><path d="M8.002 11h1v1h-1zm0-7h1v1h-1z" style="marker:none" overflow="visible"/><path d="M14.973 4a1 1 0 00-.484.143l-5 3a1 1 0 000 1.714l5 3A1 1 0 0016.002 11V5a1 1 0 00-1.029-1zm-.97 2.766v2.468L11.945 8z" style="line-height:normal;font-variant-ligatures:normal;font-variant-position:normal;font-variant-caps:normal;font-variant-numeric:normal;font-variant-alternates:normal;font-feature-settings:normal;text-indent:0;text-align:start;text-decoration-line:none;text-decoration-style:solid;text-decoration-color:#000;text-transform:none;text-orientation:mixed;shape-padding:0;isolation:auto;mix-blend-mode:normal;marker:none" font-weight="400" font-family="sans-serif" overflow="visible"/><path d="M15.002 11h1v1h-1zm0-7h1v1h-1z" style="marker:none" overflow="visible"/></g></svg>