<?xml version="1.0" encoding="UTF-8"?>
<svg height="16px" viewBox="0 0 16 16" width="16px" xmlns="http://www.w3.org/2000/svg">
    <g fill="#2e3436">
        <path d="m 9 13 v -10 h -2 v 10 z m 0 0"/>
        <path d="m 4 10 v 1 c 0 0.265625 0.09375 0.53125 0.28125 0.71875 l 3.71875 3.71875 s 2.480469 -2.480469 3.71875 -3.71875 c 0.1875 -0.1875 0.28125 -0.453125 0.28125 -0.71875 v -1 h -1 c -0.265625 0 -0.53125 0.09375 -0.71875 0.28125 l -2.28125 2.28125 l -2.28125 -2.28125 c -0.1875 -0.1875 -0.453125 -0.28125 -0.71875 -0.28125 z m 0 0"/>
        <path d="m 4 6 v -1 c 0 -0.265625 0.09375 -0.53125 0.28125 -0.71875 l 3.71875 -3.71875 s 2.480469 2.480469 3.71875 3.71875 c 0.1875 0.1875 0.28125 0.453125 0.28125 0.71875 v 1 h -1 c -0.265625 0 -0.53125 -0.09375 -0.71875 -0.28125 l -2.28125 -2.28125 l -2.28125 2.28125 c -0.1875 0.1875 -0.453125 0.28125 -0.71875 0.28125 z m 0 0"/>
    </g>
</svg>
