<svg xmlns="http://www.w3.org/2000/svg" width="16" height="16">
    <g color="#000" font-weight="400" fill="#474747">
        <path d="M7 3v10h2V3z" style="line-height:normal;font-variant-ligatures:normal;font-variant-position:normal;font-variant-caps:normal;font-variant-numeric:normal;font-variant-alternates:normal;font-feature-settings:normal;text-indent:0;text-align:start;text-decoration-line:none;text-decoration-style:solid;text-decoration-color:#000;text-transform:none;text-orientation:mixed;shape-padding:0;isolation:auto;mix-blend-mode:normal;marker:none" font-family="sans-serif" white-space="normal" overflow="visible"/>
        <path d="M4 10v1c0 .265.093.53.281.719l3.72 3.719 3.718-3.72c.188-.187.281-.453.281-.718v-1h-1c-.265 0-.53.093-.719.281l-2.28 2.281-2.282-2.28A1.015 1.015 0 0 0 5 10zM4 6V5c0-.265.093-.53.282-.719L8 .562l3.719 3.72c.188.187.281.453.281.718v1h-1c-.265 0-.53-.093-.718-.281L8 3.437 5.72 5.72A1.015 1.015 0 0 1 5 6z" style="line-height:normal;-inkscape-font-specification:'Bitstream Vera Sans';text-indent:0;text-align:start;text-decoration-line:none;text-transform:none;marker:none" font-family="Bitstream Vera Sans" overflow="visible"/>
    </g>
</svg>
