<?xml version="1.0" encoding="UTF-8"?>
<svg height="16px" viewBox="0 0 16 16" width="16px" xmlns="http://www.w3.org/2000/svg">
    <g fill="#2e3436">
        <path d="m 13.976562 9 h -1 c -0.253906 0 -0.527343 0.128906 -0.71875 0.3125 l -3.28125 3.28125 l -3.28125 -3.28125 c -0.1875 -0.183594 -0.460937 -0.3125 -0.71875 -0.3125 h -1 v 1 c 0 0.308594 0.089844 0.550781 0.28125 0.75 l 4.71875 4.65625 l 4.71875 -4.65625 c 0.191407 -0.199219 0.28125 -0.441406 0.28125 -0.75 z m 0 0"/>
        <path d="m 10 13 v -6 h -2 v 6 z m 0 0"/>
        <path d="m 4 3 v -2 h -2 v 2 z m 0 0"/>
        <path d="m 4 1 v 2 c 2.21875 0 4 1.777344 4 4 h 2 c 0 -3.300781 -2.699219 -6 -6 -6 z m 0 0"/>
    </g>
</svg>
