<svg xmlns="http://www.w3.org/2000/svg" width="16" height="16">
    <g font-weight="400" fill="#474747">
        <path d="M3 7v2h10V7z" style="line-height:normal;font-variant-ligatures:normal;font-variant-position:normal;font-variant-caps:normal;font-variant-numeric:normal;font-variant-alternates:normal;font-feature-settings:normal;text-indent:0;text-align:start;text-decoration-line:none;text-decoration-style:solid;text-decoration-color:#000;text-transform:none;text-orientation:mixed;shape-padding:0;isolation:auto;mix-blend-mode:normal;marker:none" color="#000" font-family="sans-serif" white-space="normal" overflow="visible"/>
        <path d="M10 4v1c0 .257.13.528.313.719L12.593 8l-2.28 2.281c-.183.19-.313.462-.313.719v1h1c.31 0 .552-.09.75-.281L15.406 8 11.75 4.281C11.552 4.091 11.31 4 11 4zM6 4v1c0 .257-.13.528-.312.719L3.406 8l2.282 2.281c.182.19.312.462.312.719v1H5c-.31 0-.552-.09-.75-.281L.594 8 4.25 4.281C4.448 4.091 4.69 4 5 4z" style="line-height:normal;-inkscape-font-specification:'Bitstream Vera Sans';text-indent:0;text-align:start;text-decoration-line:none;text-transform:none;marker:none" color="#bebebe" font-family="Bitstream Vera Sans" overflow="visible"/>
    </g>
</svg>
