<svg xmlns="http://www.w3.org/2000/svg" width="16" height="16.014">
    <g fill="#474747">
        <path d="M11.049 1.823a1 1 0 0 0-.533 1.87A4.995 4.995 0 0 1 12.9 9.005a4.993 4.993 0 0 1-4.257 3.97 4.99 4.99 0 0 1-5.127-2.753 4.993 4.993 0 0 1 .949-5.742A1 1 0 1 0 3.05 3.065a7.007 7.007 0 0 0-1.33 8.04 7.005 7.005 0 0 0 7.18 3.85A7.005 7.005 0 0 0 14.858 9.4a7.006 7.006 0 0 0-3.336-7.434 1 1 0 0 0-.474-.142z" style="line-height:normal;font-variant-ligatures:normal;font-variant-position:normal;font-variant-caps:normal;font-variant-numeric:normal;font-variant-alternates:normal;font-feature-settings:normal;text-indent:0;text-align:start;text-decoration-line:none;text-decoration-style:solid;text-decoration-color:#000;text-transform:none;text-orientation:mixed;shape-padding:0;isolation:auto;mix-blend-mode:normal;marker:none" color="#000" font-weight="400" font-family="sans-serif" white-space="normal" overflow="visible"/>
        <path d="M7.984 0A1 1 0 0 0 7 1.015v5a1 1 0 1 0 2 0v-5A1 1 0 0 0 7.984.001z" style="line-height:normal;font-variant-ligatures:normal;font-variant-position:normal;font-variant-caps:normal;font-variant-numeric:normal;font-variant-alternates:normal;font-feature-settings:normal;text-indent:0;text-align:start;text-decoration-line:none;text-decoration-style:solid;text-decoration-color:#000;text-transform:none;text-orientation:mixed;shape-padding:0;isolation:auto;mix-blend-mode:normal" color="#000" font-weight="400" font-family="sans-serif" white-space="normal" overflow="visible"/>
        <path d="M5 1.014c.552 0 1 .475 1 .994v4.006l-5-5z"/>
    </g>
</svg>
