<svg xmlns="http://www.w3.org/2000/svg" width="16" height="16"><path d="M3 3.012v2h1.92c-.055 0 .084.159.084.082v.924H4C2.284 6.018.97 7.143.945 8.502c-.012.68.306 1.363.862 1.822.555.46 1.315.7 2.193.7h3.004v-5.93c0-1.171-.887-2.082-2.084-2.082zm1 5.006h1.004v1.005H4c-.52 0-.794-.137-.92-.242-.126-.104-.136-.172-.135-.244.003-.144.085-.52 1.055-.52zM7.996 2v9.023H11c.939 0 1.769-.372 2.299-.959.53-.586.766-1.336.756-2.066a3.079 3.079 0 00-.791-2.043C12.737 5.378 11.92 5 11 5H9.996V2zm2 5H11c.422 0 .626.126.787.303.162.177.264.447.268.722.004.276-.089.53-.24.698-.152.167-.356.3-.815.3H9.996zM3 11.293L.646 13.646a.5.5 0 10.708.708L3 12.707l2 2 2-2 2 2 2-2 2 2 2.354-2.353a.5.5 0 10-.708-.708L13 13.293l-2-2-2 2-2-2-2 2z" style="line-height:normal;font-variant-ligatures:normal;font-variant-position:normal;font-variant-caps:normal;font-variant-numeric:normal;font-variant-alternates:normal;font-feature-settings:normal;text-indent:0;text-align:start;text-decoration-line:none;text-decoration-style:solid;text-decoration-color:#000;text-transform:none;text-orientation:mixed;shape-padding:0;isolation:auto;mix-blend-mode:normal;marker:none" overflow="visible" color="#000" font-weight="400" font-family="sans-serif" fill="#474747"/></svg>