<svg xmlns="http://www.w3.org/2000/svg" width="16" height="16">
    <g fill="#2e3436">
        <path d="M1.99 1.99a1 1 0 0 0-.697 1.717l11 11a1 1 0 1 0 1.414-1.414l-.912-.912a8 8 0 0 0 2.943-4.391A8 8 0 0 0 8 2a8 8 0 0 0-4.303 1.283l-.99-.99a1 1 0 0 0-.717-.303zM8 4a4 4 0 0 1 4 4 4 4 0 0 1-.977 2.61L5.39 4.973A4 4 0 0 1 8 4zM1.273 5.687A8 8 0 0 0 .262 8.01 8 8 0 0 0 8 14a8 8 0 0 0 1.445-.14l-1.884-1.885a4 4 0 0 1-3.532-3.531z" style="marker:none"/>
        <path d="M10 8a2 2 0 0 1-2 2 2 2 0 0 1-2-2 2 2 0 0 1 2-2 2 2 0 0 1 2 2z"/>
    </g>
</svg>
