<?xml version="1.0" encoding="UTF-8"?>
<svg height="16px" viewBox="0 0 16.1875 16" width="16.1875px" xmlns="http://www.w3.org/2000/svg">
    <g fill="#2e3436">
        <path d="m 2 15 h 2 c 0.550781 0 1 -0.449219 1 -1 v -2 c 0 -0.550781 -0.449219 -1 -1 -1 h -2 c -0.550781 0 -1 0.449219 -1 1 v 2 c 0 0.550781 0.449219 1 1 1 z m 0 0"/>
        <path d="m 9 14 v -7 h -3.0625 l 5.125 -5.78125 l 5.125 5.78125 h -3.1875 v 7 z m 0 0"/>
        <path d="m 2 10 h 2 c 0.550781 0 1 -0.449219 1 -1 v -2 c 0 -0.550781 -0.449219 -1 -1 -1 h -2 c -0.550781 0 -1 0.449219 -1 1 v 2 c 0 0.550781 0.449219 1 1 1 z m 0 0"/>
        <path d="m 2 5 h 2 c 0.550781 0 1 -0.449219 1 -1 v -2 c 0 -0.550781 -0.449219 -1 -1 -1 h -2 c -0.550781 0 -1 0.449219 -1 1 v 2 c 0 0.550781 0.449219 1 1 1 z m 0 0"/>
    </g>
</svg>
