<svg xmlns="http://www.w3.org/2000/svg" width="16" height="16">
    <g color="#000" fill="#474747">
        <path d="M4 3c.554 0 1 .446 1 1s-.446 1-1 1-1-.446-1-1 .446-1 1-1zM8 3c.554 0 1 .446 1 1s-.446 1-1 1-1-.446-1-1 .446-1 1-1zM12 3c.554 0 1 .446 1 1s-.446 1-1 1-1-.446-1-1 .446-1 1-1zM4 7c.554 0 1 .446 1 1s-.446 1-1 1-1-.446-1-1 .446-1 1-1zM8 7c.554 0 1 .446 1 1s-.446 1-1 1-1-.446-1-1 .446-1 1-1zM12 7c.554 0 1 .446 1 1s-.446 1-1 1-1-.446-1-1 .446-1 1-1zM4 11c.554 0 1 .446 1 1s-.446 1-1 1-1-.446-1-1 .446-1 1-1zM8 11c.554 0 1 .446 1 1s-.446 1-1 1-1-.446-1-1 .446-1 1-1zM12 11c.554 0 1 .446 1 1s-.446 1-1 1-1-.446-1-1 .446-1 1-1z" style="marker:none" overflow="visible"/>
    </g>
</svg>
