<svg xmlns="http://www.w3.org/2000/svg" width="16" height="16">
    <g color="#bebebe" fill="#474747">
        <path d="M9.625 11h-3.25a.374.374 0 0 0-.375.375v1.25c0 .208.167.375.375.375h3.25a.374.374 0 0 0 .375-.375v-1.25A.374.374 0 0 0 9.625 11zM9.625 0h-3.25A.374.374 0 0 0 6 .375v1.25c0 .208.167.375.375.375h3.25A.374.374 0 0 0 10 1.625V.375A.374.374 0 0 0 9.625 0zM9.625 14h-3.25a.374.374 0 0 0-.375.375v1.25c0 .208.167.375.375.375h3.25a.374.374 0 0 0 .375-.375v-1.25A.374.374 0 0 0 9.625 14zM9.625 3h-3.25A.374.374 0 0 0 6 3.375v1.25c0 .208.167.375.375.375h3.25A.374.374 0 0 0 10 4.625v-1.25A.374.374 0 0 0 9.625 3z" style="marker:none" overflow="visible" opacity=".35"/>
        <path d="M14 7H2v2h12z" style="marker:none" overflow="visible"/>
    </g>
</svg>
