<?xml version="1.0" encoding="UTF-8"?>
<svg height="16px" viewBox="0 0 16 16" width="16px" xmlns="http://www.w3.org/2000/svg">
    <g fill="#2e3436">
        <path d="m 3 0 c -1.089844 0 -2 0.910156 -2 2 v 9 c 0 1.089844 0.910156 2 2 2 h 8 c 1.089844 0 2 -0.910156 2 -2 v -9 c 0 -1.089844 -0.910156 -2 -2 -2 z m 0 2 h 8 v 9 h -8 z m 0 0"/>
        <path d="m 14 3 v 8 c 0 1.65625 -1.34375 3 -3 3 h -7 v 2 h 7 c 2.761719 0 5 -2.238281 5 -5 v -8 z m 0 0"/>
        <g fill-opacity="0.35">
            <path d="m 9 5.5 v -1 c 0 -0.277344 -0.222656 -0.5 -0.5 -0.5 h -3 c -0.277344 0 -0.5 0.222656 -0.5 0.5 v 1 c 0 0.277344 0.222656 0.5 0.5 0.5 h 3 c 0.277344 0 0.5 -0.222656 0.5 -0.5 z m 0 0"/>
            <path d="m 9 8.5 v -1 c 0 -0.277344 -0.222656 -0.5 -0.5 -0.5 h -3 c -0.277344 0 -0.5 0.222656 -0.5 0.5 v 1 c 0 0.277344 0.222656 0.5 0.5 0.5 h 3 c 0.277344 0 0.5 -0.222656 0.5 -0.5 z m 0 0"/>
        </g>
    </g>
</svg>
