<?xml version="1.0" encoding="UTF-8"?>
<svg height="16px" viewBox="0 0 16 16" width="16px" xmlns="http://www.w3.org/2000/svg">
    <g fill="#2e3436">
        <path d="m 0 3 v 9 c 0 1.105469 0.894531 2 2 2 h 4 c 0.175781 0 0.535156 0.140625 0.820312 0.332031 c 0.289063 0.191407 0.46875 0.371094 0.46875 0.371094 l 0.71875 0.726563 l 0.710938 -0.734376 s 0.894531 -0.695312 1.28125 -0.695312 h 4 c 1.105469 0 2 -0.894531 2 -2 v -9 c 0 -1.105469 -0.894531 -2 -2 -2 h -4 c -0.902344 0 -1.574219 0.351562 -2.042969 0.699219 c -0.027343 -0.015625 -0.019531 -0.015625 -0.046875 -0.03125 c -0.457031 -0.304688 -1.082031 -0.667969 -1.910156 -0.667969 h -4 c -1.105469 0 -2 0.894531 -2 2 z m 2 0 h 4 c 0.136719 0 0.515625 0.136719 0.8125 0.332031 c 0.296875 0.199219 0.492188 0.386719 0.492188 0.386719 l 0.714843 0.695312 l 0.695313 -0.714843 s 0.902344 -0.699219 1.285156 -0.699219 h 4 v 9 h -4 c -0.890625 0 -1.5625 0.347656 -2.035156 0.695312 c -0.015625 -0.015624 -0.011719 -0.015624 -0.03125 -0.027343 c -0.457032 -0.308594 -1.097656 -0.667969 -1.933594 -0.667969 h -4 z m 0 0"/>
        <g fill-opacity="0.35">
            <path d="m 6 6.5 v -1 c 0 -0.277344 -0.222656 -0.5 -0.5 -0.5 h -2 c -0.277344 0 -0.5 0.222656 -0.5 0.5 v 1 c 0 0.277344 0.222656 0.5 0.5 0.5 h 2 c 0.277344 0 0.5 -0.222656 0.5 -0.5 z m 0 0"/>
            <path d="m 6 9.5 v -1 c 0 -0.277344 -0.222656 -0.5 -0.5 -0.5 h -2 c -0.277344 0 -0.5 0.222656 -0.5 0.5 v 1 c 0 0.277344 0.222656 0.5 0.5 0.5 h 2 c 0.277344 0 0.5 -0.222656 0.5 -0.5 z m 0 0"/>
            <path d="m 13 6.5 v -1 c 0 -0.277344 -0.222656 -0.5 -0.5 -0.5 h -2 c -0.277344 0 -0.5 0.222656 -0.5 0.5 v 1 c 0 0.277344 0.222656 0.5 0.5 0.5 h 2 c 0.277344 0 0.5 -0.222656 0.5 -0.5 z m 0 0"/>
            <path d="m 13 9.5 v -1 c 0 -0.277344 -0.222656 -0.5 -0.5 -0.5 h -2 c -0.277344 0 -0.5 0.222656 -0.5 0.5 v 1 c 0 0.277344 0.222656 0.5 0.5 0.5 h 2 c 0.277344 0 0.5 -0.222656 0.5 -0.5 z m 0 0"/>
        </g>
    </g>
</svg>
