<svg xmlns="http://www.w3.org/2000/svg" width="16" height="16"><g fill="#2e3436"><path d="M2.384 3h1.231A.38.38 0 014 3.379V4.62a.38.38 0 01-.385.38h-1.23A.38.38 0 012 4.621V3.38A.38.38 0 012.384 3zm0 4.016h1.231A.38.38 0 014 7.394v1.243a.38.38 0 01-.385.379h-1.23A.38.38 0 012 8.636V7.395a.38.38 0 01.384-.378zm0 3.984h1.231a.38.38 0 01.385.379v1.242a.38.38 0 01-.385.379h-1.23A.38.38 0 012 12.621V11.38a.38.38 0 01.384-.38z" style="marker:none" color="#000" overflow="visible"/><path d="M6.494 3h7c.277 0 .5.223.5.5v1c0 .277-.223.5-.5.5h-7a.499.499 0 01-.5-.5v-1c0-.277.223-.5.5-.5zm0 4h7c.277 0 .5.223.5.5v1c0 .277-.223.5-.5.5h-7a.499.499 0 01-.5-.5v-1c0-.277.223-.5.5-.5zm0 4h7c.277 0 .5.223.5.5v1c0 .277-.223.5-.5.5h-7a.499.499 0 01-.5-.5v-1c0-.277.223-.5.5-.5z" style="marker:none"/></g></svg>