<svg xmlns="http://www.w3.org/2000/svg" width="16" height="16"><path d="M1.384 3h1.231A.38.38 0 013 3.379V4.62a.38.38 0 01-.385.38h-1.23A.38.38 0 011 4.621V3.38A.38.38 0 011.384 3zm0 4.016h1.231A.38.38 0 013 7.394v1.243a.38.38 0 01-.385.379h-1.23A.38.38 0 011 8.636V7.395a.38.38 0 01.384-.378zm0 3.984h1.231a.38.38 0 01.385.379v1.242a.38.38 0 01-.385.379h-1.23A.38.38 0 011 12.621V11.38a.38.38 0 01.384-.38zM7 12.781v-4H3.937L9.062 3l5.125 5.781H11v4z" style="marker:none" overflow="visible" color="#000" fill="#474747"/></svg>