<svg xmlns="http://www.w3.org/2000/svg" width="16" height="16">
    <g color="#000" fill="#2e3436">
        <path d="M3.994 3c.554 0 1 .446 1 1s-.446 1-1 1-1-.446-1-1 .446-1 1-1zM7.994 3c.554 0 1 .446 1 1s-.446 1-1 1-1-.446-1-1 .446-1 1-1zM11.994 3c.554 0 1 .446 1 1s-.446 1-1 1-1-.446-1-1 .446-1 1-1zM3.994 7c.554 0 1 .446 1 1s-.446 1-1 1-1-.446-1-1 .446-1 1-1zM7.994 7c.554 0 1 .446 1 1s-.446 1-1 1-1-.446-1-1 .446-1 1-1zM11.994 7c.554 0 1 .446 1 1s-.446 1-1 1-1-.446-1-1 .446-1 1-1zM3.994 11c.554 0 1 .446 1 1s-.446 1-1 1-1-.446-1-1 .446-1 1-1zM7.994 11c.554 0 1 .446 1 1s-.446 1-1 1-1-.446-1-1 .446-1 1-1zM11.994 11c.554 0 1 .446 1 1s-.446 1-1 1-1-.446-1-1 .446-1 1-1z" style="marker:none" overflow="visible"/>
    </g>
</svg>
