<svg xmlns="http://www.w3.org/2000/svg" width="16" height="16.011">
    <g color="#000" fill="#474747">
        <path d="M7.492 5.992A.5.5 0 0 0 7 6.5V9H5.5a.5.5 0 1 0 0 1h2a.5.5 0 0 0 .5-.5v-3a.5.5 0 0 0-.508-.508z" style="line-height:normal;font-variant-ligatures:normal;font-variant-position:normal;font-variant-caps:normal;font-variant-numeric:normal;font-variant-alternates:normal;font-feature-settings:normal;text-indent:0;text-align:start;text-decoration-line:none;text-decoration-style:solid;text-decoration-color:#000;text-transform:none;text-orientation:mixed;shape-padding:0;isolation:auto;mix-blend-mode:normal" font-weight="400" font-family="sans-serif" white-space="normal" overflow="visible"/>
        <path d="M7.488 3.064c-3.56 0-6.467 2.91-6.467 6.47 0 3.56 2.907 6.466 6.467 6.466 3.56 0 6.467-2.907 6.467-6.467 0-3.56-2.907-6.469-6.467-6.469zm0 1.983a4.47 4.47 0 0 1 4.485 4.486 4.47 4.47 0 0 1-4.485 4.485 4.47 4.47 0 0 1-4.484-4.485 4.47 4.47 0 0 1 4.484-4.486z" style="line-height:normal;font-variant-ligatures:normal;font-variant-position:normal;font-variant-caps:normal;font-variant-numeric:normal;font-variant-alternates:normal;font-feature-settings:normal;text-indent:0;text-align:start;text-decoration-line:none;text-decoration-style:solid;text-decoration-color:#000;text-transform:none;text-orientation:mixed;shape-padding:0;isolation:auto;mix-blend-mode:normal;marker:none" font-weight="400" font-family="sans-serif" white-space="normal" overflow="visible"/>
        <path d="M4.281 1A3.289 3.289 0 0 0 1 4.281c0 .405.084.767.219 1.125 1.206-1.822 3.184-3.102 5.468-3.343A3.263 3.263 0 0 0 4.281 1zm6.438 0c-.953 0-1.809.413-2.406 1.063a7.533 7.533 0 0 1 5.468 3.374A3.14 3.14 0 0 0 14 4.282 3.289 3.289 0 0 0 10.719 1z" style="marker:none" overflow="visible"/>
        <path d="M4.12 12.896a1 1 0 0 0-.692.293l-1.125 1.094a1 1 0 1 0 1.394 1.434l1.125-1.094a1 1 0 0 0-.703-1.727zM11.033 12.99a1 1 0 0 0-.68 1.682l.907 1a1 1 0 1 0 1.48-1.344l-.906-1a1 1 0 0 0-.8-.338z" style="line-height:normal;font-variant-ligatures:normal;font-variant-position:normal;font-variant-caps:normal;font-variant-numeric:normal;font-variant-alternates:normal;font-feature-settings:normal;text-indent:0;text-align:start;text-decoration-line:none;text-decoration-style:solid;text-decoration-color:#000;text-transform:none;text-orientation:mixed;shape-padding:0;isolation:auto;mix-blend-mode:normal;marker:none" font-weight="400" font-family="sans-serif" white-space="normal" overflow="visible"/>
    </g>
</svg>
