<svg xmlns="http://www.w3.org/2000/svg" width="16" height="16"><g fill="#474747"><path d="M6.492 4.992A.5.5 0 006 5.5V8H4.5a.5.5 0 100 1h2a.5.5 0 00.5-.5v-3a.5.5 0 00-.508-.508z" style="line-height:normal;font-variant-ligatures:normal;font-variant-position:normal;font-variant-caps:normal;font-variant-numeric:normal;font-variant-alternates:normal;font-feature-settings:normal;text-indent:0;text-align:start;text-decoration-line:none;text-decoration-style:solid;text-decoration-color:#000;text-transform:none;text-orientation:mixed;shape-padding:0;isolation:auto;mix-blend-mode:normal" color="#000" font-weight="400" font-family="sans-serif" overflow="visible"/><path d="M11 11h1.375l1.125 1.094L14.594 11H16v1.469l-1.094 1.062L16 14.594V16h-1.438L13.5 14.937 12.437 16H11v-1.406l1.062-1.063L11 12.47z" style="marker:none" color="#bebebe" overflow="visible"/><path d="M6.5 2C2.922 2 0 4.922 0 8.5S2.922 15 6.5 15a6.408 6.408 0 003.5-1.031v-2.656A4.452 4.452 0 016.5 13 4.485 4.485 0 012 8.5C2 6.003 4.003 4 6.5 4S11 6.003 11 8.5c0 .533-.114 1.027-.281 1.5h2.094A6.47 6.47 0 0013 8.5C13 4.922 10.078 2 6.5 2z" style="line-height:normal;-inkscape-font-specification:Sans;text-indent:0;text-align:start;text-decoration-line:none;text-transform:none;marker:none" color="#000" font-weight="400" font-size="xx-small" font-family="Sans" overflow="visible"/></g></svg>