<svg xmlns="http://www.w3.org/2000/svg" width="16" height="16">
    <g fill="#2e3436">
        <path d="M116 228c-2 0-2 2-2 2v12c0 2 2 2 2 2h6v-2.002h-.002l.002-2.996h-6.002v-2h8V238H126v-7l-3-3zm1 6l.998.006v2h-2L116 235s0-1 1-1zm6 0c1 0 1 1 1 1l-.002 1.002h-2v-2zm-4.002.006h2v2h-2zm-3 5.996h2v2L117 242c-1 0-1-1-1-1zm3 0h2v2h-2z" opacity=".35" transform="translate(-112 -228)"/>
        <path d="M11 11h1.375l1.125 1.094L14.593 11H16v1.469l-1.094 1.062L16 14.594V16h-1.438L13.5 14.937 12.437 16H11v-1.406l1.062-1.063L11 12.47z" style="marker:none" color="#bebebe" overflow="visible"/>
    </g>
</svg>
