<?xml version="1.0" encoding="UTF-8" standalone="no"?>
<svg
   xmlns:dc="http://purl.org/dc/elements/1.1/"
   xmlns:cc="http://creativecommons.org/ns#"
   xmlns:rdf="http://www.w3.org/1999/02/22-rdf-syntax-ns#"
   xmlns:svg="http://www.w3.org/2000/svg"
   xmlns="http://www.w3.org/2000/svg"
   width="16"
   version="1.1"
   style="enable-background:new"
   id="svg7384"
   height="16">
  <metadata
     id="metadata90">
    <rdf:RDF>
      <cc:Work
         rdf:about="">
        <dc:format>image/svg+xml</dc:format>
        <dc:type
           rdf:resource="http://purl.org/dc/dcmitype/StillImage" />
        <dc:title>Gnome Symbolic Icons</dc:title>
        <cc:license
           rdf:resource="http://creativecommons.org/licenses/by-sa/4.0/" />
      </cc:Work>
      <cc:License
         rdf:about="http://creativecommons.org/licenses/by-sa/4.0/">
        <cc:permits
           rdf:resource="http://creativecommons.org/ns#Reproduction" />
        <cc:permits
           rdf:resource="http://creativecommons.org/ns#Distribution" />
        <cc:requires
           rdf:resource="http://creativecommons.org/ns#Notice" />
        <cc:requires
           rdf:resource="http://creativecommons.org/ns#Attribution" />
        <cc:permits
           rdf:resource="http://creativecommons.org/ns#DerivativeWorks" />
        <cc:requires
           rdf:resource="http://creativecommons.org/ns#ShareAlike" />
      </cc:License>
    </rdf:RDF>
  </metadata>
  <title
     id="title8473">Gnome Symbolic Icons</title>
  <defs
     id="defs7386" />
  <g
     transform="translate(-232,-72)"
     id="layer10" />
  <g
     transform="translate(-232,-8)"
     id="layer1">
    <path
       class="error"
       d="m 246,10 h -2 V 9.605469 l -0.002,-0.02734 c -0.0239,-0.430605 -0.18,-0.734718 -0.41602,-1.013672 -0.23602,-0.278954 -0.62056,-0.58483 -1.19922,-0.552734 h -4.91406 c -0.49033,0 -0.79607,0.214786 -1.03125,0.455078 -0.23518,0.240291 -0.4375,0.556549 -0.4375,1.029297 V 10 h -2 v 14 h 5 v -2 h -3 V 12 h 2 v -1.988281 h 4 V 12 h 2 v 3 h 2 z"
       id="path4085"
       style="color:#bebebe;font-style:normal;font-variant:normal;font-weight:normal;font-stretch:normal;font-size:medium;line-height:normal;font-family:sans-serif;font-variant-ligatures:normal;font-variant-position:normal;font-variant-caps:normal;font-variant-numeric:normal;font-variant-alternates:normal;font-feature-settings:normal;text-indent:0;text-align:start;text-decoration:none;text-decoration-line:none;text-decoration-style:solid;text-decoration-color:#000000;letter-spacing:normal;word-spacing:normal;text-transform:none;writing-mode:lr-tb;direction:ltr;text-orientation:mixed;dominant-baseline:auto;baseline-shift:baseline;text-anchor:start;white-space:normal;shape-padding:0;clip-rule:nonzero;display:inline;overflow:visible;visibility:visible;opacity:1;isolation:auto;mix-blend-mode:normal;color-interpolation:sRGB;color-interpolation-filters:linearRGB;solid-color:#000000;solid-opacity:1;vector-effect:none;fill:#e01b24;fill-opacity:1;fill-rule:nonzero;stroke:none;stroke-width:2;stroke-linecap:butt;stroke-linejoin:miter;stroke-miterlimit:4;stroke-dasharray:none;stroke-dashoffset:0;stroke-opacity:1;marker:none;color-rendering:auto;image-rendering:auto;shape-rendering:auto;text-rendering:auto;enable-background:accumulate" />
    <path
       class="error"
       d="M 240.875,16 C 240.38255,16 240,16.38256 240,16.875 v 6.25 c 0,0.49244 0.38255,0.875 0.875,0.875 h 6.25 C 247.61745,24 248,23.61744 248,23.125 v -6.25 C 248,16.38256 247.61745,16 247.125,16 Z M 243,17 h 2 v 2.5 c 0,0 0,0.5 -0.5,0.5 h -1 C 243,20 243,19.5 243,19.5 Z m 0.5,4 h 1 c 0.277,0 0.5,0.223 0.5,0.5 v 1 c 0,0.277 -0.223,0.5 -0.5,0.5 h -1 c -0.277,0 -0.5,-0.223 -0.5,-0.5 v -1 c 0,-0.277 0.223,-0.5 0.5,-0.5 z"
       id="path4073"
       style="color:#bebebe;display:inline;overflow:visible;visibility:visible;fill:#e01b24;fill-opacity:1;fill-rule:nonzero;stroke:none;stroke-width:2;marker:none" />
  </g>
  <g
     transform="translate(-232,-72)"
     id="layer11" />
  <g
     transform="translate(-232,-8)"
     id="layer7" />
  <g
     transform="translate(-232,-8)"
     id="layer6" />
  <g
     transform="translate(-232,-8)"
     id="layer5" />
  <g
     transform="translate(-232,-8)"
     id="layer9" />
  <g
     transform="translate(-232,-8)"
     id="layer2" />
  <g
     transform="translate(-232,-8)"
     id="layer8" />
  <g
     transform="translate(-232,-8)"
     id="layer3" />
  <g
     transform="translate(-232,-8)"
     id="layer4" />
</svg>
