<svg xmlns="http://www.w3.org/2000/svg" width="16" height="16">
    <g fill="#2e3436">
        <path d="M5.469.04c-.489 0-.794.213-1.03.452C4.204.732 4 1.046 4 1.52v.501H2v13.916l12.002.002V2.021H12V1.604a1.616 1.616 0 0 0-.418-1.012c-.236-.278-.62-.583-1.197-.551l.054-.002zm.529 1.995l4.006.002v1.98h2v9.924H3.996V4.018h2.002z" style="line-height:normal;font-variant-ligatures:normal;font-variant-position:normal;font-variant-caps:normal;font-variant-numeric:normal;font-variant-alternates:normal;font-feature-settings:normal;text-indent:0;text-align:start;text-decoration-line:none;text-decoration-style:solid;text-decoration-color:#000;text-transform:none;text-orientation:mixed;white-space:normal;shape-padding:0;isolation:auto;mix-blend-mode:normal;solid-color:#000;solid-opacity:1;marker:none" color="#bebebe" font-weight="400" font-family="sans-serif" overflow="visible"/>
        <path d="M8.957 5.002a1 1 0 0 0-.664.291l-3 3A1 1 0 0 0 6 10h.984l.17.002-.98 1.434a1 1 0 0 0 1.533 1.271l3-3A1 1 0 0 0 10 8H8.87l.962-1.445a1 1 0 0 0-.875-1.553z" style="line-height:normal;font-variant-ligatures:normal;font-variant-position:normal;font-variant-caps:normal;font-variant-numeric:normal;font-variant-alternates:normal;font-feature-settings:normal;text-indent:0;text-align:start;text-decoration-line:none;text-decoration-style:solid;text-decoration-color:#000;text-transform:none;text-orientation:mixed;white-space:normal;shape-padding:0;isolation:auto;mix-blend-mode:normal;solid-color:#000;solid-opacity:1;marker:none" color="#bebebe" font-weight="400" font-family="sans-serif" overflow="visible"/>
        <path d="M5 9h1v1H5zM9 5h1v1H9zM6 12h1v1H6zM10 8h1v1h-1z"/>
    </g>
</svg>
