<svg xmlns="http://www.w3.org/2000/svg" width="16" height="16">
    <g fill="#2e3436">
        <path d="M6 0v5.523l2 2V3.414L9.586 5 7.53 7.055l1.414 1.414 2.762-2.762a1 1 0 000-1.414l-4-4A1 1 0 007 0h-.016zm0 8.473v.113l-2.707 2.707A.996.996 0 003 12v1h1a.996.996 0 00.707-.293L6 11.414V16h1a1 1 0 00.707-.293l2.764-2.764-1.414-1.414L8 12.586v-2.113z" style="line-height:normal;font-variant-ligatures:normal;font-variant-position:normal;font-variant-caps:normal;font-variant-numeric:normal;font-variant-alternates:normal;font-feature-settings:normal;text-indent:0;text-align:start;text-decoration-line:none;text-decoration-style:solid;text-decoration-color:#000;text-transform:none;text-orientation:mixed;white-space:normal;shape-padding:0;isolation:auto;mix-blend-mode:normal;solid-color:#000;solid-opacity:1" color="#000" font-weight="400" font-family="sans-serif" overflow="visible"/>
        <path d="M1.531.469L.47 1.53l14 14 1.062-1.062z"/>
    </g>
</svg>
