<svg xmlns="http://www.w3.org/2000/svg" width="16.029" height="16.03">
    <g color="#000" font-weight="400" font-family="sans-serif" white-space="normal" fill="#2e3436">
        <path d="M5.006 2.03c.554 0 1 .446 1 1v3c0 .554-.446 1-1 1h-.711a6.972 6.972 0 0 0 4.71 4.71v-.71c0-.554.447-1 1-1h3c.555 0 1 .446 1 1v1.5a2.5 2.5 0 0 1-2.5 2.5h-.5c-5.504 0-10-4.495-10-10v-.5a2.5 2.5 0 0 1 2.5-2.5z" style="line-height:normal;font-variant-ligatures:normal;font-variant-position:normal;font-variant-caps:normal;font-variant-numeric:normal;font-variant-alternates:normal;font-feature-settings:normal;text-indent:0;text-align:start;text-decoration-line:none;text-decoration-style:solid;text-decoration-color:#000;text-transform:none;text-orientation:mixed;shape-padding:0;isolation:auto;mix-blend-mode:normal;marker:none" overflow="visible"/>
        <path d="M12.995 8.034h1v-.832a1 1 0 0 0-1-1.168h-1.586l4.293-4.293c.982-.942-.472-2.396-1.414-1.414L9.995 4.62V3.034a1 1 0 0 0-1.158-1h-.842v1L8 8.03z" style="line-height:normal;font-variant-ligatures:normal;font-variant-position:normal;font-variant-caps:normal;font-variant-numeric:normal;font-variant-alternates:normal;font-feature-settings:normal;text-indent:0;text-align:start;text-decoration-line:none;text-decoration-style:solid;text-decoration-color:#000;text-transform:none;text-orientation:mixed;shape-padding:0;isolation:auto;mix-blend-mode:normal;marker:none" overflow="visible"/>
    </g>
</svg>
