<svg xmlns="http://www.w3.org/2000/svg" width="16" height="16">
    <g fill="#474747">
        <path d="M8.997 0v.781a1.001 1.001 0 0 0 1.031 1.22h.594L8.059 4.562 5.684 2.28a1.005 1.005 0 0 0-.718-.28h-.969v.75a1.005 1.005 0 0 0 0 .093 1.005 1.005 0 0 0 .281.875l3.094 2.969.687.687.72-.687 3.218-3.25V4a1 1 0 0 0 1 1h1v-.844a1 1 0 0 0 0-.156V0h-3.969a1 1 0 0 0-.031 0z" style="line-height:normal;-inkscape-font-specification:Sans;text-indent:0;text-align:start;text-decoration-line:none;text-transform:none;marker:none" color="#bebebe" font-weight="400" font-size="xx-small" font-family="Sans" overflow="visible" opacity=".5"/>
        <path d="M.266 13.713c-.344-.343-.349-1.075 0-1.423l.04-.04c4.267-4.245 11.167-4.239 15.425.02l.02.02c.35.35.319 1.07-.02 1.443l-1.93 1.997a.908.908 0 0 1-1.288 0l-1.287-1.287a.908.908 0 0 1 0-1.287l.302-.301a8.161 8.161 0 0 0-7.039 0l.302.301a.908.908 0 0 1 0 1.287L3.504 15.73a.903.903 0 0 1-1.287 0z"/>
    </g>
</svg>
