<svg xmlns="http://www.w3.org/2000/svg" width="16" height="16"><path d="M4 1C2.338 1 1 2.338 1 4v6c0 1.662 1.338 3 3 3h8c1.662 0 3-1.338 3-3V4c0-1.662-1.338-3-3-3zm2 3c.558 0 1.031.473 1.031 1.031V6c0 .558-.473 1-1.031 1-.558 0-1-.442-1-1v-.969C5 4.473 5.442 4 6 4zm4 0c.558 0 1 .473 1 1.031V6c0 .558-.442 1-1 1s-1-.442-1-1v-.969C9 4.473 9.442 4 10 4zM8 8.031c3.256 0 5 .874 5 1.406v.5c-.997-.636-4.016-.906-5-.906s-3.805-.062-5 .906v-.5c0-.68 1.744-1.406 5-1.406zM8 14c-5 0-5 1-5 1 0 1 1 1 1 1h8c1 0 1-1 1-1s0-1-5-1z" fill="#474747"/></svg>