<svg xmlns="http://www.w3.org/2000/svg" width="16" height="16">
    <path d="M5 4a4 4 0 0 0-4 4 4 4 0 0 0 4 4 4 4 0 0 0 3.87-3H13v2h3V7H8.867A4 4 0 0 0 5 4zm0 2a2 2 0 0 1 2 2 2 2 0 0 1-2 2 2 2 0 0 1-2-2 2 2 0 0 1 2-2z" style="line-height:normal;font-variant-ligatures:normal;font-variant-position:normal;font-variant-caps:normal;font-variant-numeric:normal;font-variant-alternates:normal;font-feature-settings:normal;text-indent:0;text-align:start;text-decoration-line:none;text-decoration-style:solid;text-decoration-color:#000;text-transform:none;text-orientation:mixed;shape-padding:0;isolation:auto;mix-blend-mode:normal;marker:none" color="#000" font-weight="400" font-family="sans-serif" white-space="normal" overflow="visible" fill="#2e3436"/>
</svg>
