<?xml version="1.0" encoding="UTF-8"?>
<svg height="16px" viewBox="0 0 16 16" width="16px" xmlns="http://www.w3.org/2000/svg">
    <g fill="#2e3436">
        <path d="m 0.5 7 h 2 c 0.277344 0 0.5 0.222656 0.5 0.5 v 1 c 0 0.277344 -0.222656 0.5 -0.5 0.5 h -2 c -0.277344 0 -0.5 -0.222656 -0.5 -0.5 v -1 c 0 -0.277344 0.222656 -0.5 0.5 -0.5 z m 0 0"/>
        <path d="m 13.5 7 h 2 c 0.277344 0 0.5 0.222656 0.5 0.5 v 1 c 0 0.277344 -0.222656 0.5 -0.5 0.5 h -2 c -0.277344 0 -0.5 -0.222656 -0.5 -0.5 v -1 c 0 -0.277344 0.222656 -0.5 0.5 -0.5 z m 0 0"/>
        <path d="m 1.988281 12.597656 l 1.414063 -1.414062 c 0.195312 -0.195313 0.511718 -0.195313 0.707031 0 l 0.707031 0.707031 c 0.195313 0.195313 0.195313 0.511719 0 0.707031 l -1.414062 1.414063 c -0.195313 0.195312 -0.511719 0.195312 -0.707032 0 l -0.707031 -0.707031 c -0.195312 -0.195313 -0.195312 -0.511719 0 -0.707032 z m 0 0"/>
        <path d="m 11.183594 3.402344 l 1.414062 -1.414063 c 0.195313 -0.195312 0.511719 -0.195312 0.707032 0 l 0.707031 0.707031 c 0.195312 0.195313 0.195312 0.511719 0 0.707032 l -1.414063 1.414062 c -0.195312 0.195313 -0.511718 0.195313 -0.707031 0 l -0.707031 -0.707031 c -0.195313 -0.195313 -0.195313 -0.511719 0 -0.707031 z m 0 0"/>
        <path d="m 7 15.5 v -2 c 0 -0.277344 0.222656 -0.5 0.5 -0.5 h 1 c 0.277344 0 0.5 0.222656 0.5 0.5 v 2 c 0 0.277344 -0.222656 0.5 -0.5 0.5 h -1 c -0.277344 0 -0.5 -0.222656 -0.5 -0.5 z m 0 0"/>
        <path d="m 7 2.5 v -2 c 0 -0.277344 0.222656 -0.5 0.5 -0.5 h 1 c 0.277344 0 0.5 0.222656 0.5 0.5 v 2 c 0 0.277344 -0.222656 0.5 -0.5 0.5 h -1 c -0.277344 0 -0.5 -0.222656 -0.5 -0.5 z m 0 0"/>
        <path d="m 12.597656 14.011719 l -1.414062 -1.414063 c -0.195313 -0.195312 -0.195313 -0.511718 0 -0.707031 l 0.707031 -0.707031 c 0.195313 -0.195313 0.511719 -0.195313 0.707031 0 l 1.414063 1.414062 c 0.195312 0.195313 0.195312 0.511719 0 0.707032 l -0.707031 0.707031 c -0.195313 0.195312 -0.511719 0.195312 -0.707032 0 z m 0 0"/>
        <path d="m 3.402344 4.816406 l -1.414063 -1.414062 c -0.195312 -0.195313 -0.195312 -0.511719 0 -0.707032 l 0.707031 -0.707031 c 0.195313 -0.195312 0.511719 -0.195312 0.707032 0 l 1.414062 1.414063 c 0.195313 0.195312 0.195313 0.511718 0 0.707031 l -0.707031 0.707031 c -0.195313 0.195313 -0.511719 0.195313 -0.707031 0 z m 0 0"/>
        <path d="m 12 8 c 0 2.210938 -1.789062 4 -4 4 c -2.207031 0 -4 -1.789062 -4 -4 s 1.792969 -4 4 -4 c 2.210938 0 4 1.789062 4 4 z m 0 0"/>
    </g>
</svg>
