<svg xmlns="http://www.w3.org/2000/svg" width="16.014" height="16"><g fill="#474747"><path d="M1.014 1a1 1 0 00-1 1v5.832a1 1 0 000 .326V13s-.014.459.23.947C.49 14.436 1.182 15 2.015 15h1.832a1 1 0 00.326 0h9.842s.459.014.948-.23c.488-.245 1.052-.937 1.052-1.77v-2a1 1 0 00-1-1h-11a1 1 0 00-1 1v2h-1V9h11a1 1 0 001-1V4a1 1 0 00-1-1H8.428L6.721 1.293A1 1 0 006.014 1zm1 2H5.6l1.707 1.707A1 1 0 008.014 5h4v2h-10zm3 9h9v1h-9z" style="line-height:normal;font-variant-ligatures:normal;font-variant-position:normal;font-variant-caps:normal;font-variant-numeric:normal;font-variant-alternates:normal;font-feature-settings:normal;text-indent:0;text-align:start;text-decoration-line:none;text-decoration-style:solid;text-decoration-color:#000;text-transform:none;text-orientation:mixed;shape-padding:0;isolation:auto;mix-blend-mode:normal" color="#000" font-weight="400" font-family="sans-serif" overflow="visible" fill-rule="evenodd"/><path d="M1.014 10h1s0-1 1-1l10-1V4h-5l-2-2h-5z" fill-rule="evenodd"/><path d="M4.014 11h11v3h-11zm9-3h1v1h-1zm2 2h1v1h-1zm-12 0h1v1h-1z"/></g></svg>