<?xml version="1.0" encoding="UTF-8"?>
<svg height="16px" viewBox="0 0 16 16" width="16px" xmlns="http://www.w3.org/2000/svg">
    <g fill="#2e3436">
        <path d="m 0.472656 10 h 2.027344 c 0.261719 0 0.472656 0.222656 0.472656 0.5 v 1 c 0 0.277344 -0.210937 0.5 -0.472656 0.5 h -2.027344 c -0.261718 0 -0.472656 -0.222656 -0.472656 -0.5 v -1 c 0 -0.277344 0.210938 -0.5 0.472656 -0.5 z m 0 0"/>
        <path d="m 13.484375 10 h 2.015625 c 0.277344 0 0.5 0.222656 0.5 0.5 v 1 c 0 0.277344 -0.222656 0.5 -0.5 0.5 h -2.015625 c -0.277344 0 -0.5 -0.222656 -0.5 -0.5 v -1 c 0 -0.277344 0.222656 -0.5 0.5 -0.5 z m 0 0"/>
        <path d="m 11.171875 6.414062 l 1.425781 -1.425781 c 0.195313 -0.195312 0.511719 -0.195312 0.707032 0 l 0.707031 0.707031 c 0.195312 0.195313 0.195312 0.511719 0 0.707032 l -1.425781 1.425781 c -0.195313 0.195313 -0.511719 0.195313 -0.707032 0 l -0.707031 -0.707031 c -0.195313 -0.195313 -0.195313 -0.511719 0 -0.707032 z m 0 0"/>
        <path d="m 3.414062 7.828125 l -1.425781 -1.425781 c -0.195312 -0.195313 -0.195312 -0.511719 0 -0.707032 l 0.707031 -0.707031 c 0.195313 -0.195312 0.511719 -0.195312 0.707032 0 l 1.425781 1.425781 c 0.195313 0.195313 0.195313 0.511719 0 0.707032 l -0.707031 0.707031 c -0.195313 0.195313 -0.511719 0.195313 -0.707032 0 z m 0 0"/>
        <path d="m 7 5.5 v -2 c 0 -0.277344 0.222656 -0.5 0.5 -0.5 h 1 c 0.277344 0 0.5 0.222656 0.5 0.5 v 2 c 0 0.277344 -0.222656 0.5 -0.5 0.5 h -1 c -0.277344 0 -0.5 -0.222656 -0.5 -0.5 z m 0 0"/>
        <path d="m 6.246094 9 c -0.167969 0.007812 -0.324219 0.117188 -0.375 0.261719 l -0.835938 2.214843 c -0.101562 0.234376 0.125 0.53125 0.402344 0.523438 h 2.566406 h 2.566406 c 0.277344 0.007812 0.507813 -0.289062 0.40625 -0.523438 l -0.835937 -2.214843 c -0.074219 -0.195313 -0.339844 -0.308594 -0.550781 -0.234375 c -0.210938 0.066406 -0.820313 0.261718 -1.585938 0.261718 s -1.371094 -0.195312 -1.585937 -0.261718 c -0.054688 -0.019532 -0.113281 -0.03125 -0.171875 -0.027344 z m 0 0"/>
    </g>
</svg>
