<svg xmlns="http://www.w3.org/2000/svg" width="16" height="16">
    <g fill="#474747">
        <path d="M.472 10H2.5c.262 0 .472.223.472.5v1c0 .277-.21.5-.472.5H.472A.486.486 0 0 1 0 11.5v-1c0-.277.21-.5.472-.5zM13.484 10H15.5c.277 0 .5.223.5.5v1c0 .277-.223.5-.5.5h-2.016a.499.499 0 0 1-.5-.5v-1c0-.277.223-.5.5-.5zM11.17 6.415l1.426-1.425a.499.499 0 0 1 .707 0l.707.707a.499.499 0 0 1 0 .707L12.585 7.83a.499.499 0 0 1-.708 0l-.707-.707a.499.499 0 0 1 0-.708zM3.412 7.828L1.987 6.403a.499.499 0 0 1 0-.708l.707-.707a.499.499 0 0 1 .707 0l1.426 1.426a.499.499 0 0 1 0 .707l-.707.707a.499.499 0 0 1-.708 0zM7 5.5v-2c0-.277.223-.5.5-.5h1c.277 0 .5.223.5.5v2c0 .277-.223.5-.5.5h-1a.499.499 0 0 1-.5-.5z" style="marker:none" color="#bebebe" overflow="visible"/>
        <path d="M6.245 9a.428.428 0 0 0-.375.261l-.836 2.217c-.101.234.126.528.404.522a25395.185 25395.185 0 0 0 5.134 0c.277.006.505-.288.403-.522l-.836-2.217c-.073-.193-.337-.306-.548-.235-.213.07-.82.261-1.586.261a5.147 5.147 0 0 1-1.587-.26A.465.465 0 0 0 6.245 9z" style="marker:none" color="#000" overflow="visible"/>
    </g>
</svg>
