<svg xmlns="http://www.w3.org/2000/svg" width="16" height="16">
    <g fill="#2e3436">
        <path d="M1.531.469L.47 1.53l14 14 1.062-1.062z"/>
        <path d="M8 1c-1.259 0-2.394.482-3.273 1.25l2.12 2.121A1.983 1.983 0 0 1 8 4a2 2 0 0 1 1.63 3.154l2.466 2.465c.368-.808.656-1.673.81-2.619.027-.164.049-.333.063-.5.017-.168.03-.327.03-.5a5 5 0 0 0-5-5zM3.025 5.498A5.067 5.067 0 0 0 3 6c0 .173.014.332.031.5.014.167.036.336.063.5C3.666 10.514 6 13.004 8 15.004c.714-.714 1.47-1.494 2.174-2.358z" style="isolation:auto;mix-blend-mode:normal;marker:none" color="#000" overflow="visible" opacity=".35"/>
    </g>
</svg>
