<?xml version="1.0" encoding="UTF-8"?>
<svg height="16px" viewBox="0 0 16 16" width="16px" xmlns="http://www.w3.org/2000/svg">
    <g fill="#2e3436">
        <path d="m 9.914062 0.261719 c -0.769531 0 -1.539062 0.292969 -2.121093 0.875 l -4.035157 4.035156 c -0.390624 0.390625 -0.390624 1.023437 0 1.414063 c 0.390626 0.390624 1.023438 0.390624 1.414063 0 l 4.035156 -4.035157 c 0.398438 -0.398437 1.015625 -0.398437 1.414063 0 l 2.835937 2.835938 c 0.402344 0.398437 0.402344 1.015625 0 1.414062 l -6.859375 6.855469 c -0.222656 0.222656 -0.519531 0.34375 -0.832031 0.34375 h -2.765625 c -0.5625 0 -1 -0.4375 -1 -1 v -3.667969 c 0 -0.550781 -0.449219 -1 -1 -1 s -1 0.449219 -1 1 v 3.667969 c 0 1.644531 1.355469 3 3 3 h 2.765625 c 0.839844 0 1.648437 -0.335938 2.246094 -0.929688 l 6.859375 -6.855468 c 1.164062 -1.160156 1.164062 -3.078125 0.003906 -4.242188 l -2.839844 -2.835937 c -0.582031 -0.582031 -1.351562 -0.875 -2.121094 -0.875 z m 0 0"/>
        <path d="m 8.707031 5.878906 l -2.121093 2.121094 c -0.390626 0.390625 -0.390626 1.023438 0 1.414062 c 0.390624 0.390626 1.023437 0.390626 1.414062 0 l 2.121094 -2.121093 c 0.390625 -0.390625 0.390625 -1.023438 0 -1.414063 s -1.023438 -0.390625 -1.414063 0 z m 0 0"/>
        <path d="m 3.753906 9.410156 c -1.164062 -1.164062 -1.164062 -3.078125 0 -4.242187 c 0.390625 -0.390625 1.023438 -0.390625 1.414063 0 s 0.390625 1.023437 0 1.414062 c -0.398438 0.398438 -0.398438 1.015625 0 1.414063 c 0.398437 0.398437 1.015625 0.398437 1.414062 0 c 0.390625 -0.390625 1.023438 -0.390625 1.414063 0 s 0.390625 1.023437 0 1.414062 c -1.164063 1.164063 -3.078125 1.164063 -4.242188 0 z m 0 0"/>
    </g>
</svg>
