<svg xmlns="http://www.w3.org/2000/svg" width="16" height="16"><g color="#000" font-weight="400" fill="#474747"><path d="M8 5H7c-.265 0-.53.093-.719.281l-3 3L3 8.562v.875l.281.282 3 3c.188.188.454.281.72.281h1v-1c0-.265-.094-.53-.282-.719L5.438 9l2.28-2.281c.189-.188.282-.454.282-.72V5z" style="line-height:normal;-inkscape-font-specification:'Bitstream Vera Sans';text-indent:0;text-align:start;text-decoration-line:none;text-transform:none;marker:none" font-family="Bitstream Vera Sans" overflow="visible"/><path d="M12 4v2.5c0 .84-.66 1.5-1.5 1.5H5v2h5.5c1.921 0 3.5-1.579 3.5-3.5V4z" style="line-height:normal;font-variant-ligatures:normal;font-variant-position:normal;font-variant-caps:normal;font-variant-numeric:normal;font-variant-alternates:normal;font-feature-settings:normal;text-indent:0;text-align:start;text-decoration-line:none;text-decoration-style:solid;text-decoration-color:#000;text-transform:none;text-orientation:mixed;shape-padding:0;isolation:auto;mix-blend-mode:normal;marker:none" font-family="sans-serif" overflow="visible"/></g></svg>