<svg xmlns="http://www.w3.org/2000/svg" width="16" height="16"><g fill="#474747"><path d="M1 3v2h3c.572 0 1 .429 1 1v4c0 1.645 1.356 3 3 3h6v-2H8c-.571 0-1-.429-1-1V6c0-1.645-1.355-3-3-3z" style="line-height:normal;font-variant-ligatures:normal;font-variant-position:normal;font-variant-caps:normal;font-variant-numeric:normal;font-variant-alternates:normal;font-feature-settings:normal;text-indent:0;text-align:start;text-decoration-line:none;text-decoration-style:solid;text-decoration-color:#000;text-transform:none;text-orientation:mixed;shape-padding:0;isolation:auto;mix-blend-mode:normal;marker:none" color="#bebebe" font-weight="400" font-family="sans-serif" overflow="visible"/><path d="M11.99 8.99a1 1 0 00-.697 1.717L12.586 12l-1.293 1.293a1 1 0 101.414 1.414L15.414 12l-2.707-2.707a1 1 0 00-.717-.303zm0-8a1 1 0 00-.697 1.717L12.586 4l-1.293 1.293a1 1 0 101.414 1.414L15.414 4l-2.707-2.707A1 1 0 0011.99.99z" style="line-height:normal;font-variant-ligatures:normal;font-variant-position:normal;font-variant-caps:normal;font-variant-numeric:normal;font-variant-alternates:normal;font-feature-settings:normal;text-indent:0;text-align:start;text-decoration-line:none;text-decoration-style:solid;text-decoration-color:#000;text-transform:none;text-orientation:mixed;shape-padding:0;isolation:auto;mix-blend-mode:normal;marker:none" color="#bebebe" font-weight="400" font-family="sans-serif" overflow="visible"/><path d="M8 3c-.23 0-.44.044-.656.094.481.55.861 1.177 1.031 1.906H14V3H8zm-7 8v2h3c.23 0 .44-.044.656-.094-.481-.55-.861-1.177-1.031-1.906z" style="line-height:normal;text-indent:0;text-align:start;text-decoration-line:none;text-transform:none;marker:none" color="#bebebe" font-weight="400" font-family="Andale Mono" overflow="visible"/><path d="M11 9h1v1h-1zm0 5h1v1h-1zm0-13h1v1h-1zm0 5h1v1h-1z" style="marker:none" color="#000" overflow="visible"/></g></svg>