<svg xmlns="http://www.w3.org/2000/svg" width="16" height="16">
    <g fill="#2e3436">
        <path d="M7.5.986A2.487 2.487 0 0 0 5.146 2.67L10 7.523V3.486c0-1.385-1.115-2.5-2.5-2.5zM11.486 5a.5.5 0 0 0-.486.5c0 .069.006.128.031.188v2.78a3.521 3.521 0 0 1-.004.083l.868.867a4.516 4.516 0 0 0 .105-.95V5.5a.5.5 0 0 0-.514-.5zm-8.484.479A.5.5 0 0 0 3 5.5v2.969a4.516 4.516 0 0 0 3 4.25V14H4c-.565 0-1 .49-1 1v1h9v-1c0-.584-.476-1-1-1H9v-1.281a4.516 4.516 0 0 0 .84-.403l-.711-.71A3.521 3.521 0 0 1 7.502 12C5.548 12 4 10.433 4 8.469V6.477zM5 7.477V8.5A2.495 2.495 0 0 0 7.5 11c.305 0 .593-.061.863-.16z" opacity=".35"/>
        <path d="M1.531.469L.47 1.53l14 14 1.062-1.062z"/>
    </g>
</svg>
