<svg xmlns="http://www.w3.org/2000/svg" width="16" height="16">
    <defs>
        <clipPath id="a">
            <rect y="281" x="21" width="14" style="marker:none" height="11" color="#bebebe" overflow="visible" fill="none" stroke="#fff" stroke-width="2" stroke-linecap="round" stroke-linejoin="round"/>
        </clipPath>
    </defs>
    <g fill="#474747">
        <path d="M5.5.987c1.385 0 2.5 1.115 2.5 2.5V8.5C8 9.885 6.885 11 5.5 11A2.495 2.495 0 0 1 3 8.5V3.487c0-1.385 1.115-2.5 2.5-2.5z" style="marker:none" color="#bebebe" overflow="visible"/>
        <path transform="matrix(.99397 0 0 1 -22.293 -275.486)" clip-path="url(#a)" d="M27.969 273.629a4.535 4.535 0 0 0-4.533 4.533v5.807a4.535 4.535 0 0 0 4.533 4.533 4.535 4.535 0 0 0 4.533-4.533v-5.807a4.535 4.535 0 0 0-4.533-4.533zm0 1.004a3.51 3.51 0 0 1 3.529 3.53v5.806a3.51 3.51 0 0 1-3.53 3.53 3.51 3.51 0 0 1-3.529-3.53v-5.807a3.51 3.51 0 0 1 3.53-3.53z" style="line-height:normal;font-variant-ligatures:normal;font-variant-position:normal;font-variant-caps:normal;font-variant-numeric:normal;font-variant-alternates:normal;font-feature-settings:normal;text-indent:0;text-align:start;text-decoration-line:none;text-decoration-style:solid;text-decoration-color:#000;text-transform:none;text-orientation:mixed;shape-padding:0;isolation:auto;mix-blend-mode:normal;marker:none" color="#bebebe" font-weight="400" font-family="sans-serif" white-space="normal" overflow="visible"/>
        <path d="M2 5.5a.5.5 0 0 1-.5.5.5.5 0 0 1-.5-.5.5.5 0 0 1 .5-.5.5.5 0 0 1 .5.5zM10 5.5a.5.5 0 0 1-.5.5.5.5 0 0 1-.5-.5.5.5 0 0 1 .5-.5.5.5 0 0 1 .5.5z" style="marker:none" color="#bebebe" overflow="visible"/>
        <path d="M2 14a1 1 0 1 0 0 2h7a1 1 0 1 0 0-2z" style="line-height:normal;font-variant-ligatures:normal;font-variant-position:normal;font-variant-caps:normal;font-variant-numeric:normal;font-variant-alternates:normal;font-feature-settings:normal;text-indent:0;text-align:start;text-decoration-line:none;text-decoration-style:solid;text-decoration-color:#000;text-transform:none;text-orientation:mixed;shape-padding:0;isolation:auto;mix-blend-mode:normal;marker:none" color="#bebebe" font-weight="400" font-family="sans-serif" white-space="normal" overflow="visible"/>
        <path d="M1 15h9v1H1z" style="marker:none" color="#bebebe" overflow="visible"/>
        <path d="M4 12h3v4H4z" style="marker:none" color="#bebebe" overflow="visible"/>
        <path d="M13 1c-1.098 0-2 .901-2 2s.902 2 2 2c1.099 0 2-.901 2-2s-.901-2-2-2zm0 1c.558 0 1 .442 1 1s-.442 1-1 1-1-.442-1-1 .442-1 1-1zM13 6c-1.098 0-2 .901-2 2s.902 2 2 2c1.099 0 2-.901 2-2s-.901-2-2-2zm0 1c.558 0 1 .442 1 1s-.442 1-1 1-1-.442-1-1 .442-1 1-1z" style="line-height:normal;font-variant-ligatures:normal;font-variant-position:normal;font-variant-caps:normal;font-variant-numeric:normal;font-variant-alternates:normal;font-feature-settings:normal;text-indent:0;text-align:start;text-decoration-line:none;text-decoration-style:solid;text-decoration-color:#000;text-transform:none;text-orientation:mixed;shape-padding:0;isolation:auto;mix-blend-mode:normal;marker:none" color="#000" font-weight="400" font-family="sans-serif" white-space="normal" overflow="visible" opacity=".5"/>
        <path d="M11 11h1.375l1.125 1.094L14.594 11H16v1.469l-1.094 1.062L16 14.594V16h-1.437L13.5 14.937 12.438 16H11v-1.406l1.063-1.063L11 12.47z" style="marker:none" color="#bebebe" overflow="visible"/>
    </g>
</svg>
