<svg xmlns="http://www.w3.org/2000/svg" width="16" height="16">
    <g fill="#2e3436">
        <path d="m 139,-19 v 3 h 2 v -3 z" style="line-height:normal;font-variant-ligatures:normal;font-variant-position:normal;font-variant-caps:normal;font-variant-numeric:normal;font-variant-alternates:normal;font-feature-settings:normal;text-indent:0;text-align:start;text-decoration-line:none;text-decoration-style:solid;text-decoration-color:#000;text-transform:none;text-orientation:mixed;white-space:normal;shape-padding:0;isolation:auto;mix-blend-mode:normal;solid-color:#000;solid-opacity:1" color="#000" font-weight="400" font-family="sans-serif" overflow="visible" transform="translate(-132 32)"/>
        <path d="m 140,-32 c -1.662,0 -3,1.338 -3,3 v 5 c 0,1.662 1.338,3 3,3 1.662,0 3,-1.338 3,-3 v -5 c 0,-1.662 -1.338,-3 -3,-3 z m 0,2 c 0.554,0 1,0.446 1,1 v 5 c 0,0.554 -0.446,1 -1,1 -0.554,0 -1,-0.446 -1,-1 v -5 c 0,-0.554 0.446,-1 1,-1 z" opacity=".35" transform="translate(-132 32)"/>
        <path d="m 134,-26 v 2.009766 c 0,3.306582 2.68969,5.990234 6,5.990234 3.31031,0 6,-2.683652 6,-5.990234 V -26 h -1.5 v 2.009766 c 0,2.500097 -1.99331,4.490234 -4.5,4.490234 -2.50669,0 -4.5,-1.990137 -4.5,-4.490234 V -26 Z" style="line-height:normal;font-variant-ligatures:normal;font-variant-position:normal;font-variant-caps:normal;font-variant-numeric:normal;font-variant-alternates:normal;font-feature-settings:normal;text-indent:0;text-align:start;text-decoration-line:none;text-decoration-style:solid;text-decoration-color:#000;text-transform:none;text-orientation:mixed;white-space:normal;shape-padding:0;isolation:auto;mix-blend-mode:normal;solid-color:#000;solid-opacity:1" color="#000" font-weight="400" font-family="sans-serif" overflow="visible" transform="translate(-132 32)"/>
        <path d="m 137,-27 v 3 c 0,1.662 1.338,3 3,3 1.662,0 3,-1.338 3,-3 v -3 z" transform="translate(-132 32)"/>
    </g>
</svg>
