<svg xmlns="http://www.w3.org/2000/svg" width="16" height="16">
    <g fill="#2e3436">
        <path d="M7.5.986a2.495 2.495 0 00-2.5 2.5V5l4.688 4.688c.192-.355.312-.757.312-1.19V3.486c0-1.385-1.115-2.5-2.5-2.5zm4 4.012a.5.5 0 00-.5.5c0 .07.006.128.031.188v2.78a3.52 3.52 0 01-.596 1.97l.692.691A4.47 4.47 0 0012 8.467V5.498a.5.5 0 00-.5-.5zm-8.498.48L3 5.5v2.969a4.516 4.516 0 003 4.25V14H4c-.565 0-1 .49-1 1v1h9v-1c0-.584-.476-1-1-1H9v-1.281c.293-.105.574-.24.84-.403l-.711-.71c-.503.26-1.061.395-1.627.394C5.548 12 4 10.433 4 8.469V6.477zM5 7.478V8.5A2.495 2.495 0 007.5 11c.305 0 .593-.061.863-.16z"/>
        <path d="M1.531.469L.47 1.53l14 14 1.062-1.062z"/>
    </g>
</svg>
