<svg xmlns="http://www.w3.org/2000/svg" width="16" height="16">
    <g fill="#2e3436">
        <path d="M.393 3.451A8.181 8.181 0 000 6.001c0 2.126.777 4.004 2 5h1V9c-.607-.781-1-1.76-1-3 0-.308.025-.597.07-.872zm2.61 2.612C3.016 7.286 3.34 8.178 4 9h1V8.06zM7 10.059V16h2V12.06zM2 1c-.184.143-.35.31-.512.488L3 3V1zm11 0v2c.607.789 1 1.759 1 3s-.393 2.22-1 3v2h1c1.223-.995 2-2.873 2-5 0-2.167-.739-4.02-2-5zM4 3c-.16.183-.297.378-.418.582L5 5V3zm7 0v6h1c.672-.837 1-1.743 1-3s-.312-2.216-1-3zM8 4a2 2 0 00-2 2l2 2a2 2 0 100-4z"/>
        <path d="M1.53.469L.47 1.529l14 14 1.063-1.06z"/>
    </g>
</svg>
