<svg xmlns="http://www.w3.org/2000/svg" width="16" height="16"><g fill="#2e3436"><path d="M5 1v4.361c.396-.45.893-.818 1.469-1.056a3.99 3.99 0 011.734-.297c.63.032 1.244.227 1.797.547V1zm3 5.01c-.26 0-.52.04-.766.142.247-.102.507-.115.766-.103zM2.031 8v3H0v4.938h5V11H3.031V9H4V8zM9.98 8a1.96 1.96 0 01.001 0zm2.011 0c0 .334-.034.67-.119 1h1.098v2H11v4.938h5V11h-2.031V9.984H14V8z" style="isolation:auto;mix-blend-mode:normal;solid-color:#000;solid-opacity:1;marker:none" color="#bebebe" overflow="visible" opacity=".35"/><path d="M8.152 5.006A2.992 2.992 0 005 8h2c0-.408.24-.768.617-.924a.994.994 0 011.09.217.994.994 0 01.217 1.09A.994.994 0 018 9a1 1 0 00-1 1v2h2v-1.18a2.998 2.998 0 001.771-1.672 3.006 3.006 0 00-.65-3.27 3.001 3.001 0 00-1.969-.872zM8 13a1 1 0 00-1 1 1 1 0 001 1 1 1 0 001-1 1 1 0 00-1-1z" style="line-height:normal;font-variant-ligatures:normal;font-variant-position:normal;font-variant-caps:normal;font-variant-numeric:normal;font-variant-alternates:normal;font-feature-settings:normal;text-indent:0;text-align:start;text-decoration-line:none;text-decoration-style:solid;text-decoration-color:#000;text-transform:none;text-orientation:mixed;white-space:normal;shape-padding:0;isolation:auto;mix-blend-mode:normal;solid-color:#000;solid-opacity:1" color="#000" font-weight="400" font-family="sans-serif" overflow="visible"/></g></svg>