<svg xmlns="http://www.w3.org/2000/svg" width="16" height="16">
    <path d="M2.063 0C.911 0 0 .912 0 2.063v11.874C0 15.088.912 16 2.063 16h11.874C15.088 16 16 15.088 16 13.937V2.063C16 .911 15.088 0 13.937 0zm4 3.031h4c.833 0 1.525.564 1.769 1.053s.23.947.23.947v1h-2v-1h-4v6h4v-2H8v-2h4.063v4s.013.459-.231.948c-.244.488-.936 1.052-1.77 1.052h-4s-.458.014-.947-.23c-.488-.244-1.053-.936-1.053-1.77v-6s-.013-.459.231-.947c.244-.489.936-1.053 1.77-1.053z" style="marker:none" color="#bebebe" overflow="visible" fill="#2e3436"/>
</svg>
