<svg xmlns="http://www.w3.org/2000/svg" width="16" height="16">
    <defs>
        <clipPath id="a">
            <path d="M-73-30l-7-7v-4.5h16.5v4.5l-7.5 7z" fill="none" stroke="#000"/>
        </clipPath>
    </defs>
    <g fill="#474747">
        <path clip-path="url(#a)" d="M-72-38v1h1v-.969c-.323-.027-.66-.031-1-.031zm1 1v1h1v-1zm1 0h1v-.594a9.508 9.508 0 0 0-1-.218zm1 0v1h1v-1zm1 0h.5c-.165-.084-.327-.145-.5-.219zm0 1v1h1v-1zm1 0h1v1h1a7.865 7.865 0 0 0-2-1.719zm2 1v1h-1v1h-1v1h-1v1h-1v1h-1v-1h-1v1h-1v-1h-1v1h-1v-1h-1v-1h-1v-1h-1v-1h-1v-1h-.563c-1.565 1.851-.437 4.376-.437 7 0 5.215 1.39 6 7 6s7-.784 7-6c0-2.374 1.296-5.441 0-7zm-13 0h1v-1h-.563c-.144.124-.3.242-.437.375zm1-1h1v-1h-.063c-.328.174-.639.349-.937.563zm1-1h1v-.5c-.346.125-.68.303-1 .469zm1 0v1h1v-1zm1 0h1v-.938a8.79 8.79 0 0 0-1 .157zm1 0v1h1v-1zm1 1v1h1v-1zm1 1v1h1v-1zm1 0h1v-1h-1zm1 0v1h1v-1zm1 1v1h1v-1zm1 0h1v-1h-1zm-1 1h-1v1h1zm-1 1h-1v1h1zm-1 0v-1h-1v1zm-1 0h-1v1h1zm-1 0v-1h-1v1zm-1 0h-1v1h1zm-1 0v-1h-1v1zm-1-1v-1h-1v1zm-1-1v-1h-1v1zm0-1h1v-1h-1zm1 0v1h1v-1zm1 0h1v-1h-1zm1 0v1h1v-1zm1 1v1h1v-1zm-1 0h-1v1h1zm3 1h1v-1h-1z" style="line-height:normal;-inkscape-font-specification:Sans;text-indent:0;text-align:start;text-decoration-line:none;text-transform:none;marker:none" transform="translate(80 40)" color="#000" font-weight="400" font-family="Sans" overflow="visible" opacity=".35"/>
        <path d="M10 13a2 2 0 1 1-4 0 2 2 0 0 1 4 0z"/>
    </g>
</svg>
