<svg xmlns="http://www.w3.org/2000/svg" width="16" height="16">
    <g fill="#474747">
        <path d="M10 1v1c0 .257.13.529.313.719L11.593 4H8.23a4.034 4.034 0 0 1 3.273 2h.123l-.074.078c.27.495.449 1.047.482 1.647l.002.029v.027c0 .265-.021.516-.052.762L15.406 5 11.75 1.281C11.552 1.091 11.31 1 11 1zM7 4c-.294-.004-.559.15-.746.371.416-.2.871-.321 1.348-.371zM4.068 7.406L.594 11l3.656 3.719c.198.19.44.281.75.281h1v-1c0-.257-.13-.529-.312-.719L4.406 12h1.971a1.723 1.723 0 0 1-.34-1.04c.001-.355.074-.672.18-.96H4.375l.98-1.031H4.09l-.053-.944a3.717 3.717 0 0 1 .031-.619z" style="line-height:normal;-inkscape-font-specification:Sans;text-indent:0;text-align:start;text-decoration-line:none;text-transform:none;marker:none" color="#000" font-weight="400" font-family="Sans" overflow="visible" opacity=".35"/>
        <path d="M7.848 4.969c1.642-.092 3.096 1.17 3.188 2.812 0 1.402-.378 1.922-1.594 2.844-.191.144-.326.25-.375.313-.05.062-.031.033-.031.03.007.529-.472 1-1 1-.529 0-1.007-.471-1-1 0-.502.224-.943.468-1.25a3.82 3.82 0 0 1 .72-.687c.203-.16.46-.384.687-.656.093-.112.129-.308.125-.438v-.03a.988.988 0 0 0-1.063-.938c-.563.031-.969.437-.937 1h-2c-.092-1.643 1.17-2.908 2.812-3zm.188 8a1 1 0 1 1 0 2 1 1 0 0 1 0-2z" style="marker:none" color="#bebebe" overflow="visible"/>
    </g>
</svg>
