<svg xmlns="http://www.w3.org/2000/svg" width="16.04" height="16">
    <g color="#bebebe" fill="#474747">
        <path d="M0 10.988h5.016v4.972H0zM5.024 1.027v3.03a4.98 4.98 0 0 1 2.739-1.034 4.921 4.921 0 0 1 2.277.438V1.027zM11.024 11.028h5.016V16h-5.016z" style="isolation:auto;mix-blend-mode:normal;marker:none" overflow="visible" opacity=".35"/>
        <path d="M7.872 4.969c1.643-.092 3.096 1.17 3.188 2.812 0 1.402-.378 1.922-1.594 2.844-.19.144-.326.25-.375.313-.05.062-.031.033-.031.03.007.529-.472 1-1 1-.529 0-1.007-.471-1-1 0-.502.224-.943.469-1.25a3.82 3.82 0 0 1 .718-.687c.204-.16.461-.384.688-.656.093-.112.129-.308.125-.438v-.03a.988.988 0 0 0-1.063-.938c-.563.031-.969.437-.937 1h-2c-.092-1.643 1.17-2.908 2.812-3zm.188 8a1 1 0 1 1 0 2 1 1 0 0 1 0-2z" style="marker:none" overflow="visible"/>
    </g>
</svg>
