<svg xmlns="http://www.w3.org/2000/svg" width="16" height="16">
    <g fill="#474747">
        <path d="M7.848 4.969c1.642-.092 3.096 1.17 3.188 2.812 0 1.402-.378 1.922-1.594 2.844-.191.144-.326.25-.375.313-.05.062-.031.033-.031.03.007.529-.472 1-1 1-.529 0-1.007-.471-1-1 0-.502.224-.943.468-1.25a3.82 3.82 0 0 1 .72-.687c.203-.16.46-.384.687-.656.093-.112.129-.308.125-.438v-.03a.988.988 0 0 0-1.063-.938c-.563.031-.969.437-.937 1h-2c-.092-1.643 1.17-2.908 2.812-3zm.188 8a1 1 0 1 1 0 2 1 1 0 0 1 0-2z" style="marker:none" color="#bebebe" overflow="visible"/>
        <path d="M8 2C5.186 2 2.828 3 1 4.586V6h1.48C4 4.735 5.7 4 8 4c2.3 0 4 .78 5.52 2H15V4.62C13.36 3.152 10.814 2 8 2zM4.68 5.82C4.096 6 3.433 6.503 3 7v1h1.016c-.016-.68.102-1.652.664-2.18zm6.64 0c.562.528.68 1.5.664 2.18H13V7c-.433-.497-1.096-1-1.68-1.18zM5 9v1h1.016c.024-.343.138-.72.513-1z" opacity=".32"/>
    </g>
</svg>
