<svg xmlns="http://www.w3.org/2000/svg" width="16" height="16">
    <g fill="#2e3436">
        <path d="M8 2c-1.1 0-2.128.158-3.084.44l1.668 1.667A9.44 9.44 0 0 1 8 4c2.3 0 4 .78 5.52 2H15V4.62C13.36 3.152 10.814 2 8 2zM1.62 4.092c-.212.158-.42.321-.62.494V6h1.48c.194-.161.39-.313.59-.457zM8 5c-.17 0-.336.012-.502.021l2.314 2.315c.438.17.837.391 1.188.664h2V7c-.995-1.223-2.873-2-5-2zM3.777 6.25A4.196 4.196 0 0 0 3 7v1h2c.1-.077.212-.14.318-.209zM5.94 8.412A3.773 3.773 0 0 0 5 9v1h2.527zM8 11a2 2 0 0 0-2 2 2 2 0 0 0 2 2 2 2 0 0 0 2-2 2 2 0 0 0-.104-.63l-1.263-1.265A2 2 0 0 0 8 11z" opacity=".35"/>
        <path d="M1.531.469L.47 1.53l14 14 1.062-1.062z"/>
    </g>
</svg>
