<svg xmlns="http://www.w3.org/2000/svg" width="16" height="16">
    <g color="#000" fill="#474747">
        <path d="M10 13a2 2 0 0 1-2 2 2 2 0 0 1-2-2 2 2 0 0 1 2-2 2 2 0 0 1 2 2z" style="isolation:auto;mix-blend-mode:normal;marker:none" overflow="visible" opacity=".32"/>
        <path d="M8 2C5.186 2 2.828 3 1 4.586V6h1.48C4 4.736 5.7 4 8 4c2.3 0 4 .78 5.52 2H15V4.62C13.36 3.153 10.814 2 8 2z" style="marker:none" overflow="visible" opacity=".32"/>
        <path d="M8 5c-1.504 0-2.86.36-3.875 1h7.688C10.791 5.373 9.462 5 8 5z" style="marker:none" overflow="visible" opacity=".32"/>
        <path d="M3.496 6.996h.016c.829 0 1.496.667 1.496 1.496v.016c0 .829-.667 1.496-1.496 1.496h-.016A1.493 1.493 0 0 1 2 8.508v-.016c0-.829.667-1.496 1.496-1.496zM7.496 6.996h.016c.829 0 1.496.667 1.496 1.496v.016c0 .829-.667 1.496-1.496 1.496h-.016A1.493 1.493 0 0 1 6 8.508v-.016c0-.829.667-1.496 1.496-1.496zM11.504 6.996c.833 0 1.504.667 1.504 1.496v.016c0 .829-.67 1.496-1.504 1.496A1.497 1.497 0 0 1 10 8.508v-.016c0-.829.67-1.496 1.504-1.496z" style="isolation:auto;mix-blend-mode:normal;marker:none" display="block" overflow="visible"/>
    </g>
</svg>
