<svg xmlns="http://www.w3.org/2000/svg" width="16" height="16">
    <g color="#bebebe" fill="#474747">
        <path d="M8 1C6.355 1 5 2.355 5 4v1H4v6h2.063c0-.014-.006-.025-.006-.04.002-.789.332-1.418.68-1.853.056-.07.106-.094.163-.158H5.035a.98.98 0 0 1-.978-.926C3.95 6.132 5.26 4.567 7 4.117V4c0-.564.436-1 1-1 .564 0 1 .436 1 1v.127c1.606.412 2.864 1.785 3 3.514V5h-1V4c0-1.645-1.355-3-3-3zm4 7.164c-.036.633-.162 1.209-.459 1.715-.255.436-.616.78-1.021 1.121H12zm-3.857 2.399l-.02.046-.03.082c.003-.004.008-.013.01-.021.015-.04.034-.095.04-.108zM2 13v2h4.357a1.946 1.946 0 0 1-.302-1.031c0-.37.128-.69.322-.969zm7.693 0c.194.279.323.598.323.969 0 .377-.115.729-.303 1.031H14v-2z" style="line-height:normal;font-variant-ligatures:normal;font-variant-position:normal;font-variant-caps:normal;font-variant-numeric:normal;font-variant-alternates:normal;font-feature-settings:normal;text-indent:0;text-align:start;text-decoration-line:none;text-decoration-style:solid;text-decoration-color:#000;text-transform:none;text-orientation:mixed;shape-padding:0;isolation:auto;mix-blend-mode:normal;marker:none" font-weight="400" font-family="sans-serif" white-space="normal" overflow="visible" opacity=".5"/>
        <path d="M7.848 4.969c1.642-.092 3.096 1.17 3.188 2.812 0 1.402-.378 1.922-1.594 2.844-.191.144-.326.25-.375.313-.05.062-.031.033-.031.03.007.529-.472 1-1 1-.529 0-1.007-.471-1-1 0-.502.224-.943.468-1.25a3.82 3.82 0 0 1 .72-.687c.203-.16.46-.384.687-.656.093-.112.129-.308.125-.438v-.03a.988.988 0 0 0-1.063-.938c-.563.031-.969.437-.937 1h-2c-.092-1.643 1.17-2.908 2.812-3zm.188 8a1 1 0 1 1 0 2 1 1 0 0 1 0-2z" style="marker:none" overflow="visible"/>
    </g>
</svg>
