<?xml version="1.0" encoding="UTF-8" standalone="no"?>
<svg
   xmlns:dc="http://purl.org/dc/elements/1.1/"
   xmlns:cc="http://creativecommons.org/ns#"
   xmlns:rdf="http://www.w3.org/1999/02/22-rdf-syntax-ns#"
   xmlns:svg="http://www.w3.org/2000/svg"
   xmlns="http://www.w3.org/2000/svg"
   width="16"
   version="1.1"
   style="enable-background:new"
   id="svg7384"
   height="16">
  <metadata
     id="metadata90">
    <rdf:RDF>
      <cc:Work
         rdf:about="">
        <dc:format>image/svg+xml</dc:format>
        <dc:type
           rdf:resource="http://purl.org/dc/dcmitype/StillImage" />
        <dc:title>Gnome Symbolic Icons</dc:title>
        <cc:license
           rdf:resource="http://creativecommons.org/licenses/by-sa/4.0/" />
      </cc:Work>
      <cc:License
         rdf:about="http://creativecommons.org/licenses/by-sa/4.0/">
        <cc:permits
           rdf:resource="http://creativecommons.org/ns#Reproduction" />
        <cc:permits
           rdf:resource="http://creativecommons.org/ns#Distribution" />
        <cc:requires
           rdf:resource="http://creativecommons.org/ns#Notice" />
        <cc:requires
           rdf:resource="http://creativecommons.org/ns#Attribution" />
        <cc:permits
           rdf:resource="http://creativecommons.org/ns#DerivativeWorks" />
        <cc:requires
           rdf:resource="http://creativecommons.org/ns#ShareAlike" />
      </cc:License>
    </rdf:RDF>
  </metadata>
  <title
     id="title8473">Gnome Symbolic Icons</title>
  <defs
     id="defs7386" />
  <g
     transform="translate(-32.000002,-188)"
     id="layer1">
    <path
       d="m 39.97406,188.1259 c -0.47666,0.01 -0.84852,0.2685 -1.06029,0.49471 -0.21177,0.22621 -0.33442,0.45168 -0.44682,0.68352 -0.22481,0.46367 -0.38372,0.96983 -0.54249,1.45195 -0.15876,0.48213 -0.31892,0.94111 -0.44993,1.20082 -0.0202,0.0401 -0.0179,0.0318 -0.0355,0.0606 l -3.59713,-4e-4 a 0.98240344,1.0181153 89.999997 0 0 -0.97518,0.6988 c -0.23228,0.7434 0.10051,1.2263 0.37033,1.6475 0.2698,0.4211 0.60899,0.8169 0.95179,1.2023 0.34281,0.3855 0.68817,0.756 0.94869,1.0617 0.26052,0.3056 0.42235,0.608 0.3928,0.5196 -0.0815,-0.2441 -0.0158,0.043 -0.11596,0.392 -0.10012,0.3492 -0.26945,0.8072 -0.43224,1.2756 -0.16279,0.4685 -0.32364,0.9416 -0.40063,1.4271 -0.0385,0.2428 -0.0612,0.4915 -0.008,0.7878 0.0528,0.2963 0.22609,0.6899 0.59148,0.9348 0.36035,0.2414 0.77177,0.27 1.07415,0.2344 0.30238,-0.036 0.54731,-0.1239 0.78605,-0.2256 0.47748,-0.2035 0.92831,-0.4831 1.3724,-0.7641 0.44409,-0.281 0.87594,-0.5649 1.21712,-0.7592 0.34117,-0.1942 0.66538,-0.2352 0.44311,-0.2356 -0.25007,-6e-4 0.0726,0.036 0.40358,0.2325 0.33102,0.1962 0.7509,0.4834 1.18293,0.7673 0.43203,0.2839 0.86756,0.5663 1.33452,0.7734 0.23348,0.1036 0.47553,0.1948 0.78051,0.2314 0.305,0.037 0.73426,0 1.09071,-0.2629 a 0.98240344,1.0181153 89.999997 0 0 0.11658,-0.1 c 0.51361,-0.5136 0.55625,-1.2149 0.4738,-1.7292 -0.0825,-0.5144 -0.26626,-0.9742 -0.4422,-1.4148 -0.17594,-0.4407 -0.3483,-0.859 -0.4421,-1.1845 -0.0935,-0.3245 -0.0735,-0.5301 -0.0765,-0.5222 -2e-5,1e-4 0,0 -1e-5,0 -0.0531,0.1588 0.0879,-0.1123 0.36043,-0.3776 0.27461,-0.2673 0.65163,-0.5972 1.02599,-0.9569 0.37435,-0.3596 0.74981,-0.7429 1.04471,-1.2019 0.29491,-0.4589 0.56036,-1.0982 0.31037,-1.79 a 0.98240344,1.0181153 89.999997 0 0 -0.96227,-0.6594 l -3.59524,-4e-4 c -0.0194,-0.0316 -0.0201,-0.0244 -0.0422,-0.0673 -0.14184,-0.27425 -0.31701,-0.74141 -0.49553,-1.22977 -0.17852,-0.48836 -0.35931,-0.99687 -0.59977,-1.45558 -0.12022,-0.22935 -0.25083,-0.45095 -0.46608,-0.67071 -0.21524,-0.21975 -0.59274,-0.47849 -1.08563,-0.46833 z m 0.0487,2.79794 c 0.0635,0.16477 0.11641,0.27073 0.18194,0.45 0.17809,0.48716 0.35691,0.99526 0.59407,1.45376 0.11858,0.2293 0.24669,0.449 0.4566,0.669 0.20991,0.22 0.57533,0.4849 1.07063,0.4849 h 2.36589 c -0.0997,0.1057 -0.14755,0.184 -0.26266,0.2946 -0.33,0.317 -0.70258,0.642 -1.03538,0.966 -0.3328,0.324 -0.65398,0.5695 -0.85192,1.1529 a 0.98240344,1.0181153 89.999997 0 0 -0.002,0 c -0.20678,0.618 -0.0871,1.1638 0.054,1.6537 0.14113,0.4898 0.33839,0.9494 0.50427,1.3649 0.0723,0.1811 0.0904,0.2832 0.14396,0.4394 -0.16044,-0.097 -0.2753,-0.1501 -0.45312,-0.2669 -0.40775,-0.268 -0.83897,-0.5666 -1.26292,-0.8179 -0.42396,-0.2512 -0.76058,-0.5222 -1.46496,-0.5237 -0.69322,0 -1.04766,0.2614 -1.48257,0.509 -0.43493,0.2477 -0.87847,0.5418 -1.29817,0.8074 -0.18862,0.1193 -0.31448,0.176 -0.48444,0.2744 0.0459,-0.1474 0.0598,-0.2398 0.11588,-0.4012 0.15377,-0.4425 0.33192,-0.9154 0.46359,-1.3746 0.13167,-0.4592 0.31393,-0.8584 0.093,-1.5196 -0.17408,-0.521 -0.45089,-0.8049 -0.75828,-1.1655 -0.30738,-0.3607 -0.65789,-0.7351 -0.97738,-1.0943 -0.10153,-0.1142 -0.1512,-0.1941 -0.24318,-0.3033 l 2.25981,1e-4 a 0.98240344,1.0181153 89.999997 0 0 0.0208,-2e-4 c 0.46324,-0.01 0.84053,-0.2514 1.06234,-0.4764 0.22181,-0.225 0.35498,-0.4547 0.47329,-0.6892 0.23662,-0.4691 0.39932,-0.97876 0.55942,-1.46492 0.0564,-0.17124 0.10281,-0.26934 0.15732,-0.42714 z"
       id="path14179-1"
       style="color:#000000;font-style:normal;font-variant:normal;font-weight:normal;font-stretch:normal;font-size:medium;line-height:normal;font-family:sans-serif;font-variant-ligatures:normal;font-variant-position:normal;font-variant-caps:normal;font-variant-numeric:normal;font-variant-alternates:normal;font-feature-settings:normal;text-indent:0;text-align:start;text-decoration:none;text-decoration-line:none;text-decoration-style:solid;text-decoration-color:#000000;letter-spacing:normal;word-spacing:normal;text-transform:none;writing-mode:lr-tb;direction:ltr;text-orientation:mixed;dominant-baseline:auto;baseline-shift:baseline;text-anchor:start;white-space:normal;shape-padding:0;clip-rule:nonzero;display:inline;overflow:visible;visibility:visible;opacity:1;isolation:auto;mix-blend-mode:normal;color-interpolation:sRGB;color-interpolation-filters:linearRGB;solid-color:#000000;solid-opacity:1;vector-effect:none;fill:#2e3436;fill-opacity:1;fill-rule:nonzero;stroke:none;stroke-width:2;stroke-linecap:butt;stroke-linejoin:round;stroke-miterlimit:4;stroke-dasharray:none;stroke-dashoffset:0;stroke-opacity:1;marker:none;color-rendering:auto;image-rendering:auto;shape-rendering:auto;text-rendering:auto;enable-background:accumulate" />
  </g>
  <g
     transform="translate(-32.000002,-188)"
     id="layer7" />
  <g
     transform="translate(-32.000002,-188)"
     id="layer6" />
  <g
     transform="translate(-32.000002,-188)"
     id="layer5" />
  <g
     transform="translate(-32.000002,-188)"
     id="layer9" />
  <g
     transform="translate(-32.000002,-188)"
     id="layer2" />
  <g
     transform="translate(-32.000002,-188)"
     id="layer8" />
  <g
     transform="translate(-32.000002,-188)"
     id="layer3" />
  <g
     transform="translate(-32.000002,-188)"
     id="layer4" />
</svg>
