<svg xmlns="http://www.w3.org/2000/svg" width="16.003" height="16">
    <g color="#000" font-weight="400" font-family="sans-serif" white-space="normal" fill="#2e3436">
        <path d="M15.003 2c-.554 0-1 .446-1 1v3h-3c-.554 0-1 .446-1 1v1h6V2z" style="line-height:normal;font-variant-ligatures:normal;font-variant-position:normal;font-variant-caps:normal;font-variant-numeric:normal;font-variant-alternates:normal;font-feature-settings:normal;text-indent:0;text-align:start;text-decoration-line:none;text-decoration-style:solid;text-decoration-color:#000;text-transform:none;text-orientation:mixed;shape-padding:0;isolation:auto;mix-blend-mode:normal" overflow="visible" fill-rule="evenodd"/>
        <path d="M7.546 1.016a7.01 7.01 0 0 0-6.483 6.07 7.01 7.01 0 0 0 4.69 7.543 7.01 7.01 0 0 0 8.312-3.129 1 1 0 1 0-1.732-1 4.99 4.99 0 0 1-5.938 2.234 4.99 4.99 0 0 1-3.35-5.386A4.992 4.992 0 0 1 7.678 3.01a4.99 4.99 0 0 1 5.156 3.695 1 1 0 1 0 1.932-.517 7.008 7.008 0 0 0-7.22-5.172z" style="line-height:normal;font-variant-ligatures:normal;font-variant-position:normal;font-variant-caps:normal;font-variant-numeric:normal;font-variant-alternates:normal;font-feature-settings:normal;text-indent:0;text-align:start;text-decoration-line:none;text-decoration-style:solid;text-decoration-color:#000;text-transform:none;text-orientation:mixed;shape-padding:0;isolation:auto;mix-blend-mode:normal" overflow="visible"/>
    </g>
</svg>
