<?xml version="1.0" encoding="UTF-8" standalone="no"?>
<svg
   xmlns:dc="http://purl.org/dc/elements/1.1/"
   xmlns:cc="http://creativecommons.org/ns#"
   xmlns:rdf="http://www.w3.org/1999/02/22-rdf-syntax-ns#"
   xmlns:svg="http://www.w3.org/2000/svg"
   xmlns="http://www.w3.org/2000/svg"
   width="16"
   version="1.1"
   style="enable-background:new"
   id="svg7384"
   height="16">
  <metadata
     id="metadata90">
    <rdf:RDF>
      <cc:Work
         rdf:about="">
        <dc:format>image/svg+xml</dc:format>
        <dc:type
           rdf:resource="http://purl.org/dc/dcmitype/StillImage" />
        <dc:title>Gnome Symbolic Icons</dc:title>
        <cc:license
           rdf:resource="http://creativecommons.org/licenses/by-sa/4.0/" />
      </cc:Work>
      <cc:License
         rdf:about="http://creativecommons.org/licenses/by-sa/4.0/">
        <cc:permits
           rdf:resource="http://creativecommons.org/ns#Reproduction" />
        <cc:permits
           rdf:resource="http://creativecommons.org/ns#Distribution" />
        <cc:requires
           rdf:resource="http://creativecommons.org/ns#Notice" />
        <cc:requires
           rdf:resource="http://creativecommons.org/ns#Attribution" />
        <cc:permits
           rdf:resource="http://creativecommons.org/ns#DerivativeWorks" />
        <cc:requires
           rdf:resource="http://creativecommons.org/ns#ShareAlike" />
      </cc:License>
    </rdf:RDF>
  </metadata>
  <title
     id="title8473">Gnome Symbolic Icons</title>
  <defs
     id="defs7386" />
  <g
     transform="translate(-52.000002,-188)"
     id="layer1">
    <path
       d="m 60,189.5 c -0.92654,-0.003 -1.43567,3.13373 -2.1875,3.65625 -0.75154,0.52231 -4.02289,0.0261 -4.3125,0.875 -0.28973,0.84921 2.65482,2.27358 2.9375,3.125 0.28257,0.85109 -1.24718,3.69066 -0.5,4.21875 0.74748,0.5283 3.10471,-1.72244 4.03125,-1.71875 0.008,3e-5 0.0226,-4.1e-4 0.0312,0 z"
       id="path14181"
       style="color:#000000;display:inline;overflow:visible;visibility:visible;fill:#2e3436;fill-opacity:1;stroke:none;stroke-width:1.04970646;marker:none;enable-background:accumulate" />
    <path
       d="m 59.95723,188.12891 c -0.41394,0.009 -0.7576,0.20571 -0.98047,0.40429 -0.22287,0.19858 -0.36865,0.41055 -0.49804,0.62696 -0.25879,0.43282 -0.44362,0.90643 -0.62305,1.375 -0.17943,0.46856 -0.34639,0.92925 -0.49609,1.26757 -0.0847,0.1915 -0.0676,0.16679 -0.11329,0.23637 l -3.41797,-0.01 a 1.0001,1.0001 0 0 0 -0.95703,0.7012 c -0.23946,0.7664 0.10166,1.2614 0.37305,1.6836 0.27139,0.4223 0.61031,0.8153 0.95313,1.1992 0.34281,0.3839 0.68921,0.7526 0.94921,1.0567 0.26,0.304 0.42095,0.6122 0.38672,0.5097 -0.0882,-0.2639 -0.0178,0.015 -0.11718,0.3614 -0.0994,0.3466 -0.2667,0.8044 -0.42969,1.2734 -0.16299,0.469 -0.32434,0.9416 -0.40235,1.4336 -0.039,0.246 -0.0641,0.4998 -0.01,0.8047 0.0543,0.3048 0.23754,0.7098 0.59766,0.9512 0.3551,0.238 0.74654,0.263 1.04101,0.2285 0.29447,-0.035 0.53861,-0.1219 0.77539,-0.2227 0.47357,-0.2016 0.9233,-0.479 1.36719,-0.7597 0.44389,-0.2808 0.87614,-0.5646 1.21875,-0.7598 0.34149,-0.1945 0.65783,-0.2438 0.46484,-0.2442 -0.22522,-4e-4 0.0936,0.043 0.42578,0.2403 0.33217,0.1968 0.75181,0.4838 1.1836,0.7676 0.43178,0.2837 0.86898,0.5661 1.33203,0.7714 0.23152,0.1027 0.47091,0.1911 0.76758,0.2266 0.29666,0.035 0.70813,0 1.06054,-0.2559 a 1.0001,1.0001 0 0 0 0.17579,-0.166 c 0.43161,-0.517 0.50778,-1.257 0.38476,-1.7675 -0.12302,-0.5106 -0.34654,-0.8964 -0.5332,-1.2598 -0.37333,-0.7268 -0.59147,-1.2064 -0.40039,-1.75 a 1.0001,1.0001 0 0 0 0.004,-0.01 c -0.0626,0.1844 0.0812,-0.1018 0.35547,-0.3672 0.2743,-0.2653 0.65085,-0.594 1.02539,-0.9511 0.37455,-0.3572 0.75124,-0.7368 1.04883,-1.1973 0.29759,-0.4605 0.57036,-1.1218 0.31445,-1.8301 a 1.0001,1.0001 0 0 0 -0.9414,-0.6601 H 62.6252 c -0.0198,-0.032 -0.0198,-0.025 -0.043,-0.0703 -0.1407,-0.27327 -0.3155,-0.7436 -0.49414,-1.23437 -0.17864,-0.49078 -0.3598,-1.00156 -0.60156,-1.46485 -0.12088,-0.23164 -0.25358,-0.457 -0.46875,-0.67773 -0.21518,-0.22074 -0.58566,-0.47267 -1.06055,-0.46289 z m -0.0156,2.63086 c 0.0895,0.22295 0.16973,0.39672 0.26562,0.66015 0.17819,0.48954 0.3592,0.99978 0.59766,1.46288 0.11922,0.2316 0.24897,0.4566 0.45898,0.6777 0.21001,0.2212 0.56782,0.4786 1.04492,0.4786 h 2.34571 c -0.0847,0.088 -0.12014,0.1499 -0.21485,0.2402 -0.33001,0.3147 -0.70187,0.6385 -1.03515,0.9609 -0.33167,0.3209 -0.6514,0.5617 -0.85547,1.1563 -0.47765,1.368 0.12125,2.5697 0.50781,3.3223 0.0153,0.03 0.0146,0.035 0.0293,0.064 -0.12407,-0.077 -0.20591,-0.1125 -0.33789,-0.1992 -0.408,-0.2681 -0.84086,-0.5659 -1.26367,-0.8164 -0.42282,-0.2506 -0.76188,-0.5181 -1.44141,-0.5196 a 1.0001,1.0001 0 0 0 -0.002,0 c -0.66798,0 -1.02356,0.259 -1.45704,0.5059 -0.43347,0.2469 -0.87698,0.5411 -1.29687,0.8066 -0.20299,0.1284 -0.34269,0.1915 -0.52344,0.295 0.0444,-0.1419 0.0575,-0.2279 0.11133,-0.3828 0.15358,-0.4419 0.33048,-0.9152 0.46289,-1.377 0.13241,-0.4618 0.32136,-0.8676 0.0937,-1.5488 -0.17875,-0.535 -0.45787,-0.814 -0.76562,-1.1739 -0.30775,-0.3598 -0.65731,-0.7323 -0.97657,-1.0898 -0.0834,-0.093 -0.12194,-0.1576 -0.19922,-0.248 l 2.24024,0.01 a 1.0001,1.0001 0 0 0 0.57422,-0.1797 c 0.55023,-0.3839 0.68715,-0.8078 0.88281,-1.25 0.19566,-0.4421 0.36645,-0.92072 0.53516,-1.3613 0.0778,-0.20307 0.14363,-0.31727 0.21875,-0.49023 z"
       id="path14179-1-7"
       style="color:#000000;font-style:normal;font-variant:normal;font-weight:normal;font-stretch:normal;font-size:medium;line-height:normal;font-family:sans-serif;font-variant-ligatures:normal;font-variant-position:normal;font-variant-caps:normal;font-variant-numeric:normal;font-variant-alternates:normal;font-feature-settings:normal;text-indent:0;text-align:start;text-decoration:none;text-decoration-line:none;text-decoration-style:solid;text-decoration-color:#000000;letter-spacing:normal;word-spacing:normal;text-transform:none;writing-mode:lr-tb;direction:ltr;text-orientation:mixed;dominant-baseline:auto;baseline-shift:baseline;text-anchor:start;white-space:normal;shape-padding:0;clip-rule:nonzero;display:inline;overflow:visible;visibility:visible;opacity:1;isolation:auto;mix-blend-mode:normal;color-interpolation:sRGB;color-interpolation-filters:linearRGB;solid-color:#000000;solid-opacity:1;vector-effect:none;fill:#2e3436;fill-opacity:1;fill-rule:nonzero;stroke:none;stroke-width:2;stroke-linecap:butt;stroke-linejoin:round;stroke-miterlimit:4;stroke-dasharray:none;stroke-dashoffset:0;stroke-opacity:1;marker:none;color-rendering:auto;image-rendering:auto;shape-rendering:auto;text-rendering:auto;enable-background:accumulate" />
  </g>
  <g
     transform="translate(-52.000002,-188)"
     id="layer7" />
  <g
     transform="translate(-52.000002,-188)"
     id="layer6" />
  <g
     transform="translate(-52.000002,-188)"
     id="layer5" />
  <g
     transform="translate(-52.000002,-188)"
     id="layer9" />
  <g
     transform="translate(-52.000002,-188)"
     id="layer2" />
  <g
     transform="translate(-52.000002,-188)"
     id="layer8" />
  <g
     transform="translate(-52.000002,-188)"
     id="layer3" />
  <g
     transform="translate(-52.000002,-188)"
     id="layer4" />
</svg>
