<svg xmlns="http://www.w3.org/2000/svg" width="16" height="16">
    <g fill="#2e3436">
        <path d="M3.477 1l2 2h6.492C12.565 3 13 3.435 13 4.031V10h-.523l2.472 2.473c.028-.165.051-.332.051-.504V4.03A3.038 3.038 0 0 0 11.969 1zM.289 2.762C.11 3.149 0 3.577 0 4.032v7.937A3.038 3.038 0 0 0 3.031 15h8.938c.173 0 .34-.025.506-.053L10.527 13H8v-2h.527l-1-1H2V4.473zM2 11h5v2H3.031C2.435 13 2 12.565 2 11.969z" style="line-height:normal;-inkscape-font-specification:Sans;text-indent:0;text-align:start;text-decoration-line:none;text-transform:none;marker:none" color="#bebebe" font-weight="400" font-family="Sans" overflow="visible" opacity=".35"/>
        <path d="M1.531.469L.47 1.53l14 14 1.062-1.062z"/>
    </g>
</svg>
