<svg xmlns="http://www.w3.org/2000/svg" width="16" height="16.015">
    <g fill="#2e3436">
        <path d="M8.072 0a6.996 6.996 0 0 0-3.488.891 1 1 0 1 0 .975 1.746 4.997 4.997 0 0 1 4.97.05A4.996 4.996 0 0 1 13 7v1a1 1 0 1 0 2 0V7a1 1 0 0 0-.01-.136A7 7 0 0 0 11.54.96a6.993 6.993 0 0 0-3.468-.96zM2.855 2.82a1 1 0 0 0-.722.375l1.465 1.463c.053-.1.098-.203.158-.3a1 1 0 0 0-.8-1.538 1 1 0 0 0-.1 0zM8 3C6.367 3 4.97 4.002 4.355 5.416L6 7.061V7c0-1.117.884-2 2-2s2 .883 2 2v4.058l3.012 3.012a1 1 0 0 0-.305-.778c-.382-.382-.55-.736-.633-.984C11.991 12.06 12 12 12 12V7a1 1 0 0 0-.022-.218C11.862 4.687 10.122 3 8 3zM1.437 4.62a7.069 7.069 0 0 0-.425 2.212A1 1 0 0 0 1 7v5.063a1 1 0 1 0 2 0V7c0-.254.024-.506.062-.755zm6.547 1.367A1 1 0 0 0 7 7v1.06l2 1.999V7a1 1 0 0 0-1.016-1.013zM4 7.182V8a1 1 0 0 0 1.617.8zm.984 2.805A1 1 0 0 0 4 11v3a1 1 0 1 0 2 0v-3a1 1 0 0 0-1.016-1.013zM14 10a1 1 0 0 0-1 1 1 1 0 0 0 1 1 1 1 0 0 0 1-1 1 1 0 0 0-1-1zm-7 .182V12s0 .595.145 1.32c.145.726.412 1.652 1.148 2.387a1 1 0 1 0 1.414-1.414c-.264-.264-.497-.839-.602-1.363a5.008 5.008 0 0 1-.095-.738zm3.525 3.525c.187.325.433.665.768 1a1 1 0 0 0 .518.288z" style="line-height:normal;font-variant-ligatures:normal;font-variant-position:normal;font-variant-caps:normal;font-variant-numeric:normal;font-variant-alternates:normal;font-feature-settings:normal;text-indent:0;text-align:start;text-decoration-line:none;text-decoration-style:solid;text-decoration-color:#000;text-transform:none;text-orientation:mixed;white-space:normal;shape-padding:0;isolation:auto;mix-blend-mode:normal;solid-color:#000;solid-opacity:1;marker:none" color="#000" font-weight="400" font-family="sans-serif" overflow="visible" opacity=".35"/>
        <path d="M1.531.47L.47 1.53l14 14 1.062-1.062z"/>
        <path d="M1.53.47L.47 1.53l14 14 1.063-1.06z"/>
    </g>
</svg>
