<svg xmlns="http://www.w3.org/2000/svg" width="16" height="16.001">
    <g fill="#474747">
        <path d="M6.705 0a.5.5 0 0 0-.437.641l.425 1.543c-.424.11-.838.263-1.238.457L4.434.876a.5.5 0 1 0-.867.502l1.017 1.757a10.81 10.81 0 0 0-.977.704L2.354 2.585a.5.5 0 1 0-.708.707l1.221 1.22c-.281.267-.547.525-.793.793l-.72-.72a.5.5 0 1 0-.708.707l.764.763C.525 7.131 0 8.001 0 8.001s.872 1.45 2.275 2.923l1.108-1.107C2.486 8.883 2 8.001 2 8.001s2.134-4 6-4c.38 0 .737.047 1.082.117l1.467-1.467a6.973 6.973 0 0 0-.783-.332l.57-1.646a.5.5 0 1 0-.943-.329l-.598 1.721A5.062 5.062 0 0 0 8 2.001c-.105 0-.208.018-.312.025L7.232.376A.5.5 0 0 0 6.705 0zm8.285 4.434a.502.502 0 0 0-.344.15l-.72.721c-.061-.066-.13-.132-.194-.197l-1.097 1.096C13.519 7.13 14 8 14 8s-2.134 4-6 4c-.368 0-.715-.046-1.05-.112l-1.48 1.479C6.267 13.753 7.116 14 8 14c4.418 0 8-6 8-6s-.525-.87-1.41-1.946l.764-.763a.5.5 0 0 0-.364-.858zM8 5.001a3 3 0 0 0-3 3c0 .062.014.12.018.181L6.86 6.34a.675.675 0 0 1 .477-.477l.844-.844c-.062-.004-.12-.017-.182-.017zm2.984 2.853l-3.132 3.131c.05.002.097.016.148.016a3 3 0 0 0 3-3c0-.05-.013-.097-.016-.147z"/>
        <path d="M14.021 1.028v.004a1 1 0 0 0-.06-.002 1 1 0 0 0-.688.303L1.318 13.286a1 1 0 0 0-.287.922V15h.887a1 1 0 0 0 .814-.301L14.688 2.747a1 1 0 0 0 .302-.719v-1z" style="line-height:normal;text-indent:0;text-align:start;text-decoration-line:none;text-decoration-style:solid;text-decoration-color:#000;text-transform:none;isolation:auto;mix-blend-mode:normal;marker:none" color="#000" font-weight="400" font-family="sans-serif" white-space="normal" overflow="visible"/>
    </g>
</svg>
