<svg xmlns="http://www.w3.org/2000/svg" width="16" height="16">
    <g fill="#474747">
        <path d="M3.5 1A2.495 2.495 0 0 0 1 3.5V4h14v-.5C15 2.115 13.885 1 12.5 1zM1.062 9A2.486 2.486 0 0 0 3.5 11h6.375L13 15v-4.063A2.488 2.488 0 0 0 14.938 9z" opacity=".5"/>
        <path d="M5 6.5A1.5 1.5 0 0 1 3.5 8 1.5 1.5 0 0 1 2 6.5 1.5 1.5 0 0 1 3.5 5 1.5 1.5 0 0 1 5 6.5zM9 6.5A1.5 1.5 0 0 1 7.5 8 1.5 1.5 0 0 1 6 6.5 1.5 1.5 0 0 1 7.5 5 1.5 1.5 0 0 1 9 6.5zM13 6.5A1.5 1.5 0 0 1 11.5 8 1.5 1.5 0 0 1 10 6.5 1.5 1.5 0 0 1 11.5 5 1.5 1.5 0 0 1 13 6.5z"/>
    </g>
</svg>
