<svg xmlns="http://www.w3.org/2000/svg" width="16" height="16"><path d="M3.5 1A2.495 2.495 0 001 3.5v5C1 9.885 2.115 11 3.5 11h6.375L13 15v-4.063A2.486 2.486 0 0015 8.5v-5C15 2.115 13.885 1 12.5 1zM5 3h1c.276 0 .538.1.719.281L8 4.562l1.281-1.28C9.462 3.1 9.724 3 10 3h1v1c0 .276-.1.538-.281.719L9.438 6l1.28 1.281c.182.181.282.443.282.719v1h-1c-.276 0-.538-.1-.719-.281L8 7.438l-1.281 1.28A1.015 1.015 0 016 9H5V8c0-.276.1-.538.281-.719L6.563 6 5.28 4.719A1.015 1.015 0 015 4z" fill="#474747"/></svg>