<svg xmlns="http://www.w3.org/2000/svg" width="16" height="16">
    <g color="#000" fill="#474747">
        <path d="M9.99 4.99a1 1 0 0 0-.697 1.717L12 9.414l2.707-2.707a1 1 0 1 0-1.414-1.414L12 6.586l-1.293-1.293a1 1 0 0 0-.717-.303z" style="line-height:normal;font-variant-ligatures:normal;font-variant-position:normal;font-variant-caps:normal;font-variant-numeric:normal;font-variant-alternates:normal;font-feature-settings:normal;text-indent:0;text-align:start;text-decoration-line:none;text-decoration-style:solid;text-decoration-color:#000;text-transform:none;text-orientation:mixed;shape-padding:0;isolation:auto;mix-blend-mode:normal" font-weight="400" font-family="sans-serif" white-space="normal" overflow="visible"/>
        <path d="M6 1C4.356 1 3 2.355 3 4v8c0 1.645 1.356 3 3 3h4v-2H6c-.571 0-1-.429-1-1V4c0-.571.429-1 1-1h4c.572 0 1 .429 1 1v4h2V4c0-1.645-1.355-3-3-3z" style="line-height:normal;font-variant-ligatures:normal;font-variant-position:normal;font-variant-caps:normal;font-variant-numeric:normal;font-variant-alternates:normal;font-feature-settings:normal;text-indent:0;text-align:start;text-decoration-line:none;text-decoration-style:solid;text-decoration-color:#000;text-transform:none;text-orientation:mixed;shape-padding:0;isolation:auto;mix-blend-mode:normal" font-weight="400" font-family="sans-serif" white-space="normal" overflow="visible"/>
        <path d="M9 6V5h1v1zM14 6V5h1v1z" style="marker:none" overflow="visible"/>
    </g>
</svg>
