<svg xmlns="http://www.w3.org/2000/svg" width="16" height="16">
    <g color="#000" fill="#474747">
        <path d="M9.465 0C8.192 0 7.158.973 7.017 2.219 6.693 2.097 6.361 2 5.994 2 4.351 2 3.02 3.343 3.02 5c0 .098.022.185.031.281A1.983 1.983 0 0 0 2.028 5 1.992 1.992 0 0 0 .044 7c0 1.105.888 2 1.984 2h12.396c.821 0 1.487-.672 1.487-1.5S15.245 6 14.424 6c-.206 0-.411.05-.589.125.052-.202.093-.407.093-.625 0-1.23-.886-2.228-2.045-2.438.041-.18.062-.368.062-.562 0-1.38-1.11-2.5-2.48-2.5z" style="marker:none" overflow="visible"/>
        <path d="M2.49 9.992a.496.496 0 0 0-.48.404l-1 4.92a.496.496 0 1 0 .973.198l1-4.918a.496.496 0 0 0-.493-.604zM4.494 9.996a.496.496 0 0 0-.48.404l-1.002 4.916a.496.496 0 1 0 .973.198L4.987 10.6a.496.496 0 0 0-.493-.604zM6.494 9.992a.496.496 0 0 0-.48.404l-1.002 4.92a.496.496 0 1 0 .973.198l1.002-4.918a.496.496 0 0 0-.493-.604zM8.496 9.992a.496.496 0 0 0-.48.404l-1.002 4.92a.496.496 0 1 0 .973.198l1-4.918a.496.496 0 0 0-.49-.604zM10.496 9.992a.496.496 0 0 0-.48.404l-1 4.92a.496.496 0 1 0 .972.198l1-4.918a.496.496 0 0 0-.492-.604zM12.498 9.992a.496.496 0 0 0-.48.404l-1 4.92a.496.496 0 1 0 .97.198l1.002-4.918a.496.496 0 0 0-.492-.604z" style="line-height:normal;font-variant-ligatures:normal;font-variant-position:normal;font-variant-caps:normal;font-variant-numeric:normal;font-variant-alternates:normal;font-feature-settings:normal;text-indent:0;text-align:start;text-decoration-line:none;text-decoration-style:solid;text-decoration-color:#000;text-transform:none;text-orientation:mixed;shape-padding:0;isolation:auto;mix-blend-mode:normal" font-weight="400" font-family="sans-serif" white-space="normal" overflow="visible"/>
    </g>
</svg>
