<svg xmlns="http://www.w3.org/2000/svg" width="16" height="16">
    <g color="#000" fill="#474747">
        <path d="M9.492 1c-1.277 0-2.314.973-2.455 2.219C6.712 3.097 6.378 3 6.01 3a2.992 2.992 0 0 0-2.983 3c0 .098.022.185.03.281A1.992 1.992 0 0 0 .045 8c0 1.105.89 2 1.99 2h.372c.165-.352.367-.681.653-.969l2.455-2.469 2.455 2.47c.283.284.464.62.621.968h.467l1.43-1.438L11.915 10h2.548c.824 0 1.492-.672 1.492-1.5S15.288 7 14.464 7c-.206 0-.412.05-.59.125.052-.202.093-.407.093-.625 0-1.23-.889-2.228-2.051-2.438a2.5 2.5 0 0 0 .062-.562c0-1.38-1.113-2.5-2.486-2.5z" style="marker:none" overflow="visible"/>
        <path d="M5.5 7.92L3.733 9.687a2.507 2.507 0 0 0 0 3.536 2.507 2.507 0 0 0 3.535 0 2.507 2.507 0 0 0 0-3.536zm0 1.414l1.06 1.06c.59.59.59 1.532 0 2.122-.59.59-1.53.59-2.12 0a1.492 1.492 0 0 1 0-2.121zM10.5 9.92l-1.767 1.767a2.507 2.507 0 0 0 0 3.536 2.507 2.507 0 0 0 3.535 0 2.507 2.507 0 0 0 0-3.536zm0 1.414l1.06 1.06c.59.59.59 1.532 0 2.122-.59.59-1.53.59-2.12 0a1.492 1.492 0 0 1 0-2.121z" style="line-height:normal;font-variant-ligatures:normal;font-variant-position:normal;font-variant-caps:normal;font-variant-numeric:normal;font-variant-alternates:normal;font-feature-settings:normal;text-indent:0;text-align:start;text-decoration-line:none;text-decoration-style:solid;text-decoration-color:#000;text-transform:none;text-orientation:mixed;shape-padding:0;isolation:auto;mix-blend-mode:normal;marker:none" font-weight="400" font-family="sans-serif" white-space="normal" overflow="visible"/>
    </g>
</svg>
