<svg xmlns="http://www.w3.org/2000/svg" width="16" height="16">
    <path d="M1.975.994c-1.341 0-1.341 2.012 0 2.012h.287c.128 0 .222.114.03.227-.633.538-.353 1.787.683 1.773h2.263c.207.009.15.152.084.208-.52.42-.483 1.304.12 1.653.09.047.054.123-.04.123H4.98c-1.398-.052-1.398 2.072 0 2.02h1.299c.108 0 .18.125.036.208-.52.432-.467 1.315.138 1.663.177.102.067.184-.014.248-.598.353-.649 1.24-.11 1.664.125.098.05.186-.046.186H5.99c-1.362 0-1.362 2.042 0 2.042h1.02c1.016.019 1.347-1.203.724-1.77-.129-.157-.031-.235.039-.235h1.242c1.354 0 1.354-2.032 0-2.032h-.29c-.142 0-.153-.105-.076-.173.503-.38.523-1.159.064-1.571-.15-.15-.075-.23.04-.23h.268c1.007.004 1.307-1.195.708-1.752-.114-.113-.088-.248.036-.248h1.256c1.041.015 1.327-1.25.676-1.787-.082-.082-.081-.217.072-.217h1.256c1.34 0 1.34-2.012 0-2.012h-.323c-.119 0-.154-.1-.068-.17.725-.502.464-1.844-.61-1.83z" style="line-height:normal;font-variant-ligatures:normal;font-variant-position:normal;font-variant-caps:normal;font-variant-numeric:normal;font-variant-alternates:normal;font-feature-settings:normal;text-indent:0;text-align:start;text-decoration-line:none;text-decoration-style:solid;text-decoration-color:#000;text-transform:none;text-orientation:mixed;white-space:normal;shape-padding:0;isolation:auto;mix-blend-mode:normal;solid-color:#000;solid-opacity:1;marker:none" color="#000" font-weight="400" font-family="sans-serif" overflow="visible" fill="#2e3436"/>
</svg>
