<svg xmlns="http://www.w3.org/2000/svg" width="16" height="16.007">
    <g color="#000" fill="#474747">
        <path d="M9.536 0C8.259 0 7.222.973 7.081 2.219 6.756 2.097 6.423 2 6.055 2a2.992 2.992 0 0 0-2.983 3c0 .098.022.185.031.281A1.992 1.992 0 0 0 .089 7c0 1.105.89 2 1.989 2h1.025a1.492 1.5 0 0 1 1.803-1.906 1.492 1.5 0 0 1 .03 0 1.492 1.5 0 0 1 1.337-.438 1.492 1.5 0 0 1 .839-.593A1.492 1.5 0 0 1 8.51 4.968a1.492 1.5 0 0 1 1.461 1.093 1.492 1.5 0 0 1 .84.594 1.492 1.5 0 0 1 1.398.407A1.492 1.5 0 0 1 13.979 9h.53c.823 0 1.49-.672 1.49-1.5S15.333 6 14.51 6c-.207 0-.413.05-.591.125.052-.202.093-.407.093-.625 0-1.23-.888-2.228-2.051-2.438a2.5 2.5 0 0 0 .062-.562c0-1.38-1.113-2.5-2.486-2.5z" style="marker:none" overflow="visible"/>
        <path d="M8.492 5.992A.5.5 0 0 0 8 6.5v.646l-.277-.138a.5.5 0 1 0-.447.894L8 8.266v1.798l-1.666-1.02.072-.89a.5.5 0 1 0-.998-.08l-.03.385-.608-.373a.5.5 0 1 0-.522.851l.67.41-.332.247a.5.5 0 1 0 .596.804l.656-.486 1.703 1.043-1.715 1.05-.66-.487a.5.5 0 1 0-.595.804l.336.246-.676.414a.5.5 0 1 0 .521.852l.615-.377.032.39a.5.5 0 1 0 .996-.08l-.073-.894L8 11.848v1.822l-.713.334a.5.5 0 1 0 .426.904L8 14.773v.727a.5.5 0 1 0 1 0v-.727l.287.135a.5.5 0 1 0 .426-.904L9 13.67v-1.82l1.64 1.005-.05.915a.5.5 0 1 0 .998.054l.022-.375.617.377a.5.5 0 1 0 .523-.853l-.68-.416.33-.23a.5.5 0 1 0-.574-.821l-.685.48-1.684-1.029 1.696-1.039.69.484a.5.5 0 1 0 .575-.82l-.334-.232.686-.42a.5.5 0 1 0-.524-.854l-.623.381-.021-.38a.5.5 0 1 0-.998.056l.05.918L9 10.062V8.266l.723-.364a.5.5 0 1 0-.447-.894L9 7.146V6.5a.5.5 0 0 0-.508-.508z" style="line-height:normal;font-variant-ligatures:normal;font-variant-position:normal;font-variant-caps:normal;font-variant-numeric:normal;font-variant-alternates:normal;font-feature-settings:normal;text-indent:0;text-align:start;text-decoration-line:none;text-decoration-style:solid;text-decoration-color:#000;text-transform:none;text-orientation:mixed;shape-padding:0;isolation:auto;mix-blend-mode:normal;marker:none" font-weight="400" font-family="sans-serif" white-space="normal" overflow="visible"/>
    </g>
</svg>
