<svg xmlns="http://www.w3.org/2000/svg" width="16" height="16">
    <g fill="#2e3436">
        <path d="M8 4.006c-2.195 0-4 1.805-4 4 0 2.195 1.805 4 4 4 2.195 0 4-1.805 4-4 0-2.195-1.805-4-4-4z" style="line-height:normal;-inkscape-font-specification:Sans;font-variant-ligatures:normal;font-variant-position:normal;font-variant-caps:normal;font-variant-numeric:normal;font-variant-alternates:normal;font-feature-settings:normal;text-indent:0;text-align:start;text-decoration-line:none;text-decoration-style:solid;text-decoration-color:#000;text-transform:none;text-orientation:mixed;shape-padding:0;isolation:auto;mix-blend-mode:normal;marker:none" color="#bebebe" font-weight="400" font-family="Sans" white-space="normal" overflow="visible"/>
        <path d="M7.5 0h1c.277 0 .5.223.5.5v2c0 .277-.223.5-.5.5h-1a.499.499 0 0 1-.5-.5v-2c0-.277.223-.5.5-.5zM7.5 13h1c.277 0 .5.223.5.5v2c0 .277-.223.5-.5.5h-1a.499.499 0 0 1-.5-.5v-2c0-.277.223-.5.5-.5zM1.99 2.697l.707-.707a.499.499 0 0 1 .707 0l1.414 1.414a.499.499 0 0 1 0 .707l-.707.707a.499.499 0 0 1-.707 0L1.99 3.404a.499.499 0 0 1 0-.707zM11.182 11.89l.707-.708a.499.499 0 0 1 .707 0l1.415 1.414a.499.499 0 0 1 0 .707l-.708.707a.499.499 0 0 1-.707 0l-1.414-1.414a.499.499 0 0 1 0-.707zM2.697 14.01l-.707-.707a.499.499 0 0 1 0-.707l1.414-1.414a.499.499 0 0 1 .707 0l.707.707a.499.499 0 0 1 0 .707L3.404 14.01a.499.499 0 0 1-.707 0zM11.89 4.818l-.708-.707a.499.499 0 0 1 0-.707l1.414-1.414a.499.499 0 0 1 .708 0l.707.707a.499.499 0 0 1 0 .707l-1.415 1.414a.499.499 0 0 1-.707 0zM16 7.5v1c0 .277-.223.5-.5.5h-2a.499.499 0 0 1-.5-.5v-1c0-.277.223-.5.5-.5h2c.277 0 .5.223.5.5zM3 7.5v1c0 .277-.223.5-.5.5h-2a.499.499 0 0 1-.5-.5v-1c0-.277.223-.5.5-.5h2c.277 0 .5.223.5.5z"/>
    </g>
</svg>
