<svg xmlns="http://www.w3.org/2000/svg" width="16.017" height="16.017"><g color="#000" fill="#2e3436"><path d="M4 2a2 2 0 01-2 2 2 2 0 01-2-2 2 2 0 012-2 2 2 0 012 2zm0 12a2 2 0 01-2 2 2 2 0 01-2-2 2 2 0 012-2 2 2 0 012 2zm12 0a2 2 0 01-2 2 2 2 0 01-2-2 2 2 0 012-2 2 2 0 012 2zm0-12a2 2 0 01-2 2 2 2 0 01-2-2 2 2 0 012-2 2 2 0 012 2z" style="marker:none" overflow="visible"/><path d="M1 1v14h14V1zm2 2h10v10H3z" style="line-height:normal;font-variant-ligatures:normal;font-variant-position:normal;font-variant-caps:normal;font-variant-numeric:normal;font-variant-alternates:normal;font-feature-settings:normal;text-indent:0;text-align:start;text-decoration-line:none;text-decoration-style:solid;text-decoration-color:#000;text-transform:none;text-orientation:mixed;shape-padding:0;isolation:auto;mix-blend-mode:normal;marker:none" font-weight="400" font-family="sans-serif" overflow="visible"/><path d="M5 5v6h6V5zm1 1h4v4H6z" style="line-height:normal;font-variant-ligatures:normal;font-variant-position:normal;font-variant-caps:normal;font-variant-numeric:normal;font-variant-alternates:normal;font-feature-settings:normal;text-indent:0;text-align:start;text-decoration-line:none;text-decoration-style:solid;text-decoration-color:#000;text-transform:none;text-orientation:mixed;shape-padding:0;isolation:auto;mix-blend-mode:normal;marker:none" font-weight="400" font-family="sans-serif" overflow="visible"/><path d="M12 10.5a1.5 1.5 0 01-1.5 1.5A1.5 1.5 0 019 10.5 1.5 1.5 0 0110.5 9a1.5 1.5 0 011.5 1.5zm-5 0A1.5 1.5 0 015.5 12 1.5 1.5 0 014 10.5 1.5 1.5 0 015.5 9 1.5 1.5 0 017 10.5zm0-4.984A1.5 1.516 0 015.5 7.03 1.5 1.516 0 014 5.516 1.5 1.516 0 015.5 4 1.5 1.516 0 017 5.516zm5-.016A1.5 1.5 0 0110.5 7 1.5 1.5 0 019 5.5 1.5 1.5 0 0110.5 4 1.5 1.5 0 0112 5.5z" style="marker:none" overflow="visible"/><path d="M10.854 10.146l-.708.708 3.5 3.5.708-.708zm-5.708 0l-3.5 3.5.708.708 3.5-3.5zm8.52-8.453l-3.5 3.47.703.71 3.5-3.469zm-11.264.002l-.707.707L5.12 5.826l.707-.707z" style="line-height:normal;font-variant-ligatures:normal;font-variant-position:normal;font-variant-caps:normal;font-variant-numeric:normal;font-variant-alternates:normal;font-feature-settings:normal;text-indent:0;text-align:start;text-decoration-line:none;text-decoration-style:solid;text-decoration-color:#000;text-transform:none;text-orientation:mixed;shape-padding:0;isolation:auto;mix-blend-mode:normal;marker:none" font-weight="400" font-family="sans-serif" overflow="visible"/></g></svg>