<svg xmlns="http://www.w3.org/2000/svg" width="16" height="16"><g color="#000" fill="#474747"><path d="M2 3v8h12V3zm6 1a2 2 0 012 2H8zM7 5v2h2a2 2 0 11-2-2z" style="marker:none" overflow="visible"/><path d="M2.095 2a1 1 0 100 2h11.63a1 1 0 100-2zm5.398 8.493a.5.5 0 00-.492.507v1.752l-1.805 1.381a.5.5 0 10.608.795L8 13.247V11a.5.5 0 00-.508-.507z" style="line-height:normal;font-variant-ligatures:normal;font-variant-position:normal;font-variant-caps:normal;font-variant-numeric:normal;font-variant-alternates:normal;font-feature-settings:normal;text-indent:0;text-align:start;text-decoration-line:none;text-decoration-style:solid;text-decoration-color:#000;text-transform:none;text-orientation:mixed;shape-padding:0;isolation:auto;mix-blend-mode:normal;marker:none" font-weight="400" font-family="sans-serif" overflow="visible"/><path d="M7.483 12.497a.5.5 0 00-.29.896l2 1.563a.5.5 0 10.614-.788l-2-1.562a.5.5 0 00-.324-.11z" style="line-height:normal;font-variant-ligatures:normal;font-variant-position:normal;font-variant-caps:normal;font-variant-numeric:normal;font-variant-alternates:normal;font-feature-settings:normal;text-indent:0;text-align:start;text-decoration-line:none;text-decoration-style:solid;text-decoration-color:#000;text-transform:none;text-orientation:mixed;shape-padding:0;isolation:auto;mix-blend-mode:normal;marker:none" font-weight="400" font-family="sans-serif" overflow="visible"/></g></svg>