<svg xmlns="http://www.w3.org/2000/svg" width="16" height="16">
    <path d="M5.525 0C4.433 0 3.61.68 3.295 1.295c-.314.615-.3 1.205-.3 1.205v13.117l5-2.5 4.997 2.5.01-7.617h-.004l-.004-5.5s.014-.584-.293-1.197C12.394.689 11.577 0 10.494 0zm0 2h4.97c.416 0 .349.06.417.197a.956.956 0 0 1 .082.303l.004 7.5-.002 2.383-3.002-1.5-3 1.5V2.5s.013-.16.082-.295c.069-.134.01-.205.45-.205z" style="line-height:normal;font-variant-ligatures:normal;font-variant-position:normal;font-variant-caps:normal;font-variant-numeric:normal;font-variant-alternates:normal;font-feature-settings:normal;text-indent:0;text-align:start;text-decoration-line:none;text-decoration-style:solid;text-decoration-color:#000;text-transform:none;text-orientation:mixed;shape-padding:0;isolation:auto;mix-blend-mode:normal" color="#000" font-weight="400" font-family="sans-serif" white-space="normal" overflow="visible" fill="#2e3436" fill-rule="evenodd"/>
</svg>
