<?xml version="1.0" encoding="UTF-8" standalone="no"?>
<svg
   xmlns:dc="http://purl.org/dc/elements/1.1/"
   xmlns:cc="http://creativecommons.org/ns#"
   xmlns:rdf="http://www.w3.org/1999/02/22-rdf-syntax-ns#"
   xmlns:svg="http://www.w3.org/2000/svg"
   xmlns="http://www.w3.org/2000/svg"
   width="4.2333331mm"
   height="4.2333093mm"
   viewBox="0 0 4.2333331 4.2333093"
   version="1.1"
   id="svg4043">
  <defs
     id="defs4037" />
  <metadata
     id="metadata4040">
    <rdf:RDF>
      <cc:Work
         rdf:about="">
        <dc:format>image/svg+xml</dc:format>
        <dc:type
           rdf:resource="http://purl.org/dc/dcmitype/StillImage" />
        <dc:title></dc:title>
      </cc:Work>
    </rdf:RDF>
  </metadata>
  <path
     id="path4410"
     d="m 0.79375,-2.4064382e-5 c -0.2931583,0 -0.5291666,0.236008404382 -0.5291666,0.529166704382 V 3.7041425 c 0,0.2931584 0.2360083,0.5291667 0.5291666,0.5291667 H 1.3229167 V 1.5642217 C 1.1645398,1.5082279 1.0585689,1.3585849 1.0583334,1.1906009 c 0,-0.21918866 0.1776862,-0.39687496 0.396875,-0.39687496 0.2191888,0 0.396875,0.1776863 0.396875,0.39687496 -2.355e-4,0.167984 -0.1062064,0.317627 -0.2645833,0.3736208 v 2.011762 C 1.6985589,3.4916213 1.8350019,3.4395592 1.9843751,3.4395592 h 0.2645833 c 0.2207551,0 0.396875,-0.1761199 0.396875,-0.396875 V 2.4902633 C 2.4874565,2.4342696 2.3814855,2.2846265 2.3812501,2.1166426 c 0,-0.2191888 0.1776862,-0.396875 0.396875,-0.396875 0.2191887,0 0.396875,0.1776862 0.396875,0.396875 -2.355e-4,0.1679839 -0.1062064,0.317627 -0.2645834,0.3736207 v 0.5524209 c 0,0.3637465 -0.2977118,0.6614583 -0.6614583,0.6614583 H 1.9843751 c -0.2207551,0 -0.396875,0.1761199 -0.396875,0.396875 v 0.1322917 h 1.8520833 c 0.2931583,0 0.5291666,-0.2360083 0.5291666,-0.5291667 V 0.52914264 c 0,-0.2931583 -0.2360083,-0.529166704382 -0.5291666,-0.529166704382 z"
     style="display:inline;opacity:1;vector-effect:none;fill:#17212b;fill-opacity:1;stroke:none;stroke-width:1.00179005;stroke-linecap:square;stroke-linejoin:round;stroke-miterlimit:4;stroke-dasharray:none;stroke-dashoffset:0;stroke-opacity:1;enable-background:new" />
</svg>
