<svg xmlns="http://www.w3.org/2000/svg" width="16" height="16"><path style="line-height:normal;font-variant-ligatures:normal;font-variant-position:normal;font-variant-caps:normal;font-variant-numeric:normal;font-variant-alternates:normal;font-feature-settings:normal;text-indent:0;text-align:start;text-decoration-line:none;text-decoration-style:solid;text-decoration-color:#000;text-transform:none;text-orientation:mixed;white-space:normal;shape-padding:0;isolation:auto;mix-blend-mode:normal;solid-color:#000;solid-opacity:1" d="M7.662.008a8.007 8.007 0 00-6.41 3.695 8.009 8.009 0 00.736 9.574 8.006 8.006 0 009.397 1.971 1 1 0 10-.846-1.812 5.993 5.993 0 01-7.049-1.479 5.99 5.99 0 01-.55-7.18A5.99 5.99 0 019.677 2.24 5.991 5.991 0 0114 8a1 1 0 000 .041V9a.994.994 0 01-.5.865.993.993 0 01-1 0A.995.995 0 0112 9V8c0-2.197-1.803-4-4-4S4 5.803 4 8s1.803 4 4 4c1.044 0 1.99-.416 2.705-1.078.222.265.487.498.795.676a3.004 3.004 0 003 0A3.003 3.003 0 0016 9V8A8.008 8.008 0 0010.238.318a7.983 7.983 0 00-2.576-.31zM8 6c1.117 0 2 .884 2 2s-.883 2-2 2c-1.116 0-2-.884-2-2s.884-2 2-2z" color="#000" font-weight="400" font-family="sans-serif" overflow="visible" fill="#2e3436"/></svg>