<svg xmlns="http://www.w3.org/2000/svg" width="16" height="16">
    <g fill="#2e3436">
        <path d="M5 11.5A2.5 2.5 0 0 1 2.5 14 2.5 2.5 0 0 1 0 11.5 2.5 2.5 0 0 1 2.5 9 2.5 2.5 0 0 1 5 11.5z" style="marker:none" color="#bebebe" overflow="visible"/>
        <path d="M8 8a3 3 0 0 1-3 3 3 3 0 0 1-3-3 3 3 0 0 1 3-3 3 3 0 0 1 3 3zM16 11a3 3 0 0 1-3 3 3 3 0 0 1-3-3 3 3 0 0 1 3-3 3 3 0 0 1 3 3z" style="marker:none" color="#bebebe" overflow="visible"/>
        <path d="M13 9H2.5v5H13z" style="marker:none" color="#000" overflow="visible"/>
        <path d="M14 7a4 4 0 0 1-4 4 4 4 0 0 1-4-4 4 4 0 0 1 4-4 4 4 0 0 1 4 4z" style="marker:none" color="#bebebe" overflow="visible"/>
    </g>
</svg>
