<svg xmlns="http://www.w3.org/2000/svg" width="16" height="16">
    <g fill="#2e3436">
        <path d="M5 11.5A2.5 2.5 0 0 1 2.5 14 2.5 2.5 0 0 1 0 11.5 2.5 2.5 0 0 1 2.5 9 2.5 2.5 0 0 1 5 11.5z" style="marker:none" color="#bebebe" overflow="visible"/>
        <path d="M11.5 7.5A4.5 4.5 0 0 1 7 12a4.5 4.5 0 0 1-4.5-4.5A4.5 4.5 0 0 1 7 3a4.5 4.5 0 0 1 4.5 4.5z" style="marker:none" color="#bebebe" overflow="visible"/>
        <path d="M16 10.5a3.5 3.5 0 0 1-3.5 3.5A3.5 3.5 0 0 1 9 10.5 3.5 3.5 0 0 1 12.5 7a3.5 3.5 0 0 1 3.5 3.5z" style="marker:none" color="#bebebe" overflow="visible"/>
        <path d="M2.313 10H12.5v4H2.313z" style="marker:none" color="#000" overflow="visible"/>
    </g>
</svg>
