<svg xmlns="http://www.w3.org/2000/svg" width="16" height="16">
    <g fill="#474747">
        <path d="M3.025 0l.034.002a2.086 2.086 0 0 0-.159 0H2.88l-.024.002A1.98 1.98 0 0 0 1 2.045v11.914A1.981 1.981 0 0 0 3.041 16h9.918A1.98 1.98 0 0 0 15 13.96V5a1.991 1.991 0 0 0-.617-1.422L11.426.62A1.99 1.99 0 0 0 10.004 0h-.008zm-.017 2c-.002-.002.005 0 .002 0h6.965c-.01 0 .014.011.007.004l.008.008 2.998 3.002.008.006c-.007-.007.004.019.004.01v8.959c-.001-.08-.093.01-.012.012H3.012c.081-.001-.01-.092-.012-.012V2.011c.001.055.027.005.008-.01z" style="line-height:normal;font-variant-ligatures:normal;font-variant-position:normal;font-variant-caps:normal;font-variant-numeric:normal;font-variant-alternates:normal;font-feature-settings:normal;text-indent:0;text-align:start;text-decoration-line:none;text-decoration-style:solid;text-decoration-color:#000;text-transform:none;text-orientation:mixed;shape-padding:0;isolation:auto;mix-blend-mode:normal;marker:none" color="#bebebe" font-weight="400" font-family="sans-serif" white-space="normal" overflow="visible"/>
        <path d="M8 4.877c-2.24 0-4.06 1.82-4.06 4.06 0 2.241 1.82 4.061 4.06 4.061 2.24 0 4.06-1.82 4.06-4.06 0-2.241-1.82-4.061-4.06-4.061zm0 1a3.043 3.043 0 0 1 3.06 3.06A3.043 3.043 0 0 1 8 11.999a3.043 3.043 0 0 1-3.06-3.06A3.043 3.043 0 0 1 8 5.877z" style="line-height:normal;font-variant-ligatures:normal;font-variant-position:normal;font-variant-caps:normal;font-variant-numeric:normal;font-variant-alternates:normal;font-feature-settings:normal;text-indent:0;text-align:start;text-decoration-line:none;text-decoration-style:solid;text-decoration-color:#000;text-transform:none;text-orientation:mixed;shape-padding:0;isolation:auto;mix-blend-mode:normal;marker:none" color="#bebebe" font-weight="400" font-family="sans-serif" white-space="normal" overflow="visible"/>
        <path d="M8 6.938c-1.1 0-2 .9-2 2 0 1.099.9 2 2 2s2-.901 2-2c0-1.1-.9-2-2-2zm0 1c.563 0 1 .437 1 1 0 .562-.437 1-1 1s-1-.438-1-1c0-.563.437-1 1-1z" style="line-height:normal;font-variant-ligatures:normal;font-variant-position:normal;font-variant-caps:normal;font-variant-numeric:normal;font-variant-alternates:normal;font-feature-settings:normal;text-indent:0;text-align:start;text-decoration-line:none;text-decoration-style:solid;text-decoration-color:#000;text-transform:none;text-orientation:mixed;shape-padding:0;isolation:auto;mix-blend-mode:normal;marker:none" color="#bebebe" font-weight="400" font-family="sans-serif" white-space="normal" overflow="visible"/>
        <path d="M6.331 5.6a2.991 2.991 0 0 0-1.669 1.684l1.908.954a1.31 1.31 0 0 1 .699-.731zm3.338 0L8.73 7.507c.322.136.571.405.7.731l1.907-.954A2.991 2.991 0 0 0 9.668 5.6zm-3.1 4.069l-1.907.953c.309.757.91 1.348 1.67 1.653l.953-1.907a1.318 1.318 0 0 1-.715-.7zm2.861 0c-.133.316-.396.569-.715.699l.954 1.907a3.003 3.003 0 0 0 1.669-1.653z"/>
    </g>
</svg>
