<svg xmlns="http://www.w3.org/2000/svg" width="16" height="16">
    <g color="#bebebe" fill="#474747">
        <path d="M12 1c1.662 0 3 1.338 3 3v6c0 1.662-1.338 3-3 3H4c-1.662 0-3-1.338-3-3V4c0-1.662 1.338-3 3-3zm0 2H4c-.554 0-1 .446-1 1v6c0 .554.446 1 1 1h8c.554 0 1-.446 1-1V4c0-.554-.446-1-1-1zM8 14c-5 0-5 1-5 1 0 1 1 1 1 1h8c1 0 1-1 1-1s0-1-5-1z" style="marker:none" overflow="visible"/>
        <path d="M3 2l-1 9.525L14 11zm1.018 3.996L9 10l-4.965.026z" style="marker:none" overflow="visible"/>
    </g>
</svg>
