<svg xmlns="http://www.w3.org/2000/svg" width="16" height="16">
    <g fill="#474747">
        <path d="M12 1c1.662 0 3 1.338 3 3v6c0 1.662-1.338 3-3 3H4c-1.662 0-3-1.338-3-3V4c0-1.662 1.338-3 3-3zm0 2H4c-.554 0-1 .446-1 1v6c0 .554.446 1 1 1h8c.554 0 1-.446 1-1V4c0-.554-.446-1-1-1zM8 14c-5 0-5 1-5 1 0 1 1 1 1 1h8c1 0 1-1 1-1s0-1-5-1z" style="marker:none" color="#bebebe" overflow="visible"/>
        <path d="M8 4v5H4v1h8V4z" style="marker:none" color="#bebebe" overflow="visible" opacity=".35"/>
        <path d="M7 4L4 8h3z" style="marker:none" color="#000" overflow="visible"/>
    </g>
</svg>
