<svg xmlns="http://www.w3.org/2000/svg" width="16.024" height="16.014">
    <g fill="#2e3436">
        <path d="M8.01 2.5A2.5 2.5 0 015.51 5a2.5 2.5 0 01-2.5-2.5A2.5 2.5 0 015.51 0a2.5 2.5 0 012.5 2.5zM12.51 5c.831 0 1.5.669 1.5 1.5S13.341 8 12.51 8c-.83 0-1.5-.669-1.5-1.5s.67-1.5 1.5-1.5z"/>
        <path d="M10.01 9a1 1 0 100 2h5a1 1 0 100-2zM4.54 6.486a1 1 0 00-1.02.873l-.51 3.57V15a1 1 0 102 0v-3.93l.49-3.43a1 1 0 00-.96-1.154z" style="line-height:normal;font-variant-ligatures:normal;font-variant-position:normal;font-variant-caps:normal;font-variant-numeric:normal;font-variant-alternates:normal;font-feature-settings:normal;text-indent:0;text-align:start;text-decoration-line:none;text-decoration-style:solid;text-decoration-color:#000;text-transform:none;text-orientation:mixed;white-space:normal;shape-padding:0;isolation:auto;mix-blend-mode:normal;solid-color:#000;solid-opacity:1" color="#000" font-weight="400" font-family="sans-serif" overflow="visible" fill-rule="evenodd"/>
        <path d="M6.551 6.486A1 1 0 005.52 7.641l.49 3.43V15a1 1 0 102 0v-4.07L7.5 7.36a1 1 0 00-.949-.874z" style="line-height:normal;font-variant-ligatures:normal;font-variant-position:normal;font-variant-caps:normal;font-variant-numeric:normal;font-variant-alternates:normal;font-feature-settings:normal;text-indent:0;text-align:start;text-decoration-line:none;text-decoration-style:solid;text-decoration-color:#000;text-transform:none;text-orientation:mixed;white-space:normal;shape-padding:0;isolation:auto;mix-blend-mode:normal;solid-color:#000;solid-opacity:1" color="#000" font-weight="400" font-family="sans-serif" overflow="visible" fill-rule="evenodd"/>
        <path d="M4.01 7h3v7h-1v-1.5s0-.5-.5-.5-.5.5-.5.5V14h-1z"/>
        <path d="M4.01 6a1 1 0 00-.707.293l-3 3a1 1 0 101.414 1.414L4.424 8h2.172l2.707 2.707a1 1 0 101.414-1.414l-3-3A1 1 0 007.01 6z" style="line-height:normal;font-variant-ligatures:normal;font-variant-position:normal;font-variant-caps:normal;font-variant-numeric:normal;font-variant-alternates:normal;font-feature-settings:normal;text-indent:0;text-align:start;text-decoration-line:none;text-decoration-style:solid;text-decoration-color:#000;text-transform:none;text-orientation:mixed;white-space:normal;shape-padding:0;isolation:auto;mix-blend-mode:normal;solid-color:#000;solid-opacity:1" color="#000" font-weight="400" font-family="sans-serif" overflow="visible" fill-rule="evenodd"/>
        <path d="M11.524 9.836l-.514 3.082V16h3v-3.082l-.514-3.082z" style="line-height:normal;font-variant-ligatures:normal;font-variant-position:normal;font-variant-caps:normal;font-variant-numeric:normal;font-variant-alternates:normal;font-feature-settings:normal;text-indent:0;text-align:start;text-decoration-line:none;text-decoration-style:solid;text-decoration-color:#000;text-transform:none;text-orientation:mixed;white-space:normal;shape-padding:0;isolation:auto;mix-blend-mode:normal;solid-color:#000;solid-opacity:1" color="#000" font-weight="400" font-family="sans-serif" overflow="visible"/>
    </g>
</svg>
