<svg xmlns="http://www.w3.org/2000/svg" width="16" height="16">
    <g font-weight="400" font-family="sans-serif" white-space="normal" fill="#474747">
        <path d="M2.195 0C.99 0 0 1.008 0 2.209v10.582C0 13.991.99 15 2.195 15h11.61C15.01 15 16 13.992 16 12.791V2.209C16 1.009 15.01 0 13.805 0zm0 2h11.61c.12 0 .195.07.195.209v10.582c0 .139-.075.209-.195.209H2.195c-.12 0-.195-.07-.195-.209V2.209C2 2.07 2.075 2 2.195 2z" style="line-height:normal;font-variant-ligatures:normal;font-variant-position:normal;font-variant-caps:normal;font-variant-numeric:normal;font-variant-alternates:normal;font-feature-settings:normal;text-indent:0;text-align:start;text-decoration-line:none;text-decoration-style:solid;text-decoration-color:#000;text-transform:none;text-orientation:mixed;shape-padding:0;isolation:auto;mix-blend-mode:normal;marker:none" color="#bebebe" overflow="visible"/>
        <path d="M9.451 3.957a.5.5 0 0 0-.469.363L7.268 10.38l-.866-1.176A.5.5 0 0 0 6 9H3v1h2.746l1.32 1.797a.5.5 0 0 0 .885-.16L9.482 6.23l1.04 3.416A.5.5 0 0 0 11 10h2V9h-1.629l-1.43-4.69a.5.5 0 0 0-.49-.353z" style="line-height:normal;font-variant-ligatures:normal;font-variant-position:normal;font-variant-caps:normal;font-variant-numeric:normal;font-variant-alternates:normal;font-feature-settings:normal;text-indent:0;text-align:start;text-decoration-line:none;text-decoration-style:solid;text-decoration-color:#000;text-transform:none;text-orientation:mixed;shape-padding:0;isolation:auto;mix-blend-mode:normal" color="#000" overflow="visible"/>
    </g>
</svg>
