<svg xmlns="http://www.w3.org/2000/svg" width="16" height="16"><path d="M2.934 0h.132C4.692 0 6 1.332 6 2.986v10.028C6 14.668 4.692 16 3.066 16h-.132C1.308 16 0 14.668 0 13.014V2.986C0 1.332 1.308 0 2.934 0zm2.594 0c.878.714 1.469 1.793 1.469 3v1h2.125c-.075-1.092 1.248-2 2-2 .68 0 1 .012 1 1v1h1.218c1.229-.6 1.782-1.969 1.782-2.687 0-.736-2.386-1.312-3.688-1.312zM7 5v4.313c2.766 2.662 6.125 2.406 6.125 2.406s.353-1.52-1.906-4.03L8.844 5H7.063C7.04 5.003 7.02 4.999 7 5zm2.975 2.532L11.66 9.27c-1.8.166-2.151-.856-1.684-1.737z" style="marker:none" overflow="visible" color="#000" fill="#474747"/></svg>