<svg xmlns="http://www.w3.org/2000/svg" width="16" height="16.001">
    <g fill="#474747">
        <path d="M7.969 0C4.663 0 1.945 3.008 2 5.719c.062 3.022.934 4.695 1.125 5.281h1.4C3.365 8.708 3.477 5.844 3.477 5.844c0-2.373 2.007-4.313 4.493-4.313 2.485 0 4.5 1.92 4.492 4.375-.024 1.674-.172 2.284-1.006 4.813h1.571c.225-.645.974-2.066.974-4.906C14 2.983 11.274 0 7.969 0z"/>
        <path d="M12.6 7.059c-.84-.234-1.766.368-2.079 1.351l-.426 1.343c-.312.983.112 1.963.951 2.197.84.234 1.766-.368 2.078-1.351l.426-1.343c.313-.983-.112-1.963-.95-2.197zM3.452 7.06c.84-.235 1.766.368 2.078 1.35l.427 1.343c.312.983-.112 1.963-.951 2.197-.84.235-1.766-.368-2.078-1.35L2.5 9.255c-.312-.983.112-1.963.951-2.197z"/>
        <path d="M9.003 13h.016c.55 0 .992.447.992 1 0 .555-.442 1-.992 1h-.016a.994.994 0 0 1-.992-1c0-.553.443-1 .992-1z" style="marker:none" color="#000" overflow="visible"/>
        <path d="M12.695 9.405a.5.5 0 0 0-.149.97l1.452.536-.018 1.746c-.005.532-.146.858-.322 1.053-.177.195-.404.29-.72.29H9.014a.5.5 0 1 0 0 1h3.922c.548 0 1.087-.203 1.463-.618.376-.415.574-1.007.58-1.717l.024-2.45-2.112-.777a.5.5 0 0 0-.197-.033z" style="line-height:normal;font-variant-ligatures:normal;font-variant-position:normal;font-variant-caps:normal;font-variant-numeric:normal;font-variant-alternates:normal;font-feature-settings:normal;text-indent:0;text-align:start;text-decoration-line:none;text-decoration-style:solid;text-decoration-color:#000;text-transform:none;text-orientation:mixed;shape-padding:0;isolation:auto;mix-blend-mode:normal" color="#000" font-weight="400" font-family="sans-serif" white-space="normal" overflow="visible"/>
    </g>
</svg>
