<?xml version="1.0" encoding="UTF-8"?>
<svg height="16px" viewBox="0 0 16 16" width="16px" xmlns="http://www.w3.org/2000/svg">
    <g fill="#2e3436">
        <path d="m 2 7 h 2 c 0.550781 0 1 0.449219 1 1 v 4 c 0 0.550781 -0.449219 1 -1 1 h -2 c -0.550781 0 -1 -0.449219 -1 -1 v -4 c 0 -0.550781 0.449219 -1 1 -1 z m 0 0"/>
        <path d="m 12 7 h 2 c 0.550781 0 1 0.449219 1 1 v 4 c 0 0.550781 -0.449219 1 -1 1 h -2 c -0.550781 0 -1 -0.449219 -1 -1 v -4 c 0 -0.550781 0.449219 -1 1 -1 z m 0 0"/>
        <path d="m 1 7 h 2 v 4 h -2 z m 0 0"/>
        <path d="m 13 7 h 2 v 4 h -2 z m 0 0"/>
        <path d="m 13 10 v 3 c 0 0.5625 -0.4375 1 -1 1 h -5.5 v 2 h 5.5 c 1.644531 0 3 -1.355469 3 -3 v -3 z m 0 0"/>
        <path d="m 4.5 0.9375 c -2.164062 1.25 -3.5 3.5625 -3.5 6.0625 h 2 c 0 -1.785156 0.953125 -3.4375 2.5 -4.328125 c 1.546875 -0.894531 3.453125 -0.894531 5 0 c 1.546875 0.890625 2.5 2.542969 2.5 4.328125 h 2 c 0 -2.5 -1.335938 -4.8125 -3.5 -6.0625 s -4.835938 -1.25 -7 0 z m 0 0"/>
    </g>
</svg>
