<svg xmlns="http://www.w3.org/2000/svg" width="16" height="16">
    <g color="#000" font-weight="400" font-family="sans-serif" white-space="normal" fill="#474747">
        <path d="M6.658.254c-1.883.106-3.844.794-5.63 2.307A.75.75 0 1 0 2 3.705c3.092-2.62 6.604-2.33 9.1-.953 1.247.688 2.21 1.658 2.687 2.611.477.953.507 1.814-.004 2.602-.571.88-2.35 1.5-3.83-.139-.888-.982-2.083-1.33-3.133-1.133-1.05.199-1.959.883-2.48 1.832-.523.95-.635 2.195-.089 3.399.547 1.204 1.705 2.342 3.612 3.277a.75.75 0 1 0 .662-1.346c-1.69-.829-2.547-1.754-2.908-2.55-.362-.797-.274-1.492.037-2.057.31-.565.869-.972 1.443-1.08.575-.108 1.162.022 1.742.664 2.033 2.25 5.047 1.728 6.202-.05.821-1.267.737-2.794.087-4.09-.65-1.298-1.827-2.438-3.304-3.253A9.657 9.657 0 0 0 6.658.254z" style="line-height:normal;font-variant-ligatures:normal;font-variant-position:normal;font-variant-caps:normal;font-variant-numeric:normal;font-variant-alternates:normal;font-feature-settings:normal;text-indent:0;text-align:start;text-decoration-line:none;text-decoration-style:solid;text-decoration-color:#000;text-transform:none;text-orientation:mixed;shape-padding:0;isolation:auto;mix-blend-mode:normal" overflow="visible"/>
        <path d="M8.025 3.574a6.924 6.924 0 0 0-4.607 1.344c-1.301.968-2.274 2.417-2.526 4.16-.251 1.744.233 3.745 1.682 5.774a.75.75 0 1 0 1.22-.872c-1.273-1.782-1.608-3.366-1.417-4.687.19-1.321.92-2.415 1.937-3.172 2.033-1.513 5.086-1.633 7.04.787a.75.75 0 1 0 1.167-.941c-1.228-1.523-2.853-2.269-4.496-2.393z" style="line-height:normal;font-variant-ligatures:normal;font-variant-position:normal;font-variant-caps:normal;font-variant-numeric:normal;font-variant-alternates:normal;font-feature-settings:normal;text-indent:0;text-align:start;text-decoration-line:none;text-decoration-style:solid;text-decoration-color:#000;text-transform:none;text-orientation:mixed;shape-padding:0;isolation:auto;mix-blend-mode:normal" overflow="visible"/>
        <path d="M7.394 9.703a.75.75 0 0 0-.574 1.195c1.15 1.605 3.34 2.822 5.547 2.52a.75.75 0 1 0-.203-1.486c-1.482.202-3.321-.784-4.125-1.907a.75.75 0 0 0-.645-.322z" style="line-height:normal;font-variant-ligatures:normal;font-variant-position:normal;font-variant-caps:normal;font-variant-numeric:normal;font-variant-alternates:normal;font-feature-settings:normal;text-indent:0;text-align:start;text-decoration-line:none;text-decoration-style:solid;text-decoration-color:#000;text-transform:none;text-orientation:mixed;shape-padding:0;isolation:auto;mix-blend-mode:normal" overflow="visible"/>
    </g>
</svg>
