<svg xmlns="http://www.w3.org/2000/svg" width="16" height="16.01"><g fill="#2e3436"><path d="M2.955 2.818a1 1 0 00-.899.483A7.004 7.004 0 001 7a1 1 0 102 0c0-.934.262-1.85.755-2.643a1 1 0 00-.8-1.539z" style="line-height:normal;font-variant-ligatures:normal;font-variant-position:normal;font-variant-caps:normal;font-variant-numeric:normal;font-variant-alternates:normal;font-feature-settings:normal;text-indent:0;text-align:start;text-decoration-line:none;text-decoration-style:solid;text-decoration-color:#000;text-transform:none;text-orientation:mixed;shape-padding:0;isolation:auto;mix-blend-mode:normal" color="#000" font-weight="400" font-family="sans-serif" overflow="visible"/><path d="M1.984 5.986A1 1 0 001 7v5.063a1 1 0 102 0V7a1 1 0 00-1.016-1.014z" style="line-height:normal;font-variant-ligatures:normal;font-variant-position:normal;font-variant-caps:normal;font-variant-numeric:normal;font-variant-alternates:normal;font-feature-settings:normal;text-indent:0;text-align:start;text-decoration-line:none;text-decoration-style:solid;text-decoration-color:#000;text-transform:none;text-orientation:mixed;shape-padding:0;isolation:auto;mix-blend-mode:normal" color="#000" font-weight="400" font-family="sans-serif" overflow="visible" fill-rule="evenodd"/><path d="M8 3C5.802 3 4 4.803 4 7a1 1 0 102 0c0-1.116.883-2 2-2 1.116 0 2 .884 2 2a1 1 0 102 0c0-2.197-1.803-4-4-4z" style="line-height:normal;font-variant-ligatures:normal;font-variant-position:normal;font-variant-caps:normal;font-variant-numeric:normal;font-variant-alternates:normal;font-feature-settings:normal;text-indent:0;text-align:start;text-decoration-line:none;text-decoration-style:solid;text-decoration-color:#000;text-transform:none;text-orientation:mixed;shape-padding:0;isolation:auto;mix-blend-mode:normal" color="#000" font-weight="400" font-family="sans-serif" overflow="visible"/><path d="M7.984 5.986A1 1 0 007 7v5s-.001.595.144 1.32c.145.726.413 1.651 1.149 2.387a1 1 0 101.414-1.414c-.265-.264-.497-.839-.602-1.363C9 12.405 9 12 9 12V7a1 1 0 00-1.016-1.014zm-3 0A1 1 0 004 7v1a1 1 0 102 0V7a1 1 0 00-1.016-1.014zm0 4A1 1 0 004 11v3a1 1 0 102 0v-3a1 1 0 00-1.016-1.014zm6-4A1 1 0 0010 7v5s.009.44.175.941a4.56 4.56 0 001.118 1.766 1 1 0 101.414-1.414c-.383-.382-.55-.736-.633-.984C11.99 12.06 12 12 12 12V7a1 1 0 00-1.016-1.014zm3 0A1 1 0 0013 7v1a1 1 0 102 0V7a1 1 0 00-1.016-1.014z" style="line-height:normal;font-variant-ligatures:normal;font-variant-position:normal;font-variant-caps:normal;font-variant-numeric:normal;font-variant-alternates:normal;font-feature-settings:normal;text-indent:0;text-align:start;text-decoration-line:none;text-decoration-style:solid;text-decoration-color:#000;text-transform:none;text-orientation:mixed;shape-padding:0;isolation:auto;mix-blend-mode:normal" color="#000" font-weight="400" font-family="sans-serif" overflow="visible" fill-rule="evenodd"/><path d="M8.072 0a6.996 6.996 0 00-3.488.89 1 1 0 10.974 1.747 4.997 4.997 0 014.97.05A4.996 4.996 0 0113 7a1 1 0 102 0A7.006 7.006 0 0011.54.961 6.993 6.993 0 008.073 0z" style="line-height:normal;font-variant-ligatures:normal;font-variant-position:normal;font-variant-caps:normal;font-variant-numeric:normal;font-variant-alternates:normal;font-feature-settings:normal;text-indent:0;text-align:start;text-decoration-line:none;text-decoration-style:solid;text-decoration-color:#000;text-transform:none;text-orientation:mixed;shape-padding:0;isolation:auto;mix-blend-mode:normal" color="#000" font-weight="400" font-family="sans-serif" overflow="visible"/><path d="M15 11a1 1 0 01-1 1 1 1 0 01-1-1 1 1 0 011-1 1 1 0 011 1z"/></g></svg>