<svg xmlns="http://www.w3.org/2000/svg" width="16" height="16">
    <g fill="#474747">
        <path d="M.998 5C.445 5 0 5.523 0 6.156v4.563C0 11.352.416 12 .969 12h1c0 .633.474 1 1.027 1h.996c.553 0 .977-.367.977-1h5.988c0 .633.467 1 1.02 1h.994c.552 0 .998-.367.998-1h1.002c.552 0 .998-.648.998-1.281V6.156c0-.633-.446-1.156-.998-1.156zm.5 1.192c.275 0 .498.927.498 2.308 0 1.38-.223 2.238-.499 2.238S.998 9.881.998 8.5c0-1.38.223-2.308.5-2.308zm1.995 0c.276 0 .5 1.12.5 2.5s-.26 2.04-.535 2.04-.464-.851-.464-2.232c0-1.38.224-2.308.5-2.308zm1.961 0c.276 0 .534.927.534 2.308 0 1.38-.223 2.233-.499 2.233-.275 0-.499-.852-.499-2.233 0-1.38.189-2.308.464-2.308zM12.475 6a2.498 2.498 0 0 1 2.496 2.5c0 1.38-1.118 2.5-2.496 2.5A2.498 2.498 0 0 1 9.98 8.5c0-1.38 1.117-2.5 2.495-2.5z"/>
        <path d="M13.969 8.5a1.5 1.5 0 0 1-1.5 1.5 1.5 1.5 0 0 1-1.5-1.5 1.5 1.5 0 0 1 1.5-1.5 1.5 1.5 0 0 1 1.5 1.5z"/>
    </g>
</svg>
