<svg xmlns="http://www.w3.org/2000/svg" width="16" height="16">
    <g color="#bebebe" font-weight="400" fill="#2e3436">
        <path d="M3.195 0A2.215 2.215 0 0 0 1 2.201V9.8C1 10.999 1.993 12 3.195 12h6.61A2.215 2.215 0 0 0 12 9.799V2.2C12 1.001 11.006 0 9.804 0zM3.5 2h6c.277 0 .5.223.5.5v7c0 .277-.223.5-.5.5h-6a.499.499 0 0 1-.5-.5v-7c0-.277.223-.5.5-.5z" style="line-height:normal;text-indent:0;text-align:start;text-decoration-line:none;text-decoration-style:solid;text-decoration-color:#000;text-transform:none;isolation:auto;mix-blend-mode:normal;marker:none" font-family="sans-serif" white-space="normal" overflow="visible"/>
        <path d="M13 4v9.813c0 .13-.064.187-.187.187H6.188C6.064 14 6 13.943 6 13.812V13H4v.813C4 15.012 4.986 16 6.188 16h6.625A2.197 2.197 0 0 0 15 13.812V6.189c0-1.136-.886-2.09-2-2.188z" style="line-height:normal;-inkscape-font-specification:Sans;text-indent:0;text-align:start;text-decoration-line:none;text-transform:none;marker:none" font-family="Sans" overflow="visible"/>
        <path d="M6.496 3.004c-1.371 0-2.515 1.127-2.498 2.498L3.994 8h2.502a2.51 2.51 0 0 0 2.498-2.498 2.509 2.509 0 0 0-2.498-2.498zM6.5 4.5a1 1 0 0 1 1 1 1 1 0 0 1-1 1 1 1 0 0 1-1-1 1 1 0 0 1 1-1z" style="line-height:normal;text-indent:0;text-align:start;text-decoration-line:none;text-decoration-style:solid;text-decoration-color:#000;text-transform:none;isolation:auto;mix-blend-mode:normal;marker:none" font-family="sans-serif" white-space="normal" overflow="visible"/>
    </g>
</svg>
