<svg xmlns="http://www.w3.org/2000/svg" width="16" height="16">
    <path d="M1 2c-.554 0-1 .446-1 1v10c0 .554.446 1 1 1h14c.554 0 1-.446 1-1V3c0-.554-.446-1-1-1zm1.25 2h1.5a.25.25 0 0 1 .25.25v1.5a.25.25 0 0 1-.25.25h-1.5A.25.25 0 0 1 2 5.75v-1.5A.25.25 0 0 1 2.25 4zm3 0h1.5a.25.25 0 0 1 .25.25v1.5a.25.25 0 0 1-.25.25h-1.5A.25.25 0 0 1 5 5.75v-1.5A.25.25 0 0 1 5.25 4zm3 0h1.5a.25.25 0 0 1 .25.25v1.5a.25.25 0 0 1-.25.25h-1.5A.25.25 0 0 1 8 5.75v-1.5A.25.25 0 0 1 8.25 4zm3 0h1.5a.25.25 0 0 1 .25.25v1.5a.25.25 0 0 1-.25.25h-1.5a.25.25 0 0 1-.25-.25v-1.5a.25.25 0 0 1 .25-.25zm-8 3h1.5a.25.25 0 0 1 .25.25v1.5a.25.25 0 0 1-.25.25h-1.5A.25.25 0 0 1 3 8.75v-1.5A.25.25 0 0 1 3.25 7zm3 0h1.5a.25.25 0 0 1 .25.25v1.5a.25.25 0 0 1-.25.25h-1.5A.25.25 0 0 1 6 8.75v-1.5A.25.25 0 0 1 6.25 7zm3 0h1.5a.25.25 0 0 1 .25.25v1.5a.25.25 0 0 1-.25.25h-1.5A.25.25 0 0 1 9 8.75v-1.5A.25.25 0 0 1 9.25 7zm3 0h1.5a.25.25 0 0 1 .25.25v1.5a.25.25 0 0 1-.25.25h-1.5a.25.25 0 0 1-.25-.25v-1.5a.25.25 0 0 1 .25-.25zm-10 3h1.5a.25.25 0 0 1 .25.25v1.5a.25.25 0 0 1-.25.25h-1.5a.25.25 0 0 1-.25-.25v-1.5a.25.25 0 0 1 .25-.25zm3 0h5.5a.25.25 0 0 1 .25.25v1.5a.25.25 0 0 1-.25.25h-5.5a.25.25 0 0 1-.25-.25v-1.5a.25.25 0 0 1 .25-.25zm7 0h2.5a.25.25 0 0 1 .25.25v1.5a.25.25 0 0 1-.25.25h-2.5a.25.25 0 0 1-.25-.25v-1.5a.25.25 0 0 1 .25-.25z" style="marker:none" color="#bebebe" overflow="visible" fill="#474747"/>
</svg>
