<svg xmlns="http://www.w3.org/2000/svg" width="16" height="16">
    <g color="#000" font-weight="400" font-family="sans-serif" white-space="normal" fill="#2e3436">
        <path d="M12.403 4.15L7.45 9.102 7 11l1.87-.39 5-5c.549-.593.63-1.11.13-1.61s-1.17-.278-1.597.15z" style="line-height:normal;text-indent:0;text-align:start;text-decoration-line:none;text-decoration-style:solid;text-decoration-color:#000;text-transform:none;isolation:auto;mix-blend-mode:normal;marker:none" clip-rule="evenodd" overflow="visible" fill-rule="evenodd" image-rendering="optimizeQuality" shape-rendering="geometricPrecision" text-rendering="geometricPrecision"/>
        <path d="M2.191 6L.263 15h15.473L14 6.897 12.316 8.58l.946 4.42H2.738l1.07-5h3.33l1.999-2zm9.776 0l-2 2h.1l2-2z" style="line-height:normal;font-variant-ligatures:normal;font-variant-position:normal;font-variant-caps:normal;font-variant-numeric:normal;font-variant-alternates:normal;font-feature-settings:normal;text-indent:0;text-align:start;text-decoration-line:none;text-decoration-style:solid;text-decoration-color:#000;text-transform:none;text-orientation:mixed;shape-padding:0;isolation:auto;mix-blend-mode:normal" overflow="visible" fill-rule="evenodd"/>
        <path d="M8 0v1.5a.506.506 0 0 1-.147.356.484.484 0 0 1-.345.144H4.496a1.498 1.498 0 0 0-1.297 2.248c.266.463.761.752 1.295.752h3.01c.18 0 .34.092.43.248A.506.506 0 0 1 8 5.5V6h1v-.5A1.498 1.498 0 0 0 7.504 4h-3.01a.491.491 0 0 1-.428-.248.507.507 0 0 1 0-.504.488.488 0 0 1 .43-.248h3.012c.396 0 .777-.16 1.056-.441C8.844 2.277 9 1.897 9 1.5V0z" style="line-height:normal;font-variant-ligatures:normal;font-variant-position:normal;font-variant-caps:normal;font-variant-numeric:normal;font-variant-alternates:normal;font-feature-settings:normal;text-indent:0;text-align:start;text-decoration-line:none;text-decoration-style:solid;text-decoration-color:#000;text-transform:none;text-orientation:mixed;shape-padding:0;isolation:auto;mix-blend-mode:normal" overflow="visible"/>
    </g>
</svg>
