<svg xmlns="http://www.w3.org/2000/svg" width="16" height="16.009"><g fill="#2e3436"><path d="M8.062.01c-.454.049-.883.22-1.25.5C6.324.88 6 1.463 6 2.196a.52.52 0 00.5.507.52.52 0 00.5-.507c0-.45.172-.704.437-.907.266-.202.664-.3 1.063-.28.399.018.784.153 1.062.405.279.253.47.585.47 1.125 0 2.166 1.463 3.51 3 3.47.856-.023 1.687-.478 2.25-1.313l-.563-1c-.376.915-1.068 1.295-1.719 1.312-.96.025-1.969-.73-1.969-2.469 0-.792-.337-1.443-.812-1.875C9.743.235 9.138.038 8.53.01c-.151-.007-.317-.016-.469 0zM15 1.977v.156l.781 1.375c.012-.04.021-.083.031-.125zm0 .375c-.006.106-.02.214-.031.312l.719 1.22c.023-.063.041-.123.062-.188zm-.063.5c-.013.09-.044.166-.062.25l.656 1.125c.03-.061.067-.124.094-.188zm-.093.437c-.024.09-.066.17-.094.25l.594 1.032c.04-.066.088-.119.125-.188z" style="line-height:normal;-inkscape-font-specification:Sans;text-indent:0;text-align:start;text-decoration-line:none;text-transform:none;marker:none" color="#000" font-weight="400" font-family="Sans" overflow="visible"/><path d="M5 4.01c-1.108 0-2 .891-2 2v2h3v-4zm2 0v4h3v-2c0-1.109-.892-2-2-2zm-4 5v2.25c0 2.215 1.56 3.75 3.5 3.75 1.939 0 3.5-1.535 3.5-3.75V9.01H6z"/></g></svg>