<?xml version="1.0" encoding="UTF-8"?>
<svg height="16px" viewBox="0 0 16 16" width="16px" xmlns="http://www.w3.org/2000/svg">
    <path d="m 8 0 c -4.417969 0 -8 3.582031 -8 8 s 3.582031 8 8 8 s 8 -3.582031 8 -8 s -3.582031 -8 -8 -8 z m 0 5 c 1.65625 0 3 1.34375 3 3 s -1.34375 3 -3 3 s -3 -1.34375 -3 -3 s 1.34375 -3 3 -3 z m 0 0" fill="#2d3335" fill-opacity="0.976471"/>
    <path d="m 8 6 c -1.097656 0 -2 0.902344 -2 2 s 0.902344 2 2 2 s 2 -0.902344 2 -2 s -0.902344 -2 -2 -2 z m 0 1 c 0.558594 0 1 0.441406 1 1 s -0.441406 1 -1 1 s -1 -0.441406 -1 -1 s 0.441406 -1 1 -1 z m 0 0" fill="#2e3436"/>
</svg>
