<svg xmlns="http://www.w3.org/2000/svg" width="16" height="16">
    <g fill="#474747">
        <path d="M3.197 0A2.217 2.217 0 0 0 1 2.201V13.8C1 14.999 1.995 16 3.197 16h9.607A2.215 2.215 0 0 0 15 13.799V2.2C15 1.001 14.006 0 12.804 0zm0 2h9.607c.124 0 .196.07.196.201V13.8c0 .13-.072.201-.196.201H3.197C3.073 14 3 13.93 3 13.799V2.2c0-.13.073-.201.197-.201z" style="line-height:normal;font-variant-ligatures:normal;font-variant-position:normal;font-variant-caps:normal;font-variant-numeric:normal;font-variant-alternates:normal;font-feature-settings:normal;text-indent:0;text-align:start;text-decoration-line:none;text-decoration-style:solid;text-decoration-color:#000;text-transform:none;text-orientation:mixed;shape-padding:0;isolation:auto;mix-blend-mode:normal;marker:none" color="#bebebe" font-weight="400" font-family="sans-serif" white-space="normal" overflow="visible"/>
        <path d="M7.844 3c-.266.01-.545.059-.813.125a3.99 3.99 0 0 0-2.906 4.844 3.985 3.985 0 0 0 4.373 2.994l-.388-2.98A.39.39 0 0 1 8 8a1 1 0 1 1 1-1 .797.797 0 0 1-.073.325l2.701 1.387c.386-.83.47-1.78.247-2.68A3.985 3.985 0 0 0 7.844 3z" style="marker:none" color="#000" overflow="visible"/>
        <path d="M8.661 8L10 12c.734 2.056 3 .384 1.497-1z" style="marker:none" color="#000" overflow="visible"/>
    </g>
</svg>
