<svg xmlns="http://www.w3.org/2000/svg" width="16" height="16">
    <defs>
        <clipPath id="a">
            <rect y="220.75" x="26.85" width="3.825" style="marker:none" height="6.375" color="#bebebe" overflow="visible" fill="#bebebe" stroke-width="2"/>
        </clipPath>
        <clipPath id="b">
            <rect y="221.282" x="26.966" width="2.898" style="marker:none" height="5.313" color="#bebebe" overflow="visible" fill="#bebebe" stroke-width="2"/>
        </clipPath>
        <clipPath id="c">
            <rect y="221.502" x="26.999" width="1.876" style="marker:none" height="4.878" color="#bebebe" overflow="visible" fill="#bebebe" stroke-width="2"/>
        </clipPath>
    </defs>
    <g fill="#474747">
        <path transform="matrix(0 -.78431 .94118 0 -202.765 31.059)" clip-path="url(#a)" d="M27.18 220.508a1.164 1.164 0 0 0-.81 1.998c.379.38.59.894.59 1.432 0 .537-.211 1.051-.59 1.431a1.164 1.164 0 1 0 1.644 1.645 4.352 4.352 0 0 0 1.275-3.077c0-1.153-.46-2.26-1.275-3.076a1.164 1.164 0 0 0-.834-.353z" style="line-height:normal;font-variant-ligatures:normal;font-variant-position:normal;font-variant-caps:normal;font-variant-numeric:normal;font-variant-alternates:normal;font-feature-settings:normal;text-indent:0;text-align:start;text-decoration-line:none;text-decoration-style:solid;text-decoration-color:#000;text-transform:none;text-orientation:mixed;shape-padding:0;isolation:auto;mix-blend-mode:normal" color="#000" font-weight="400" font-family="sans-serif" white-space="normal" overflow="visible"/>
        <path transform="matrix(0 -1.72549 1.88219 0 -413.493 54.529)" clip-path="url(#b)" d="M27.186 221.123a.555.555 0 0 0-.387.953 2.632 2.632 0 0 1 0 3.723.555.555 0 1 0 .785.785 3.743 3.743 0 0 0 0-5.293.555.555 0 0 0-.398-.168z" style="line-height:normal;font-variant-ligatures:normal;font-variant-position:normal;font-variant-caps:normal;font-variant-numeric:normal;font-variant-alternates:normal;font-feature-settings:normal;text-indent:0;text-align:start;text-decoration-line:none;text-decoration-style:solid;text-decoration-color:#000;text-transform:none;text-orientation:mixed;shape-padding:0;isolation:auto;mix-blend-mode:normal" color="#000" font-weight="400" font-family="sans-serif" white-space="normal" overflow="visible"/>
        <path transform="matrix(0 -2.66667 2.86852 0 -634.374 78)" clip-path="url(#c)" d="M27.188 221.318a.362.362 0 0 0-.252.621 2.825 2.825 0 0 1 0 3.997.362.362 0 1 0 .511.511 3.55 3.55 0 0 0 0-5.02.362.362 0 0 0-.26-.109z" style="line-height:normal;font-variant-ligatures:normal;font-variant-position:normal;font-variant-caps:normal;font-variant-numeric:normal;font-variant-alternates:normal;font-feature-settings:normal;text-indent:0;text-align:start;text-decoration-line:none;text-decoration-style:solid;text-decoration-color:#000;text-transform:none;text-orientation:mixed;shape-padding:0;isolation:auto;mix-blend-mode:normal" color="#000" font-weight="400" font-family="sans-serif" white-space="normal" overflow="visible"/>
        <path d="M10 13a2 2 0 0 1-2 2 2 2 0 0 1-2-2 2 2 0 0 1 2-2 2 2 0 0 1 2 2z"/>
    </g>
</svg>
