<svg xmlns="http://www.w3.org/2000/svg" width="16" height="16">
    <g color="#000" fill="#474747">
        <path d="M3 0c-.579 0-1.06.2-1.469.563a1.7 1.7 0 0 0-.5.75c-.11.332-.112.774.063 1.125l1 2c.088.177.203.427.375.687.24-.073.494-.125.75-.125h9.562c.256 0 .51.052.75.125.172-.26.287-.51.375-.688l1-2c.175-.35.173-.792.063-1.124a1.7 1.7 0 0 0-.5-.75A2.136 2.136 0 0 0 13 0zm.125 2h9.75l-.781 1.563c-.118.237-.177.37-.219.437h-7.75c-.042-.066-.1-.2-.219-.438zM4 6c-.488 0-.935.144-1.313.438C2.31 6.73 2 7.218 2 7.78V16h12V7.781c0-.562-.31-1.05-.688-1.343A2.095 2.095 0 0 0 12 6zm0 1h8v6H4zm7 7h1v1h-1z" style="line-height:normal;-inkscape-font-specification:Sans;text-indent:0;text-align:start;text-decoration-line:none;text-transform:none;marker:none" font-weight="400" font-family="Sans" overflow="visible"/>
        <path d="M3 4h10V2H3z" style="marker:none" overflow="visible" opacity=".35"/>
        <path d="M5 11.031h6v1H5z" style="marker:none" overflow="visible"/>
        <path d="M5 8.031h6V9l-6 1z" style="marker:none" overflow="visible" opacity=".35"/>
    </g>
</svg>
