<svg xmlns="http://www.w3.org/2000/svg" width="16" height="16"><g fill="#474747"><path d="M4.197 0A2.217 2.217 0 002 2.201V13.8c0 1.199.995 2.2 2.197 2.2h7.607A2.215 2.215 0 0014 13.799V2.2c0-1.199-.994-2.2-2.196-2.2zm0 2h7.607c.124 0 .196.07.196.201V13.8c0 .13-.072.201-.196.201H4.197C4.073 14 4 13.93 4 13.799V2.2c0-.13.073-.201.197-.201z" style="line-height:normal;font-variant-ligatures:normal;font-variant-position:normal;font-variant-caps:normal;font-variant-numeric:normal;font-variant-alternates:normal;font-feature-settings:normal;text-indent:0;text-align:start;text-decoration-line:none;text-decoration-style:solid;text-decoration-color:#000;text-transform:none;text-orientation:mixed;shape-padding:0;isolation:auto;mix-blend-mode:normal;marker:none" color="#bebebe" font-weight="400" font-family="sans-serif" overflow="visible"/><path d="M8.78 5a1.023 1.023 0 00-.47.281l-3.03 3a1.018 1.018 0 00-.282.906V10h2.47l-1.187 1.274c-.214.219-.32.54-.28.843a1.464 1.464 0 000 .094v.781H7a1.03 1.03 0 00.719-.281l3-2.992c.184-.19.287-.455.281-.719a.87.87 0 000-.125V8H8.436l1.312-1.281c.215-.22.322-.54.281-.844a1.464 1.464 0 000-.094V5H9.03a1.015 1.015 0 00-.25 0z" style="line-height:normal;-inkscape-font-specification:'Bitstream Vera Sans';text-indent:0;text-align:start;text-decoration-line:none;text-transform:none;marker:none" color="#bebebe" font-weight="400" font-size="xx-small" font-family="Bitstream Vera Sans" overflow="visible"/><path d="M5 3h1v1H5zm2 0h4v1H7z" style="marker:none" color="#000" overflow="visible"/></g></svg>